<svg xmlns="http://www.w3.org/2000/svg" viewBox="0 0 106.38 103.32"><defs><style>.cls-1{fill:#ff7e00;}.cls-2{fill:#e9e3ff;}.cls-3{fill:#ffe1d7;}.cls-4{fill:#fff;}</style></defs><g id="OBJECTS"><path class="cls-1" d="M80.12,81.8c-6.12-19.19-32.26-15-38.38,1.39-2.5,7.51-2.65,18.86,2.23,25.31s16.27,8.72,22.8.83C56.48,110.54,48.69,103.22,53.14,94c3.34-6.12,14.19-5.28,17.8,0" transform="translate(-34.95 -50.04)"/><path class="cls-2" d="M80.51,81.7c-2-6-6.35-10.73-12.53-12.37A22.81,22.81,0,0,0,50.82,72,22,22,0,0,0,40.28,87.29c-1.41,7.5-1.08,17.37,4.78,23,6.16,6,16.37,5.91,22-.71.2-.24.1-.73-.28-.69-5.78.63-13.11-1.57-14.35-8.08a9.51,9.51,0,0,1,2.51-8.44,10.21,10.21,0,0,1,7.58-2.22c3.05.22,6.27,1.49,8.09,4,.29.42,1,0,.69-.4-3.35-4.72-11.27-6-16-2.71a9.77,9.77,0,0,0-3.81,8.26A9.87,9.87,0,0,0,55.35,107c3.21,2.52,7.45,3.21,11.42,2.78l-.28-.68a14.29,14.29,0,0,1-19.58,1.82c-6.32-4.79-7.11-14.1-6.17-21.37a23.79,23.79,0,0,1,3.17-9.78,21.14,21.14,0,0,1,6-6.2,22.54,22.54,0,0,1,16-3.82A17.33,17.33,0,0,1,79.73,81.91c.16.49.94.28.78-.21Z" transform="translate(-34.95 -50.04)"/><path class="cls-2" d="M59.25,108.34c-1.78,1-2.42,3.24-2.43,5.17a.4.4,0,0,0,.8,0c0-1.64.5-3.61,2-4.48a.4.4,0,0,0-.4-.69Z" transform="translate(-34.95 -50.04)"/><path class="cls-2" d="M53.68,104.45a6.29,6.29,0,0,0-3.32,3.62,15.19,15.19,0,0,0-.58,5.07.4.4,0,0,0,.8,0,15.28,15.28,0,0,1,.48-4.67,5.6,5.6,0,0,1,3-3.33c.46-.23.06-.92-.41-.69Z" transform="translate(-34.95 -50.04)"/><path class="cls-2" d="M51.77,98.66c-2.16-.31-4.21.89-5.77,2.27a10.07,10.07,0,0,0-3.44,5.43c-.09.5.68.72.77.21a9.24,9.24,0,0,1,3.06-4.91c1.33-1.23,3.25-2.5,5.16-2.23.51.07.73-.7.22-.77Z" transform="translate(-34.95 -50.04)"/><path class="cls-2" d="M53,93.32c-4-2.5-9.22-.9-13.29.52-.48.17-.28.94.21.77,3.86-1.34,8.89-3,12.67-.6.44.28.84-.41.41-.69Z" transform="translate(-34.95 -50.04)"/><path class="cls-2" d="M42.68,81.63a12.73,12.73,0,0,1,5.42.4,8.14,8.14,0,0,1,4.7,2.76c.29.42,1,0,.69-.41a8.76,8.76,0,0,0-5-3.08,13.75,13.75,0,0,0-6-.44c-.51.09-.29.86.21.77Z" transform="translate(-34.95 -50.04)"/><path class="cls-2" d="M51.92,72.36c5.48.78,9.16,5.84,9.72,11.11.06.51.86.51.8,0-.59-5.59-4.46-11-10.3-11.88-.51-.07-.72.7-.22.77Z" transform="translate(-34.95 -50.04)"/><path class="cls-2" d="M70,71.53a28.56,28.56,0,0,1,0,7.39c-.3,2.44-.91,5.22-2.69,7-.36.37.21.94.57.57,1.85-1.91,2.53-4.72,2.88-7.27a29.4,29.4,0,0,0,0-8c-.07-.51-.84-.3-.77.21Z" transform="translate(-34.95 -50.04)"/><path class="cls-1" d="M97.64,81.8c6.12-19.19,32.26-15,38.38,1.39,2.5,7.51,2.65,18.86-2.23,25.31s-16.27,8.72-22.8.83c10.29,1.21,18.08-6.11,13.63-15.29-3.34-6.12-14.19-5.28-17.8,0" transform="translate(-34.95 -50.04)"/><path class="cls-2" d="M98,81.91A17.31,17.31,0,0,1,110,70.1a21.92,21.92,0,0,1,16.11,2.34,21,21,0,0,1,10.4,14c1.58,7.2,1.52,16.84-3.74,22.64a15.17,15.17,0,0,1-10.22,4.81,13.57,13.57,0,0,1-11.27-4.89l-.28.68c6.31.69,14.23-2,15.21-9.19.43-3.09-.57-6.8-3-8.87A11.19,11.19,0,0,0,115,89.42a11.56,11.56,0,0,0-8.49,4.42c-.3.42.4.82.69.4,3.08-4.34,10.45-5.41,14.81-2.5,2.53,1.7,3.66,5,3.51,7.94a9.16,9.16,0,0,1-4.1,7A15.27,15.27,0,0,1,111,108.93c-.38,0-.48.45-.28.69a15,15,0,0,0,20.06,2.29c6.79-4.7,8-14.08,7.14-21.7a25.73,25.73,0,0,0-3-10.33,22,22,0,0,0-6-6.61,23.4,23.4,0,0,0-17-4.38c-7.13,1-12.46,6-14.67,12.81-.16.49.62.7.78.21Z" transform="translate(-34.95 -50.04)"/><path class="cls-2" d="M118.11,109c1.53.87,2,2.84,2,4.48a.4.4,0,0,0,.8,0c0-1.93-.65-4.16-2.43-5.17-.44-.25-.85.44-.4.69Z" transform="translate(-34.95 -50.04)"/><path class="cls-2" d="M123.67,105.14a5.6,5.6,0,0,1,3,3.33,15.28,15.28,0,0,1,.48,4.67.4.4,0,0,0,.8,0,15.19,15.19,0,0,0-.58-5.07,6.29,6.29,0,0,0-3.32-3.62c-.47-.23-.87.46-.41.69Z" transform="translate(-34.95 -50.04)"/><path class="cls-2" d="M126.21,99.43c1.91-.27,3.83,1,5.16,2.23a9.24,9.24,0,0,1,3.06,4.91c.09.5.86.29.77-.21a10.07,10.07,0,0,0-3.44-5.43c-1.56-1.38-3.61-2.58-5.77-2.27-.51.07-.29.85.22.77Z" transform="translate(-34.95 -50.04)"/><path class="cls-2" d="M125.19,94c3.78-2.38,8.81-.75,12.67.6.48.17.69-.6.21-.77-4.07-1.42-9.31-3-13.29-.52-.43.28,0,1,.41.69Z" transform="translate(-34.95 -50.04)"/><path class="cls-2" d="M135.29,80.86a13.75,13.75,0,0,0-6,.44,8.73,8.73,0,0,0-5,3.08c-.29.43.4.83.69.41,1-1.52,3-2.3,4.7-2.76a12.73,12.73,0,0,1,5.42-.4c.5.09.72-.68.21-.77Z" transform="translate(-34.95 -50.04)"/><path class="cls-2" d="M125.62,71.59c-5.85.83-9.71,6.29-10.3,11.88-.06.51.74.51.8,0,.55-5.27,4.24-10.33,9.71-11.11.51-.07.3-.84-.21-.77Z" transform="translate(-34.95 -50.04)"/><path class="cls-2" d="M107,71.32a29.4,29.4,0,0,0,0,8c.35,2.55,1,5.36,2.88,7.27.36.37.93-.2.57-.57-1.78-1.83-2.39-4.61-2.69-7a28.56,28.56,0,0,1,0-7.39c.07-.51-.7-.72-.77-.21Z" transform="translate(-34.95 -50.04)"/><path class="cls-1" d="M71.78,92.93c-2-12.52-13.63-8.9-23.09-7.79C50.36,94,61.21,98.21,69.27,96" transform="translate(-34.95 -50.04)"/><path class="cls-2" d="M72.16,92.82a11.8,11.8,0,0,0-3-6.68,10,10,0,0,0-5.62-2.56c-4.91-.71-9.94.58-14.81,1.16a.41.41,0,0,0-.38.51C50.14,94.41,61,98.6,69.38,96.37a.4.4,0,0,0-.21-.77c-8,2.12-18.34-1.83-20.09-10.57l-.39.51c4.55-.54,9.17-1.67,13.77-1.28a10,10,0,0,1,5.77,2.15A10.8,10.8,0,0,1,71.39,93c.08.51.86.29.77-.21Z" transform="translate(-34.95 -50.04)"/><path class="cls-2" d="M53.7,88.69a21.62,21.62,0,0,1,6.85,1.62,14.44,14.44,0,0,1,5.84,3.83c.34.39.9-.18.57-.57a15.25,15.25,0,0,0-6-4,22.6,22.6,0,0,0-7.24-1.72c-.51,0-.51.78,0,.8Z" transform="translate(-34.95 -50.04)"/><path class="cls-1" d="M106,92.93c2-12.52,13.63-8.9,23.09-7.79C127.4,94,116.55,98.21,108.49,96" transform="translate(-34.95 -50.04)"/><path class="cls-2" d="M106.37,93a10.8,10.8,0,0,1,3.16-6.62,10,10,0,0,1,5.77-2.15c4.6-.39,9.22.74,13.77,1.28l-.39-.51c-1.75,8.74-12.12,12.69-20.09,10.57a.4.4,0,0,0-.21.77c8.36,2.23,19.24-2,21.07-11.12a.41.41,0,0,0-.38-.51c-4.87-.58-9.9-1.87-14.81-1.16a10,10,0,0,0-5.54,2.49,11.66,11.66,0,0,0-3.12,6.75c-.09.5.68.72.77.21Z" transform="translate(-34.95 -50.04)"/><path class="cls-2" d="M124.06,87.89a22.6,22.6,0,0,0-7.24,1.72,15.25,15.25,0,0,0-6,4c-.33.39.23,1,.56.57a14.55,14.55,0,0,1,5.85-3.83,21.56,21.56,0,0,1,6.85-1.62c.51,0,.51-.82,0-.8Z" transform="translate(-34.95 -50.04)"/><path class="cls-1" d="M91.52,79.44c12-.19,17.52,3.76,19.19,11,2,7.23-4.28,19.94-5.95,26.59-1.67,6.36-1.67,6.36-1.84,11.59-.27,8.63-5.84,11.86-13.07,10.71H87.91c-7.23,1.15-12.8-2.08-13.07-10.71-.17-5.23-.17-5.23-1.84-11.59-1.67-6.65-7.9-19.36-6-26.59,1.67-7.23,7.23-11.18,19.19-11" transform="translate(-34.95 -50.04)"/><path class="cls-2" d="M91.52,79.84c5.45-.07,11.93.49,15.85,4.77,3.67,4,3.72,9.56,2.6,14.57-1.29,5.79-3.76,11.2-5.37,16.88a55.66,55.66,0,0,0-1.79,7.61c-.35,2.7-.06,5.48-.69,8.14A9.11,9.11,0,0,1,97.71,138c-2.5,1.34-5.09,1.14-7.8,1-2.09-.16-4.14.37-6.23.13a8.9,8.9,0,0,1-6.47-3.6c-1.78-2.55-1.92-5.58-2-8.58a31.45,31.45,0,0,0-.82-6.2c-1.41-5.81-3.6-11.32-5.36-17-1.63-5.31-3-11.13-.44-16.37C71,82.48,76.08,80.58,81.14,80a43.4,43.4,0,0,1,5.1-.2.4.4,0,0,0,0-.8c-5.56-.07-12.06.53-16.17,4.74-3.62,3.71-4.25,9-3.39,13.93,1.14,6.46,4,12.41,5.74,18.69a46.92,46.92,0,0,1,1.84,8.26c.26,3,0,6,1,8.85,1.9,5.13,7,6.93,12.07,6.28,2.35-.29,4.67.35,7,0a9.71,9.71,0,0,0,6.28-3.24c3.62-4.29,2.21-10.31,3.42-15.41,1.5-6.32,4-12.28,5.78-18.51,1.55-5.34,2.57-11.08-.23-16.2-2.52-4.62-7.53-6.54-12.51-7.16A40.67,40.67,0,0,0,91.52,79a.4.4,0,0,0,0,.8Z" transform="translate(-34.95 -50.04)"/><path class="cls-1" d="M86.39,75.87c-9.65.16-10.67,10.94-4.85,15.2,1.16-1.29,2.13-2.59,3.3-3.71C86.39,89.59,86,93.48,86,96.08c3.1-2,6-4.27,6.21-8a17,17,0,0,1,3.68,4.63c3.49-2.41,4.66-9.27,3.11-12.6-1.94-4.64-8.15-4.27-12.61-4.27" transform="translate(-34.95 -50.04)"/><path class="cls-2" d="M86.39,75.47c-4,.11-7.68,2.26-8.61,6.36a9.49,9.49,0,0,0,3.56,9.59.39.39,0,0,0,.48-.06c1.1-1.24,2.12-2.55,3.3-3.71l-.63-.08c1.6,2.44,1.12,5.74,1.11,8.51a.4.4,0,0,0,.6.34c3-2,6.12-4.39,6.41-8.31l-.68.28a17.94,17.94,0,0,1,3.62,4.55.4.4,0,0,0,.54.15c3.64-2.62,5-8.91,3.33-13-2.11-5-8.49-4.64-13-4.64a.4.4,0,0,0,0,.8c4,0,10.08-.54,12.16,3.83A10.38,10.38,0,0,1,99,86.43a9.56,9.56,0,0,1-3.31,6l.55.14a18.63,18.63,0,0,0-3.75-4.72.4.4,0,0,0-.68.29c-.27,3.6-3.23,5.79-6,7.62l.6.35c0-2.92.47-6.34-1.22-8.92a.4.4,0,0,0-.62-.08c-1.19,1.16-2.2,2.47-3.3,3.71l.48-.06A8.67,8.67,0,0,1,78.55,82c.85-3.75,4.17-5.67,7.84-5.77a.4.4,0,0,0,0-.8Z" transform="translate(-34.95 -50.04)"/><path class="cls-2" d="M78.26,96.69c4.15,3.27,5.72,8.63,6.43,13.66a95.23,95.23,0,0,1,.5,15.57.4.4,0,0,0,.8,0,95.39,95.39,0,0,0-.57-16.12c-.76-5-2.43-10.4-6.59-13.67-.4-.32-1,.24-.57.56Z" transform="translate(-34.95 -50.04)"/><path class="cls-2" d="M73.63,106.91a7.13,7.13,0,0,0,8.27.45c.42-.29,0-1-.41-.69a6.33,6.33,0,0,1-7.3-.32c-.39-.33-1,.23-.56.56Z" transform="translate(-34.95 -50.04)"/><path class="cls-2" d="M98.93,96.13c-4.16,3.27-5.83,8.63-6.59,13.67a95.39,95.39,0,0,0-.57,16.12.4.4,0,0,0,.8,0,95.23,95.23,0,0,1,.5-15.57c.71-5,2.28-10.39,6.43-13.66.4-.32-.17-.88-.57-.56Z" transform="translate(-34.95 -50.04)"/><path class="cls-2" d="M103.57,106.35a6.33,6.33,0,0,1-7.3.32c-.43-.29-.83.4-.41.69a7.13,7.13,0,0,0,8.27-.45c.4-.33-.17-.89-.56-.56Z" transform="translate(-34.95 -50.04)"/><path class="cls-1" d="M82.17,135.9c.39,5.62,13.38,5.5,13.38,0" transform="translate(-34.95 -50.04)"/><path class="cls-2" d="M81.77,135.9c.21,2.58,2.67,3.93,5,4.36s5.4.26,7.47-1.23A3.9,3.9,0,0,0,96,135.9a.4.4,0,0,0-.8,0c0,2.17-2.27,3.2-4.12,3.57a9.54,9.54,0,0,1-6.71-.95,3.46,3.46,0,0,1-1.75-2.62c0-.51-.85-.51-.8,0Z" transform="translate(-34.95 -50.04)"/><path class="cls-2" d="M88.35,131.51a17,17,0,0,0,.16,2,.4.4,0,0,0,0,.15s0-.14,0-.07v.24c0,.37,0,.75,0,1.12a.4.4,0,0,0,.8,0,12.75,12.75,0,0,0,0-1.38,1.46,1.46,0,0,0,0-.22.13.13,0,0,1,0-.06c0-.1,0,.11,0,0l0-.29c0-.51-.07-1-.1-1.52a.41.41,0,0,0-.4-.4.4.4,0,0,0-.4.4Z" transform="translate(-34.95 -50.04)"/><path class="cls-2" d="M88.41,135.08c-1.68,1.83-5.56,1.71-7-.33a3.17,3.17,0,0,1-.52-2.24c.05-.52-.75-.51-.8,0a3.91,3.91,0,0,0,2.09,3.92,6.44,6.44,0,0,0,4.66.48A4.51,4.51,0,0,0,89,135.65c.35-.38-.22-1-.56-.57Z" transform="translate(-34.95 -50.04)"/><path class="cls-2" d="M88.74,135.65c2,2.22,6.56,2,8.3-.49a3.94,3.94,0,0,0,.63-2.65c-.06-.51-.86-.52-.8,0a3.15,3.15,0,0,1-1.77,3.27,5.67,5.67,0,0,1-4,.36,3.82,3.82,0,0,1-1.82-1.06c-.35-.38-.91.19-.57.57Z" transform="translate(-34.95 -50.04)"/><path class="cls-2" d="M89.22,131.42c-1.92-1.55-3.83-3.06-4.94-5.32l-.24.59c3.21-.57,6.48-.19,9.72-.18l-.39-.51c-.61,2.38-3,3.85-4.71,5.42-.38.35.18.91.56.57,1.83-1.68,4.27-3.23,4.92-5.78a.4.4,0,0,0-.38-.5c-3.31,0-6.65-.38-9.93.21a.39.39,0,0,0-.24.58c1.14,2.33,3.1,3.9,5.07,5.49.39.32,1-.25.56-.57Z" transform="translate(-34.95 -50.04)"/><path class="cls-2" d="M93.3,127c3.48.67,8.24,2.72,8.11,6.93a.4.4,0,0,0,.8,0c.14-4.59-4.85-7-8.7-7.7-.5-.1-.72.67-.21.77Z" transform="translate(-34.95 -50.04)"/><path class="cls-2" d="M84,126.23c-3.85.74-8.84,3.11-8.71,7.7,0,.52.82.52.8,0-.12-4.21,4.64-6.26,8.12-6.93.51-.1.29-.87-.21-.77Z" transform="translate(-34.95 -50.04)"/><path class="cls-3" d="M117.69,125.45a51.19,51.19,0,0,0-.67,5.39,20.62,20.62,0,0,0-3.57.6c1,.6,3.42.77,3.5,1.08.16.64.59,3.81,1.13,5.43.39-2,.63-3.69.89-5.47,0-.19,2.44-.54,3.43-1.08a12.87,12.87,0,0,0-3.68-.56,41.26,41.26,0,0,0-1-5.39" transform="translate(-34.95 -50.04)"/><path class="cls-3" d="M74.72,54a43.4,43.4,0,0,0-.57,4.58,17,17,0,0,0-3,.51c.87.51,2.9.65,3,.92.14.54.51,3.24,1,4.61.33-1.73.54-3.14.76-4.65,0-.16,2.07-.46,2.91-.92a11.2,11.2,0,0,0-3.12-.47A34.53,34.53,0,0,0,74.72,54" transform="translate(-34.95 -50.04)"/><path class="cls-3" d="M56.87,131.66a35.93,35.93,0,0,0-.48,3.89,15.11,15.11,0,0,0-2.58.43c.74.44,2.47.56,2.52.79.12.46.43,2.75.82,3.92.28-1.47.46-2.67.64-4,0-.13,1.76-.38,2.48-.77a9.18,9.18,0,0,0-2.66-.41,28.47,28.47,0,0,0-.74-3.89" transform="translate(-34.95 -50.04)"/><path class="cls-4" d="M108.61,57.2a2.06,2.06,0,1,0,.15,4.12,2.06,2.06,0,0,0-.15-4.12" transform="translate(-34.95 -50.04)"/><path class="cls-4" d="M71.54,143.42a1.54,1.54,0,1,0,.11,3.08,1.54,1.54,0,0,0-.11-3.08" transform="translate(-34.95 -50.04)"/><path class="cls-4" d="M134.65,121.78a1.55,1.55,0,1,0,.11,3.09,1.55,1.55,0,0,0-.11-3.09" transform="translate(-34.95 -50.04)"/><path class="cls-4" d="M41.86,117.41a1,1,0,1,0,.07,2.06,1,1,0,0,0-.07-2.06" transform="translate(-34.95 -50.04)"/><path class="cls-4" d="M56.18,59.85a1,1,0,1,0,.08,2,1,1,0,0,0-.08-2" transform="translate(-34.95 -50.04)"/><path class="cls-4" d="M107.12,149.14a1,1,0,1,0,.07,2.06,1,1,0,0,0-.07-2.06" transform="translate(-34.95 -50.04)"/><path class="cls-2" d="M93,69a1.25,1.25,0,0,0,0-2.5A1.25,1.25,0,0,0,93,69Z" transform="translate(-34.95 -50.04)"/><path class="cls-2" d="M88.46,153.35a1.25,1.25,0,0,0,0-2.5,1.25,1.25,0,0,0,0,2.5Z" transform="translate(-34.95 -50.04)"/><path class="cls-2" d="M63.36,124.78a1,1,0,0,0,0-2,1,1,0,0,0,0,2Z" transform="translate(-34.95 -50.04)"/><path class="cls-2" d="M91,52a1,1,0,0,0,0-2,1,1,0,0,0,0,2Z" transform="translate(-34.95 -50.04)"/><path class="cls-2" d="M129,66.2a1,1,0,0,0,0-2,1,1,0,0,0,0,2Z" transform="translate(-34.95 -50.04)"/><path class="cls-2" d="M123.87,142.81a1,1,0,0,0,0-2,1,1,0,0,0,0,2Z" transform="translate(-34.95 -50.04)"/><path class="cls-2" d="M111.64,121.31a.75.75,0,0,0,0-1.5.75.75,0,0,0,0,1.5Z" transform="translate(-34.95 -50.04)"/><path class="cls-2" d="M43.4,132.9a.75.75,0,0,0,0-1.5.75.75,0,0,0,0,1.5Z" transform="translate(-34.95 -50.04)"/><path class="cls-2" d="M105.84,141.27a.75.75,0,0,0,0-1.5.75.75,0,0,0,0,1.5Z" transform="translate(-34.95 -50.04)"/><path class="cls-2" d="M35.68,102.64a.75.75,0,0,0,0-1.5.75.75,0,0,0,0,1.5Z" transform="translate(-34.95 -50.04)"/><path class="cls-2" d="M140.61,109.72a.75.75,0,0,0,0-1.5.75.75,0,0,0,0,1.5Z" transform="translate(-34.95 -50.04)"/></g></svg>