<svg xmlns="http://www.w3.org/2000/svg" viewBox="0 0 105.04 105"><defs><style>.cls-1{fill:#ff7e00;}.cls-2{fill:#e9e3ff;}.cls-3{fill:#ffe1d7;}.cls-4{fill:#fff;}</style></defs><g id="OBJECTS"><path class="cls-1" d="M484.63,110.76c-13.7,1-22.63,9.65-16.53,12.48,1.57.74,3.31-3.62,7.57-5.28a23.24,23.24,0,0,1,11.48-1.73" transform="translate(-459.1 -50.04)"/><path class="cls-2" d="M484.63,110.36a32.93,32.93,0,0,0-11.78,3c-2.39,1.15-5,2.75-6.4,5.08-.94,1.55-1,3.39.54,4.56a2,2,0,0,0,2.34.42,18.85,18.85,0,0,0,2.94-2.78c3.83-3.58,9.83-4.53,14.88-4.05.51.05.51-.75,0-.8a23.8,23.8,0,0,0-12.2,2,13.34,13.34,0,0,0-3.74,2.76c-.48.48-.94,1-1.43,1.45-.3.3-.74.8-1.19.86-.69.1-1.58-.79-1.86-1.37a2.65,2.65,0,0,1,.17-2.23c1.06-2.17,3.42-3.69,5.49-4.78a31.12,31.12,0,0,1,12.24-3.37c.51,0,.51-.84,0-.8Z" transform="translate(-459.1 -50.04)"/><path class="cls-1" d="M487.25,118.44c-13.59,2-21.88,11.25-15.6,13.64,1.63.62,3.05-3.85,7.18-5.81a23.23,23.23,0,0,1,11.33-2.55" transform="translate(-459.1 -50.04)"/><path class="cls-2" d="M487.14,118.06a32.31,32.31,0,0,0-11.64,4c-2.26,1.32-4.71,3.11-5.89,5.53-.78,1.62-.63,3.41,1,4.44a1.93,1.93,0,0,0,2.43.12,28.71,28.71,0,0,0,2.87-3.16,15.35,15.35,0,0,1,6.27-3.64,22.92,22.92,0,0,1,8-1.2c.51,0,.51-.78,0-.8a24.36,24.36,0,0,0-11.78,2.73,13.26,13.26,0,0,0-3.82,3.17c-.43.5-.83,1-1.27,1.5-.28.32-.67.85-1.11,1-.7.21-1.68-.63-2-1.2a2.57,2.57,0,0,1,0-2.2c.89-2.3,3.24-4,5.25-5.28a31.55,31.55,0,0,1,11.94-4.18c.51-.08.3-.85-.21-.77Z" transform="translate(-459.1 -50.04)"/><path class="cls-1" d="M492,125.27c-13.46,2.69-21.26,12.36-14.86,14.42,1.66.54,2.84-4,6.86-6.17a23.11,23.11,0,0,1,11.18-3.13" transform="translate(-459.1 -50.04)"/><path class="cls-2" d="M491.93,124.88a32.58,32.58,0,0,0-11.36,4.52c-2.2,1.44-4.54,3.32-5.63,5.79-.74,1.67-.54,3.52,1.16,4.48a1.94,1.94,0,0,0,2.39,0,24.6,24.6,0,0,0,2.63-3.2,15.11,15.11,0,0,1,6.09-4.05,22.42,22.42,0,0,1,8-1.65c.52,0,.52-.82,0-.8a24.17,24.17,0,0,0-11.73,3.38,13.78,13.78,0,0,0-3.62,3.4c-.39.5-.75,1-1.15,1.51-.27.34-.64.9-1.08,1-.68.19-1.68-.59-2-1.14a2.52,2.52,0,0,1-.11-2.18c.76-2.33,3-4.17,4.93-5.52a31.56,31.56,0,0,1,11.72-4.81c.5-.1.29-.87-.21-.77Z" transform="translate(-459.1 -50.04)"/><path class="cls-1" d="M537.2,110.76c13.69,1,22.62,9.65,16.53,12.48-1.58.74-3.32-3.62-7.57-5.28a23.3,23.3,0,0,0-11.49-1.73" transform="translate(-459.1 -50.04)"/><path class="cls-2" d="M537.2,111.16A32.15,32.15,0,0,1,548.35,114c2.31,1.09,4.85,2.57,6.26,4.78.94,1.48.9,3.24-.88,4-.91.41-1.79-.85-2.36-1.43a19.27,19.27,0,0,0-3.3-2.88,19.62,19.62,0,0,0-6.35-2.31,23.47,23.47,0,0,0-7.05-.35c-.51,0-.51.85,0,.8a22.67,22.67,0,0,1,7.48.47,16.44,16.44,0,0,1,6.48,2.78c1.19.94,2.12,2.15,3.28,3.13a1.85,1.85,0,0,0,2.29.44,3.18,3.18,0,0,0,1.52-4.3c-1-2.35-3.5-4-5.67-5.2a32.07,32.07,0,0,0-12.85-3.59c-.52,0-.51.76,0,.8Z" transform="translate(-459.1 -50.04)"/><path class="cls-1" d="M534.58,118.44c13.59,2,21.87,11.25,15.59,13.64-1.63.62-3-3.85-7.17-5.81a23.26,23.26,0,0,0-11.33-2.55" transform="translate(-459.1 -50.04)"/><path class="cls-2" d="M534.47,118.83a32.43,32.43,0,0,1,10.84,3.54c2.28,1.26,4.76,2.94,6.05,5.29.85,1.54.68,3.38-1.21,4-.9.3-1.72-1-2.22-1.65a18.29,18.29,0,0,0-3.25-3.21,19.82,19.82,0,0,0-6.09-2.65,23.44,23.44,0,0,0-6.92-.83c-.51,0-.52.82,0,.8a22.72,22.72,0,0,1,7.14.92,17,17,0,0,1,6.27,3.09c1.16,1,2,2.28,3.11,3.4.66.7,1.36,1.23,2.32.84a3.18,3.18,0,0,0,2-4.11c-.81-2.44-3.14-4.29-5.21-5.63a31.64,31.64,0,0,0-12.61-4.57c-.5-.08-.72.69-.21.77Z" transform="translate(-459.1 -50.04)"/><path class="cls-1" d="M529.79,125.27c13.47,2.69,21.26,12.36,14.87,14.42-1.66.54-2.85-4-6.87-6.17a23.08,23.08,0,0,0-11.18-3.13" transform="translate(-459.1 -50.04)"/><path class="cls-2" d="M529.68,125.65a32.42,32.42,0,0,1,10.69,4.13c2.19,1.37,4.55,3.18,5.71,5.57.76,1.58.49,3.37-1.39,3.91-1,.27-1.7-1.13-2.18-1.76a17.48,17.48,0,0,0-3.13-3.41,20.36,20.36,0,0,0-5.92-2.94,23.16,23.16,0,0,0-6.85-1.16c-.51,0-.51.78,0,.8a22.2,22.2,0,0,1,7.18,1.33,16.71,16.71,0,0,1,6,3.34c1.14,1.1,2,2.44,3,3.64.63.73,1.3,1.25,2.28.89a3.2,3.2,0,0,0,2.11-4.11c-.71-2.4-2.86-4.3-4.8-5.72a31.46,31.46,0,0,0-12.44-5.28c-.51-.1-.72.67-.22.77Z" transform="translate(-459.1 -50.04)"/><path class="cls-2" d="M477.05,112.43a9.59,9.59,0,0,1,1.2,1.93,4,4,0,0,1,.29,2,.4.4,0,1,0,.8,0,6.23,6.23,0,0,0-1.6-4.33.4.4,0,0,0-.69.41Z" transform="translate(-459.1 -50.04)"/><path class="cls-2" d="M474,113.71a4.36,4.36,0,0,1,1.78,3.67c0,.21.2.4.4.4a.42.42,0,0,0,.4-.4,5.11,5.11,0,0,0-2-4.24.4.4,0,1,0-.57.57Z" transform="translate(-459.1 -50.04)"/><path class="cls-2" d="M469.3,116.69a11.08,11.08,0,0,1,1.83,1.35,3.74,3.74,0,0,1,1.08,1.91.39.39,0,0,0,.49.28.41.41,0,0,0,.28-.49,4.4,4.4,0,0,0-1.25-2.23,11.15,11.15,0,0,0-2-1.51c-.43-.27-.84.42-.4.69Z" transform="translate(-459.1 -50.04)"/><path class="cls-2" d="M479.86,120.71a8.71,8.71,0,0,1,1.28,1.79,3.9,3.9,0,0,1,.44,1.92c0,.52.78.52.8,0a6.33,6.33,0,0,0-2-4.28.4.4,0,1,0-.56.57Z" transform="translate(-459.1 -50.04)"/><path class="cls-2" d="M476.94,122.19a4.29,4.29,0,0,1,2,3.46c0,.51.78.51.8,0a5.16,5.16,0,0,0-2.36-4.15.4.4,0,0,0-.55.14.41.41,0,0,0,.14.55Z" transform="translate(-459.1 -50.04)"/><path class="cls-2" d="M472.36,125.45a11.55,11.55,0,0,1,1.93,1.2,3.74,3.74,0,0,1,1.22,1.83.4.4,0,0,0,.77-.22,4.44,4.44,0,0,0-1.39-2.14,11.05,11.05,0,0,0-2.13-1.37.42.42,0,0,0-.55.15.41.41,0,0,0,.15.55Z" transform="translate(-459.1 -50.04)"/><path class="cls-2" d="M484.76,127.89a5.57,5.57,0,0,1,1.92,3.62.4.4,0,0,0,.8,0,4.84,4.84,0,0,0-.62-2.25,10.2,10.2,0,0,0-1.54-1.93c-.36-.37-.92.19-.56.56Z" transform="translate(-459.1 -50.04)"/><path class="cls-2" d="M481.92,129.53a4.3,4.3,0,0,1,2.16,3.34.4.4,0,0,0,.8,0,5.1,5.1,0,0,0-2.56-4,.41.41,0,0,0-.55.14.42.42,0,0,0,.15.55Z" transform="translate(-459.1 -50.04)"/><path class="cls-2" d="M477.51,133c1.35.63,2.8,1.35,3.31,2.85a.41.41,0,0,0,.49.28.4.4,0,0,0,.28-.49,4.39,4.39,0,0,0-1.48-2.07,10.9,10.9,0,0,0-2.2-1.26.42.42,0,0,0-.55.14.4.4,0,0,0,.15.55Z" transform="translate(-459.1 -50.04)"/><path class="cls-2" d="M544.08,112a6.23,6.23,0,0,0-1.6,4.33.41.41,0,0,0,.4.4.41.41,0,0,0,.4-.4,4.1,4.1,0,0,1,.29-2,9.59,9.59,0,0,1,1.2-1.93.4.4,0,0,0-.14-.55.41.41,0,0,0-.55.14Z" transform="translate(-459.1 -50.04)"/><path class="cls-2" d="M547.23,113.14a5.1,5.1,0,0,0-2,4.24.41.41,0,0,0,.4.4.41.41,0,0,0,.4-.4,4.35,4.35,0,0,1,1.77-3.67.4.4,0,1,0-.57-.57Z" transform="translate(-459.1 -50.04)"/><path class="cls-2" d="M552.12,116a11.51,11.51,0,0,0-2,1.51,4.5,4.5,0,0,0-1.24,2.23.4.4,0,0,0,.28.49.39.39,0,0,0,.49-.28,3.72,3.72,0,0,1,1.07-1.91,11.16,11.16,0,0,1,1.84-1.35c.43-.27,0-1-.41-.69Z" transform="translate(-459.1 -50.04)"/><path class="cls-2" d="M541.4,120.14a6.32,6.32,0,0,0-1.95,4.28c0,.52.82.52.8,0a3.89,3.89,0,0,1,.43-1.92,8.76,8.76,0,0,1,1.29-1.79.4.4,0,0,0-.57-.57Z" transform="translate(-459.1 -50.04)"/><path class="cls-2" d="M544.48,121.5a5.14,5.14,0,0,0-2.37,4.15c0,.51.82.51.8,0a4.32,4.32,0,0,1,2-3.46.42.42,0,0,0,.15-.55.41.41,0,0,0-.55-.14Z" transform="translate(-459.1 -50.04)"/><path class="cls-2" d="M549.06,124.75a11.29,11.29,0,0,0-2.12,1.37,4.44,4.44,0,0,0-1.39,2.14.4.4,0,0,0,.77.22,3.67,3.67,0,0,1,1.22-1.83,10.79,10.79,0,0,1,1.93-1.2.41.41,0,0,0-.41-.7Z" transform="translate(-459.1 -50.04)"/><path class="cls-2" d="M536.5,127.33a9.77,9.77,0,0,0-1.53,1.93,4.73,4.73,0,0,0-.62,2.25.4.4,0,0,0,.8,0,5.48,5.48,0,0,1,1.92-3.62c.35-.37-.21-.93-.57-.56Z" transform="translate(-459.1 -50.04)"/><path class="cls-2" d="M539.5,128.84a5.15,5.15,0,0,0-2.56,4,.4.4,0,0,0,.8,0,4.28,4.28,0,0,1,2.17-3.34.41.41,0,0,0,.14-.55.4.4,0,0,0-.55-.14Z" transform="translate(-459.1 -50.04)"/><path class="cls-2" d="M543.91,132.33a10.83,10.83,0,0,0-2.19,1.26,4.41,4.41,0,0,0-1.49,2.07.4.4,0,0,0,.28.49.4.4,0,0,0,.49-.28c.51-1.5,2-2.22,3.32-2.85a.4.4,0,0,0-.41-.69Z" transform="translate(-459.1 -50.04)"/><path class="cls-1" d="M491.82,97.55c-5-.23-9.79,1.28-9.79-4.38C482,87,485,84.44,485,84.44c8.41,1.18,12.81-4.49,11.24-10.33,0,0-8.49,3.09-11.84,4.38-.26-6.18,5.58-8.15,11.07-9.52-4.63-4.64-15.19-4.12-19.57,0-3.86,4.11-3.6,13.64,3.09,14.67-2.83,3.09-5.66,10-3.86,14.17,2.06,5.4,7,6.43,14.42,6.43" transform="translate(-459.1 -50.04)"/><path class="cls-2" d="M491.82,97.15c-1.51-.06-3,0-4.51,0a6.25,6.25,0,0,1-3.66-.76c-1.37-1-1.28-3-1.18-4.51a13.8,13.8,0,0,1,1.16-4.78A5.72,5.72,0,0,1,485,85c.23-.16.13-.15.31-.17s.86.16,1.23.18A14.42,14.42,0,0,0,488,85a9.87,9.87,0,0,0,7.05-3.28A8.61,8.61,0,0,0,496.58,74a.4.4,0,0,0-.49-.28c-4,1.44-7.92,2.87-11.85,4.38l.51.38c-.14-6,5.94-7.92,10.78-9.14a.4.4,0,0,0,.17-.67c-4.19-4.05-11.52-4.24-16.68-2.13a8.84,8.84,0,0,0-5.16,4.83,11.58,11.58,0,0,0-.55,7.46A6.94,6.94,0,0,0,478.84,84l-.18-.67c-3.59,4-6.08,10.8-3.37,15.87s9.09,5.4,14.21,5.41a.4.4,0,0,0,0-.8c-4.7,0-10.74-.15-13.38-4.77s-.31-11.32,3.11-15.15a.4.4,0,0,0-.18-.66c-6.26-1.09-6.87-10.39-2.72-14.19,2.38-2.18,6.08-2.93,9.21-3,3.4-.06,7.08.74,9.6,3.17l.17-.67c-5.22,1.32-11.51,3.47-11.36,9.91a.4.4,0,0,0,.51.39c3.92-1.51,7.89-2.94,11.84-4.38l-.49-.28a7.7,7.7,0,0,1-2.38,8,9.29,9.29,0,0,1-4.78,1.93,13.54,13.54,0,0,1-2.7,0c-.47,0-.9-.21-1.31,0a4.09,4.09,0,0,0-1,1.3,12,12,0,0,0-1.43,3.29c-.65,2.39-1.36,6.47.94,8.23s6.08.84,8.7.94c.51,0,.51-.78,0-.8Z" transform="translate(-459.1 -50.04)"/><path class="cls-1" d="M476.88,87.33a9.82,9.82,0,0,0,5.5,1" transform="translate(-459.1 -50.04)"/><path class="cls-2" d="M476.68,87.68a10.13,10.13,0,0,0,5.7,1.08c.51,0,.51-.84,0-.8a9.42,9.42,0,0,1-5.3-1,.4.4,0,0,0-.4.69Z" transform="translate(-459.1 -50.04)"/><path class="cls-1" d="M475,91.8c1.55,1.2,5.5,2.06,7.21.68" transform="translate(-459.1 -50.04)"/><path class="cls-2" d="M474.79,92.14a8,8,0,0,0,3.79,1.37,5.25,5.25,0,0,0,3.91-.74c.4-.32-.17-.88-.57-.57a4.67,4.67,0,0,1-3.42.5,7.23,7.23,0,0,1-3.3-1.25c-.41-.31-.81.38-.41.69Z" transform="translate(-459.1 -50.04)"/><path class="cls-1" d="M475.85,98.49c2.23-.34,4.64-.68,6.35-2.06" transform="translate(-459.1 -50.04)"/><path class="cls-2" d="M476,98.88c2.28-.35,4.66-.7,6.53-2.16.4-.32-.17-.89-.57-.57-1.73,1.36-4.07,1.63-6.17,2-.51.07-.3.84.21.77Z" transform="translate(-459.1 -50.04)"/><path class="cls-1" d="M494.05,68.62c-6.9-1.2-13.56,3.15-9.7,9.87" transform="translate(-459.1 -50.04)"/><path class="cls-2" d="M494.15,68.24a12.26,12.26,0,0,0-7.73,1,6.34,6.34,0,0,0-3.6,5.17A8,8,0,0,0,484,78.69a.4.4,0,0,0,.69-.4c-1.09-1.94-1.57-4.28-.28-6.25A7.8,7.8,0,0,1,489.73,69a12.4,12.4,0,0,1,4.21,0c.51.08.72-.69.21-.77Z" transform="translate(-459.1 -50.04)"/><path class="cls-1" d="M530,97.55c5-.23,9.78,1.28,9.78-4.38,0-6.18-2.92-8.73-2.92-8.73-8.41,1.18-12.81-4.49-11.24-10.33,0,0,8.5,3.09,11.85,4.38.25-6.18-5.58-8.15-11.08-9.52,4.64-4.64,15.19-4.12,19.57,0,3.86,4.11,3.61,13.64-3.09,14.67,2.84,3.09,5.67,10,3.87,14.17-2.07,5.4-7,6.43-14.42,6.43" transform="translate(-459.1 -50.04)"/><path class="cls-2" d="M530,98c2.53-.1,5.68.59,8-.55,2.66-1.28,2.29-4.9,1.87-7.3-.33-1.91-1.08-4.39-2.59-5.75-.66-.6-1.76-.15-2.61-.15a10.48,10.48,0,0,1-5.26-1.28,7.63,7.63,0,0,1-3.45-8.7l-.5.28c4,1.44,7.92,2.87,11.85,4.38.25.1.5-.15.51-.39.14-6.44-6.15-8.59-11.37-9.91l.18.67c2.51-2.43,6.2-3.23,9.59-3.17,3.14.06,6.83.81,9.22,3,4.15,3.8,3.54,13.1-2.72,14.19a.4.4,0,0,0-.18.66c3.41,3.82,5.84,10.39,3.11,15.15s-8.67,4.76-13.38,4.77a.4.4,0,0,0,0,.8c5.12,0,11.47-.3,14.21-5.41s.22-11.85-3.38-15.87L543,84c5.39-.94,6.8-7.08,5.34-11.66A8.65,8.65,0,0,0,543.7,67,17.88,17.88,0,0,0,535,65.3a13.6,13.6,0,0,0-8.87,3.38.41.41,0,0,0,.18.67c4.84,1.22,10.92,3.11,10.78,9.14l.5-.38c-3.93-1.51-7.89-2.94-11.84-4.38a.41.41,0,0,0-.5.28c-1.34,5.32,2.1,10,7.44,10.84a14,14,0,0,0,2.24.15c.36,0,1.56-.29,1.73-.22.45.18.91,1.14,1.13,1.53a12.35,12.35,0,0,1,1.35,3.82c.3,1.65.65,4-.26,5.51-.78,1.31-2.41,1.48-3.79,1.52-1.69.06-3.38-.08-5.07,0-.52,0-.52.82,0,.8Z" transform="translate(-459.1 -50.04)"/><path class="cls-2" d="M544.74,87a9.39,9.39,0,0,1-5.29,1c-.51,0-.51.76,0,.8a10.09,10.09,0,0,0,5.69-1.08c.46-.25.05-.94-.4-.69Z" transform="translate(-459.1 -50.04)"/><path class="cls-2" d="M546.63,91.45a7.2,7.2,0,0,1-3.22,1.25,4.46,4.46,0,0,1-3.34-.5c-.4-.31-1,.25-.57.57a5.09,5.09,0,0,0,3.83.74,7.78,7.78,0,0,0,3.7-1.37c.41-.31,0-1-.4-.69Z" transform="translate(-459.1 -50.04)"/><path class="cls-2" d="M546.08,98.11c-2.1-.33-4.45-.6-6.18-2-.4-.32-1,.25-.56.57,1.86,1.46,4.25,1.81,6.53,2.16.5.07.72-.7.21-.77Z" transform="translate(-459.1 -50.04)"/><path class="cls-2" d="M527.88,69a11.34,11.34,0,0,1,7,.88,5.55,5.55,0,0,1,3.31,4.53,7.09,7.09,0,0,1-1.07,3.87.4.4,0,0,0,.69.4c1.21-2.14,1.72-4.76.35-7a8.54,8.54,0,0,0-5.86-3.51,13.64,13.64,0,0,0-4.64,0c-.51.08-.29.85.21.77Z" transform="translate(-459.1 -50.04)"/><path class="cls-2" d="M501,95.4a15.62,15.62,0,0,0-.18-2.64,4.42,4.42,0,0,1,.18-2.4,1,1,0,0,1,.68-.52,2.27,2.27,0,0,1,1.41.12,2.3,2.3,0,0,1,1.19,1.91,20.3,20.3,0,0,1,0,3,.4.4,0,0,0,.8,0c0-1.79.42-4.47-1.45-5.53a2.7,2.7,0,0,0-3,.15,3.25,3.25,0,0,0-.68,2.56,26.62,26.62,0,0,1,.23,3.33c0,.52.76.51.8,0Z" transform="translate(-459.1 -50.04)"/><path class="cls-2" d="M521.65,95.4a19.51,19.51,0,0,1,.21-3,4.09,4.09,0,0,0-.44-2.69,2.47,2.47,0,0,0-2.87-.57,2.87,2.87,0,0,0-1.71,2.29,17.66,17.66,0,0,0-.11,3.41.4.4,0,0,0,.8,0,26.81,26.81,0,0,1,0-2.69,2.62,2.62,0,0,1,1-2.12,1.84,1.84,0,0,1,2.23.13,3.47,3.47,0,0,1,.29,2.18,21.65,21.65,0,0,0-.21,3c0,.51.84.52.8,0Z" transform="translate(-459.1 -50.04)"/><path class="cls-2" d="M508.53,94.54a13.68,13.68,0,0,0-.34-3.43c-.24-1-.58-1.9-.88-2.85-.16-.49-.93-.28-.77.21.29.92.62,1.83.86,2.77a13.12,13.12,0,0,1,.33,3.3c0,.52.78.52.8,0Z" transform="translate(-459.1 -50.04)"/><path class="cls-2" d="M514.1,94.54a12.26,12.26,0,0,1,.33-3.3c.23-.94.56-1.85.86-2.77.15-.49-.62-.7-.78-.21-.3.95-.64,1.88-.87,2.85a13.23,13.23,0,0,0-.34,3.43.4.4,0,0,0,.8,0Z" transform="translate(-459.1 -50.04)"/><path class="cls-1" d="M510.67,135.4c5.19,0,9,1,13.55-2.32,4.52-3.09,9.49-7.72,11.52-13.39,2-5.41,4.29-17.51,0-22.14-4.74-5.15-19.2-3.86-25.07-3.86h.51c-5.88,0-20.36-1.29-25.11,3.86-4.3,4.63-2,16.73,0,22.14,2,5.67,7,10.3,11.53,13.39,4.53,3.35,8.38,2.32,13.58,2.32" transform="translate(-459.1 -50.04)"/><path class="cls-2" d="M510.67,135.8c3,0,6.18.47,9.18-.22s5.59-2.73,7.92-4.69a30.51,30.51,0,0,0,6.61-7.45,26.62,26.62,0,0,0,2.89-7.4c1.24-4.92,2.17-10.8.49-15.72-1.55-4.54-6.07-6-10.42-6.65-5.54-.82-11.11-.4-16.67-.38a.4.4,0,0,0,0,.8h.51a.4.4,0,0,0,0-.8c-4.92,0-9.82-.35-14.73.14-4.15.41-9.53,1.28-11.73,5.33-2.41,4.44-1.62,10.45-.66,15.18a34.65,34.65,0,0,0,2.1,7,25.75,25.75,0,0,0,5.85,8.07c2.47,2.39,5.5,5,8.79,6.18s6.94.58,10.38.56a.4.4,0,0,0,0-.8c-3,0-6.05.48-9-.19-3.11-.71-5.82-2.94-8.18-5a28.92,28.92,0,0,1-6.1-7.13,26.73,26.73,0,0,1-2.69-7.15c-1.15-4.71-2-10.31-.41-15s6.91-5.8,11.32-6.27c5-.54,10-.19,15-.17v-.8h-.51v.8c4.48,0,8.95-.3,13.43,0,4.07.3,9.87.89,12.17,4.82,2.47,4.22,1.62,10.25.71,14.79a36,36,0,0,1-1.91,6.59,24.61,24.61,0,0,1-5.83,8.17c-2.39,2.33-5.36,5-8.59,6s-6.68.49-10,.47a.4.4,0,0,0,0,.8Z" transform="translate(-459.1 -50.04)"/><path class="cls-2" d="M502.06,135a43.41,43.41,0,0,0,3.75-4.37c1.22-1.45,2.75-3,4.77-3.08s3.87,1.35,5.23,2.74a23,23,0,0,1,3.64,5,.4.4,0,0,0,.7-.4,23.72,23.72,0,0,0-3.95-5.32c-1.44-1.42-3.3-2.77-5.41-2.8-4.4,0-6.48,5.17-9.3,7.69-.38.35.18.91.57.57Z" transform="translate(-459.1 -50.04)"/><path class="cls-1" d="M510.79,127c2.39,0,4.16.48,6.24-1.06a13.89,13.89,0,0,0,5.3-6.16c.93-2.49,2-8.06,0-10.19-2.19-2.37-8.83-1.78-11.54-1.78H511c-2.71,0-9.37-.59-11.55,1.78-2,2.13-.94,7.7,0,10.19s3.22,4.73,5.3,6.16S508.64,127,511,127" transform="translate(-459.1 -50.04)"/><path class="cls-2" d="M510.79,127.4a18.55,18.55,0,0,0,4.28-.11,9.43,9.43,0,0,0,3.74-2.21,12.92,12.92,0,0,0,4.43-6.93c.58-2.32,1-5.15.18-7.46-.75-2-2.73-2.74-4.71-3.06a47.6,47.6,0,0,0-7.92-.22.4.4,0,0,0,0,.8H511a.4.4,0,0,0,0-.8,58.31,58.31,0,0,0-7.12.11c-1.91.22-4.23.69-5.24,2.52-1.15,2.09-.78,4.92-.33,7.15a13,13,0,0,0,3.72,7,12.86,12.86,0,0,0,3.9,2.81c1.61.63,3.38.37,5.07.35a.4.4,0,0,0,0-.8c-1.83,0-3.72.34-5.4-.59a14.87,14.87,0,0,1-4-3.41,14.14,14.14,0,0,1-2.87-8.8,5.77,5.77,0,0,1,1-3.93,6,6,0,0,1,3.55-1.47,47.39,47.39,0,0,1,7.72-.19v-.8h-.24v.8a47.24,47.24,0,0,1,7.71.19,6,6,0,0,1,3.54,1.47,5.73,5.73,0,0,1,1,3.93,14.13,14.13,0,0,1-2.86,8.8,14.87,14.87,0,0,1-4,3.41c-1.67.93-3.56.61-5.39.59a.4.4,0,0,0,0,.8Z" transform="translate(-459.1 -50.04)"/><path class="cls-2" d="M507.27,97.35h7.55a.4.4,0,0,0,0-.8h-7.55a.4.4,0,0,0,0,.8Z" transform="translate(-459.1 -50.04)"/><path class="cls-2" d="M500.83,106.1a4.94,4.94,0,0,0-4,1.33,5.28,5.28,0,0,0-1.26,3.71,8.65,8.65,0,0,0,.42,2.47c.15.49.92.28.77-.21a6.27,6.27,0,0,1,.08-4.61,3.94,3.94,0,0,1,4-1.89c.52,0,.51-.76,0-.8Z" transform="translate(-459.1 -50.04)"/><path class="cls-2" d="M520.93,106.9a3.92,3.92,0,0,1,4,1.89,6.27,6.27,0,0,1,.08,4.61c-.15.49.62.7.78.21.79-2.54.55-6-2.24-7.14a5.84,5.84,0,0,0-2.65-.37c-.51,0-.52.84,0,.8Z" transform="translate(-459.1 -50.04)"/><path class="cls-3" d="M559.44,94.92a50.54,50.54,0,0,0-.67,5.39,19.55,19.55,0,0,0-3.57.6c1,.6,3.42.76,3.5,1.07.16.65.59,3.82,1.13,5.44.39-2,.63-3.7.89-5.48,0-.18,2.44-.53,3.43-1.07a12.53,12.53,0,0,0-3.68-.56,41,41,0,0,0-1-5.39" transform="translate(-459.1 -50.04)"/><path class="cls-3" d="M501.62,54a40.92,40.92,0,0,0-.57,4.58,17.22,17.22,0,0,0-3,.51c.87.51,2.91.65,3,.92.14.54.5,3.24,1,4.61.33-1.73.53-3.14.75-4.65,0-.16,2.08-.46,2.92-.92a11.27,11.27,0,0,0-3.13-.47,34,34,0,0,0-.87-4.58" transform="translate(-459.1 -50.04)"/><path class="cls-3" d="M462.17,94.48a38.83,38.83,0,0,0-.49,3.9,14.16,14.16,0,0,0-2.58.43c.74.44,2.48.55,2.53.78.12.47.43,2.76.82,3.93.28-1.48.46-2.67.64-4,0-.13,1.76-.39,2.48-.78a9.49,9.49,0,0,0-2.66-.4,28.8,28.8,0,0,0-.74-3.9" transform="translate(-459.1 -50.04)"/><path class="cls-4" d="M517.13,144.35a2.06,2.06,0,1,0,.15,4.12,2.06,2.06,0,0,0-.15-4.12" transform="translate(-459.1 -50.04)"/><path class="cls-4" d="M529.9,52.4a1.55,1.55,0,1,0,.11,3.09,1.55,1.55,0,0,0-.11-3.09" transform="translate(-459.1 -50.04)"/><path class="cls-4" d="M464.38,75.8a1.55,1.55,0,1,0,.11,3.09,1.55,1.55,0,0,0-.11-3.09" transform="translate(-459.1 -50.04)"/><path class="cls-4" d="M558.9,78.91A1,1,0,1,0,559,81a1,1,0,0,0-.07-2.06" transform="translate(-459.1 -50.04)"/><path class="cls-4" d="M508.12,76.31a1,1,0,1,0,.07,2.06,1,1,0,0,0-.07-2.06" transform="translate(-459.1 -50.04)"/><path class="cls-4" d="M490.64,145.48a1,1,0,1,0,.07,2.05,1,1,0,0,0-.07-2.05" transform="translate(-459.1 -50.04)"/><path class="cls-2" d="M482.44,58.08a1.25,1.25,0,0,0,0-2.5,1.25,1.25,0,0,0,0,2.5Z" transform="translate(-459.1 -50.04)"/><path class="cls-2" d="M532,146.27a1.25,1.25,0,0,0,0-2.5,1.25,1.25,0,0,0,0,2.5Z" transform="translate(-459.1 -50.04)"/><path class="cls-2" d="M515.27,52a1,1,0,0,0,0-2,1,1,0,0,0,0,2Z" transform="translate(-459.1 -50.04)"/><path class="cls-2" d="M504.33,155a1,1,0,0,0,0-2,1,1,0,0,0,0,2Z" transform="translate(-459.1 -50.04)"/><path class="cls-2" d="M460.55,116.41a1,1,0,0,0,0-2,1,1,0,0,0,0,2Z" transform="translate(-459.1 -50.04)"/><path class="cls-2" d="M560.33,117.7a1,1,0,0,0,0-2,1,1,0,0,0,0,2Z" transform="translate(-459.1 -50.04)"/><path class="cls-2" d="M518.49,67.24a.75.75,0,0,0,0-1.5.75.75,0,0,0,0,1.5Z" transform="translate(-459.1 -50.04)"/><path class="cls-2" d="M550.68,65.31a.75.75,0,0,0,0-1.5.75.75,0,0,0,0,1.5Z" transform="translate(-459.1 -50.04)"/><path class="cls-2" d="M501.11,143.84a.75.75,0,0,0,0-1.5.75.75,0,0,0,0,1.5Z" transform="translate(-459.1 -50.04)"/></g></svg>