<svg xmlns="http://www.w3.org/2000/svg" viewBox="0 0 103.72 105.46"><defs><style>.cls-1{fill:#ff7e00;}.cls-2{fill:#e9e3ff;}.cls-3{fill:#ffe1d7;}.cls-4{fill:#fff;}</style></defs><g id="OBJECTS"><path class="cls-1" d="M82.94,222c-.68-6.83-8.87-8.87-14.1-10,1.14,1.59,2.5,3.18,2.73,5.23-6.14-1.36-13.19-2.27-18,3.41,3.19.46,5.23.46,7.28,3.19-7.05,1.59-13.42,8-12.73,15.69a19.73,19.73,0,0,1,6.36-1.14c-2.27,3.64-4.77,5.91-5.91,10.46a27.91,27.91,0,0,0-.45,12.29c1.13-.46,2.5-1.6,3.86-2.05,0,5.46-2,11.6,1.82,16.37,1.82-1.59,3-4.09,5.46-5.23-.23,5.06,0,8.87,3.64,13.19,1.82-1.82,3.18-4.32,5.23-5.91.45,3.64,3,7.28,6.37,8.19.22-1.37.45-3.19,1.36-4.32,4.62,5.83,5.21,4.45,10,5.91" transform="translate(-36.56 -197.33)"/><path class="cls-2" d="M83.34,222c-.83-7-8.57-9.12-14.39-10.4-.31-.06-.67.29-.45.59,1.15,1.6,2.38,3.12,2.69,5.14l.49-.49c-6.47-1.43-13.6-2-18.36,3.51-.17.2-.15.62.18.67,2.83.39,5.23.68,7.1,3.08l.18-.67c-7.34,1.74-13.62,8.22-13,16.08,0,.23.24.49.5.38a17.85,17.85,0,0,1,6.26-1.12l-.34-.6c-2.12,3.34-4.72,6.26-5.84,10.14a28.88,28.88,0,0,0-.57,12.91c.05.28.38.33.59.24,1.31-.58,2.42-1.5,3.77-2l-.51-.38c0,5.69-1.89,11.73,1.94,16.65a.4.4,0,0,0,.56,0c1.87-1.69,3-4,5.38-5.16l-.6-.35a26,26,0,0,0,.42,7.15,15.81,15.81,0,0,0,3.34,6.32.39.39,0,0,0,.56,0c1.84-1.89,3.17-4.23,5.23-5.91l-.67-.17c.54,3.72,2.91,7.36,6.65,8.46a.4.4,0,0,0,.49-.28,9.47,9.47,0,0,1,1.33-4.22l-.63.08c1.39,1.74,2.91,3.74,5,4.66a44.94,44.94,0,0,0,5.16,1.35.4.4,0,0,0,.21-.77c-1.6-.47-3.34-.62-4.89-1.24-2.08-.84-3.58-2.87-4.94-4.57-.17-.22-.49-.1-.62.08a10,10,0,0,0-1.41,4.42l.49-.28c-3.48-1-5.59-4.46-6.09-7.91,0-.33-.46-.34-.66-.17-2.07,1.67-3.4,4-5.23,5.91h.56A14.85,14.85,0,0,1,60,276.8a26.06,26.06,0,0,1-.32-6.6.4.4,0,0,0-.6-.34c-2.41,1.18-3.62,3.54-5.54,5.29h.56c-3.63-4.68-1.74-10.71-1.7-16.09a.41.41,0,0,0-.5-.39c-1.42.53-2.59,1.48-4,2.09l.59.24a28,28,0,0,1,.69-12.9c1.1-3.62,3.65-6.4,5.64-9.54a.41.41,0,0,0-.35-.6A18.31,18.31,0,0,0,48,239.11l.51.39C48,232,54,225.85,61,224.19a.4.4,0,0,0,.17-.67c-1.95-2.51-4.46-2.87-7.45-3.28l.18.67c4.57-5.28,11.38-4.68,17.57-3.31a.41.41,0,0,0,.5-.49c-.31-2.08-1.58-3.68-2.77-5.33l-.45.59c5.38,1.17,13,3.07,13.8,9.62.06.5.86.51.8,0Z" transform="translate(-36.56 -197.33)"/><path class="cls-1" d="M94.76,222c.68-6.83,8.87-8.87,14.1-10-1.14,1.59-2.5,3.18-2.73,5.23,6.14-1.36,13.19-2.27,18,3.41-3.19.46-5.23.46-7.28,3.19,7.05,1.59,13.42,8,12.73,15.69a19.78,19.78,0,0,0-6.36-1.14c2.27,3.64,4.77,5.91,5.91,10.46a27.91,27.91,0,0,1,.45,12.29c-1.13-.46-2.5-1.6-3.86-2.05,0,5.46,2,11.6-1.82,16.37-1.82-1.59-3-4.09-5.46-5.23.23,5.06,0,8.87-3.64,13.19-1.82-1.82-3.18-4.32-5.23-5.91-.46,3.64-3,7.28-6.37,8.19-.23-1.37-.45-3.19-1.36-4.32-4.63,5.83-5.21,4.45-10,5.91" transform="translate(-36.56 -197.33)"/><path class="cls-2" d="M95.16,222c.77-6.55,8.42-8.45,13.8-9.62l-.45-.59c-1.19,1.65-2.46,3.25-2.77,5.33a.41.41,0,0,0,.5.49c6.19-1.37,13-2,17.57,3.31l.18-.67c-3,.41-5.5.77-7.46,3.28a.41.41,0,0,0,.18.67c7,1.66,13,7.78,12.44,15.31l.51-.39a18.31,18.31,0,0,0-6.47-1.15.41.41,0,0,0-.35.6c2,3.14,4.54,5.92,5.64,9.54a28,28,0,0,1,.69,12.9l.58-.24c-1.37-.61-2.54-1.56-4-2.09a.41.41,0,0,0-.5.39c0,5.39,1.93,11.41-1.71,16.09h.57c-1.92-1.75-3.13-4.11-5.54-5.29a.4.4,0,0,0-.6.34,26.06,26.06,0,0,1-.32,6.6,14.85,14.85,0,0,1-3.2,6.31h.56c-1.83-1.89-3.16-4.24-5.23-5.91-.2-.17-.62-.16-.67.17-.49,3.45-2.6,6.88-6.08,7.91l.49.28a10,10,0,0,0-1.41-4.42.41.41,0,0,0-.63-.08c-1.35,1.7-2.85,3.73-4.93,4.57-1.55.62-3.3.77-4.9,1.24a.4.4,0,0,0,.22.77,44.94,44.94,0,0,0,5.16-1.35c2.11-.92,3.63-2.92,5-4.66l-.63-.08a9.47,9.47,0,0,1,1.33,4.22.4.4,0,0,0,.49.28c3.74-1.1,6.11-4.74,6.65-8.46l-.67.17c2.06,1.68,3.39,4,5.23,5.91a.39.39,0,0,0,.56,0,15.81,15.81,0,0,0,3.34-6.32,26,26,0,0,0,.42-7.15l-.6.35c2.34,1.14,3.51,3.47,5.37,5.16a.4.4,0,0,0,.57,0c3.83-4.92,2-11,1.94-16.65l-.51.38c1.35.51,2.46,1.43,3.77,2,.21.09.54,0,.59-.24a28.88,28.88,0,0,0-.57-12.91c-1.12-3.88-3.72-6.8-5.84-10.14l-.34.6a17.85,17.85,0,0,1,6.26,1.12c.26.11.49-.15.5-.38.59-7.86-5.69-14.34-13-16.08l.18.67c1.87-2.4,4.27-2.69,7.1-3.08.33,0,.35-.47.18-.67-4.76-5.5-11.89-4.94-18.36-3.51l.49.49c.31-2,1.54-3.54,2.69-5.14.22-.3-.14-.65-.45-.59-5.82,1.28-13.56,3.4-14.39,10.4-.06.51.74.5.8,0Z" transform="translate(-36.56 -197.33)"/><path class="cls-1" d="M81.42,281.8c-.15,3.79-.76,6.52,2.28,9.25a20.5,20.5,0,0,0,2.12-3.94c1.06,1.51,1.06,4.24,1.06,6.21,2.27-.3,4.09-3.33,4.55-5.45.91.75,2.12,1.82,2.27,3,2.28-2,4.25-6.37,2.58-9.4" transform="translate(-36.56 -197.33)"/><path class="cls-2" d="M81,281.8A26.78,26.78,0,0,0,81,287a7.35,7.35,0,0,0,2.42,4.31.41.41,0,0,0,.57,0,19.52,19.52,0,0,0,2.18-4h-.69c1.13,1.71,1,4.05,1,6a.41.41,0,0,0,.51.39c2.58-.43,4.29-3.39,4.82-5.74l-.67.18A5.26,5.26,0,0,1,93.32,291c.05.32.46.36.67.18,2.58-2.3,4.34-6.61,2.63-9.89-.23-.45-.92-.05-.69.41,1.54,2.95-.21,6.87-2.51,8.92l.67.17a5.86,5.86,0,0,0-2.38-3.21.41.41,0,0,0-.67.18c-.48,2.09-2,4.8-4.27,5.18l.51.38c0-2.1.09-4.58-1.12-6.41a.4.4,0,0,0-.69,0,19.33,19.33,0,0,1-2.06,3.86H84a6.65,6.65,0,0,1-2.25-4.22,31.42,31.42,0,0,1,.09-4.75c0-.51-.78-.51-.8,0Z" transform="translate(-36.56 -197.33)"/><path class="cls-1" d="M78.84,224c.76-4.55-1.36-8.65-2.88-12.74,3.34.15,8,1.82,9.55,5a12.2,12.2,0,0,1,8-9.7,33.82,33.82,0,0,0-1.37,9.55,10.21,10.21,0,0,1,7.59-4.4c-1.6,4.25-2.87,9.86-.76,13.35" transform="translate(-36.56 -197.33)"/><path class="cls-2" d="M79.23,224.14c.68-4.61-1.3-8.73-2.88-12.95l-.39.51c3.4.19,7.56,1.58,9.21,4.81a.41.41,0,0,0,.73-.1A12.07,12.07,0,0,1,93.66,207l-.5-.5a29.81,29.81,0,0,0-1.38,9.66.41.41,0,0,0,.75.2,10,10,0,0,1,7.24-4.2l-.39-.5c-1.53,4.12-3.06,9.53-.72,13.65a.4.4,0,0,0,.69-.41c-2.23-3.9-.65-9.12.8-13a.4.4,0,0,0-.38-.51,10.88,10.88,0,0,0-7.93,4.6l.74.2a28.71,28.71,0,0,1,1.36-9.44.4.4,0,0,0-.5-.49,12.85,12.85,0,0,0-8.31,10l.73-.1c-1.78-3.48-6.23-5-9.9-5.2a.4.4,0,0,0-.38.51c1.51,4,3.53,8.09,2.88,12.52-.08.5.69.72.77.21Z" transform="translate(-36.56 -197.33)"/><path class="cls-2" d="M57.26,243.16a14.06,14.06,0,0,0-4.66,11.65c0,.31.45.58.68.28A7.83,7.83,0,0,1,57.35,252l-.49-.49c-1.25,5.23-2.94,10.5-1.22,15.83a.41.41,0,0,0,.67.18c2.15-2.63,4.12-5.6,7.2-7.22l-.6-.34c.1,5.7-1.44,11.37,1.27,16.73a.4.4,0,0,0,.62.08c1.84-1.76,2.72-4.31,4-6.45a.4.4,0,0,0-.69-.41c-1.25,2.08-2.11,4.58-3.88,6.29l.63.08c-2.63-5.19-1.06-10.8-1.16-16.32a.4.4,0,0,0-.6-.35c-3.15,1.66-5.17,4.66-7.36,7.34l.67.18c-1.68-5.19,0-10.32,1.21-15.41a.4.4,0,0,0-.49-.49,8.38,8.38,0,0,0-4.42,3.29l.68.28a13.28,13.28,0,0,1,4.43-11.09c.38-.34-.18-.9-.57-.56Z" transform="translate(-36.56 -197.33)"/><path class="cls-2" d="M119.87,243.72a13.28,13.28,0,0,1,4.43,11.09l.68-.28a8.38,8.38,0,0,0-4.42-3.29.4.4,0,0,0-.49.49c1.21,5.09,2.89,10.22,1.21,15.41L122,267c-2.19-2.68-4.21-5.68-7.36-7.34a.4.4,0,0,0-.6.35c-.1,5.52,1.47,11.13-1.16,16.32l.63-.08c-1.77-1.7-2.63-4.21-3.88-6.29a.4.4,0,0,0-.69.41c1.29,2.14,2.17,4.69,4,6.45a.41.41,0,0,0,.63-.08c2.7-5.36,1.16-11,1.26-16.73l-.6.34c3.08,1.62,5,4.59,7.2,7.22a.4.4,0,0,0,.66-.18c1.73-5.33,0-10.6-1.21-15.83l-.49.49a7.83,7.83,0,0,1,4.07,3.08c.23.3.66,0,.68-.28a14.06,14.06,0,0,0-4.66-11.65c-.39-.34-1,.22-.57.56Z" transform="translate(-36.56 -197.33)"/><path class="cls-2" d="M72.45,230.05c-1.43-3.1-3.75-6.67-7.69-5.75A6.18,6.18,0,0,0,60.39,228a5.11,5.11,0,0,0,.72,5.2,9.11,9.11,0,0,0,5,2.94.4.4,0,0,0,.21-.77c-2.84-.77-6.39-3-5.37-6.49,1-3.27,5.15-5.18,7.91-2.8a12.8,12.8,0,0,1,2.93,4.42c.21.47.9.06.69-.4Z" transform="translate(-36.56 -197.33)"/><path class="cls-2" d="M70.18,230.89a6.24,6.24,0,0,0-1.41-2.13,2.57,2.57,0,0,0-2.37-.61,3.07,3.07,0,0,0-2.15,1.8,2.57,2.57,0,0,0,.38,2.63A4.39,4.39,0,0,0,67,234a.4.4,0,0,0,.21-.77C66,232.9,64.47,232,64.9,230.5a2.11,2.11,0,0,1,3.28-1.19,5.57,5.57,0,0,1,1.31,2c.22.46.91.06.69-.41Z" transform="translate(-36.56 -197.33)"/><path class="cls-2" d="M105.94,230.45c1.19-2.58,3.09-6,6.47-5.45a5.44,5.44,0,0,1,4.12,3.15,4.35,4.35,0,0,1-.7,4.67,8.52,8.52,0,0,1-4.43,2.5.4.4,0,0,0,.22.77,9.65,9.65,0,0,0,4.52-2.43,5.22,5.22,0,0,0,1.41-5,6.21,6.21,0,0,0-3.85-4.09,5.23,5.23,0,0,0-5,.62,12.29,12.29,0,0,0-3.46,4.91c-.21.46.48.87.69.4Z" transform="translate(-36.56 -197.33)"/><path class="cls-2" d="M108.21,231.3c.5-1.09,1.29-2.64,2.73-2.41a2.27,2.27,0,0,1,1.76,1.35,1.77,1.77,0,0,1-.28,1.88,3.79,3.79,0,0,1-1.94,1.1.4.4,0,0,0,.21.77,4.73,4.73,0,0,0,2.18-1.17,2.66,2.66,0,0,0,.7-2.54,3.09,3.09,0,0,0-1.92-2,2.62,2.62,0,0,0-2.47.31,5.8,5.8,0,0,0-1.66,2.33c-.22.47.47.87.69.41Z" transform="translate(-36.56 -197.33)"/><path class="cls-1" d="M89.08,229.72c-8.94,0-17.74,2.5-21.6,8.41-3.64,5.69-2,14.79-.23,20.93.68,2.95,1.82,4.32,3.41,6.59,1.82,2.5,2.28,4.78,3.41,7.74,3,8,7.28,9.09,15,9.09" transform="translate(-36.56 -197.33)"/><path class="cls-2" d="M89.08,229.32c-5.88,0-12.2.94-17.27,4.14a14.23,14.23,0,0,0-5.19,5.37,17.55,17.55,0,0,0-1.73,7.89,38.43,38.43,0,0,0,1,8.74A25.93,25.93,0,0,0,68.35,263c.74,1.26,1.67,2.39,2.45,3.61a21.72,21.72,0,0,1,2,4.54,25.44,25.44,0,0,0,3.44,7.32c3.11,4,8.08,4.45,12.81,4.46a.4.4,0,0,0,0-.8c-4,0-8.51-.2-11.48-3.33a18.43,18.43,0,0,1-3.59-6.7,28.61,28.61,0,0,0-3.45-7.23,23.78,23.78,0,0,1-2-3.14,23.29,23.29,0,0,1-1.3-4,44.14,44.14,0,0,1-1.46-7.9c-.47-5.41.39-10.9,4.82-14.49,5.05-4.09,12.16-5.12,18.45-5.15a.4.4,0,0,0,0-.8Z" transform="translate(-36.56 -197.33)"/><path class="cls-1" d="M88.62,229.72c8.94,0,17.74,2.5,21.6,8.41,3.64,5.69,2,14.79.23,20.93-.68,2.95-1.82,4.32-3.41,6.59-1.82,2.5-2.28,4.78-3.41,7.74-3,8-7.28,9.09-15,9.09" transform="translate(-36.56 -197.33)"/><path class="cls-2" d="M88.62,230.12c5.64,0,11.66.87,16.57,3.84a13.71,13.71,0,0,1,5.36,5.58,17.66,17.66,0,0,1,1.46,7.93,39.26,39.26,0,0,1-1.15,8.49,22.56,22.56,0,0,1-2.55,7.15c-.73,1.16-1.61,2.22-2.32,3.4a19.46,19.46,0,0,0-1.63,3.64,31.21,31.21,0,0,1-3.13,7.18c-2.9,4.3-7.83,4.74-12.61,4.75a.4.4,0,0,0,0,.8c4.16,0,8.74-.25,11.86-3.38a16.66,16.66,0,0,0,3.53-6c.53-1.39,1-2.82,1.52-4.21a22.9,22.9,0,0,1,2.71-4.64,21.81,21.81,0,0,0,3.14-7.43,44,44,0,0,0,1.37-8.21c.35-5.53-.84-10.95-5.38-14.5-5.2-4.07-12.33-5.15-18.75-5.18a.4.4,0,0,0,0,.8Z" transform="translate(-36.56 -197.33)"/><path class="cls-2" d="M72.66,254.85A10.06,10.06,0,0,0,76,256.43a15.08,15.08,0,0,0,3.55.3.4.4,0,0,0,0-.8,14.36,14.36,0,0,1-3.34-.27,9.73,9.73,0,0,1-3.13-1.5c-.42-.29-.82.41-.4.69Z" transform="translate(-36.56 -197.33)"/><path class="cls-2" d="M104.64,254.16a9.73,9.73,0,0,1-3.13,1.5,14.36,14.36,0,0,1-3.34.27.4.4,0,0,0,0,.8,15.08,15.08,0,0,0,3.55-.3,10.06,10.06,0,0,0,3.32-1.58c.42-.28,0-1-.4-.69Z" transform="translate(-36.56 -197.33)"/><path class="cls-2" d="M82.13,251.46c2.18,2.79,2.44,6.79,2.53,10.19s-.21,6.86-.22,10.29a.4.4,0,0,0,.8,0c0-3.72.35-7.43.19-11.16-.15-3.39-.58-7.13-2.74-9.89-.31-.4-.88.17-.56.57Z" transform="translate(-36.56 -197.33)"/><path class="cls-2" d="M89.12,276.12a13.09,13.09,0,0,1-4-4.15l-.24.59c2.67-.45,5.4-.14,8.09-.14l-.39-.5C92,273.81,90,275,88.64,276.18c-.39.34.18.9.56.57,1.52-1.33,3.56-2.55,4.13-4.62a.42.42,0,0,0-.39-.51c-2.77,0-5.55-.29-8.3.17a.41.41,0,0,0-.24.59,14,14,0,0,0,4.32,4.43c.41.31.81-.38.4-.69Z" transform="translate(-36.56 -197.33)"/><path class="cls-2" d="M88.46,276.49c0,1.82,0,3.64,0,5.46a.4.4,0,0,0,.8,0c0-1.82,0-3.64,0-5.46a.4.4,0,0,0-.8,0Z" transform="translate(-36.56 -197.33)"/><path class="cls-2" d="M95,250.89c-2.16,2.76-2.59,6.5-2.74,9.89-.16,3.73.18,7.44.19,11.16a.4.4,0,0,0,.8,0c0-3.43-.31-6.85-.22-10.29s.35-7.4,2.53-10.19c.31-.4-.25-1-.56-.57Z" transform="translate(-36.56 -197.33)"/><path class="cls-2" d="M81.88,275.68a1,1,0,0,0,0-2,1,1,0,0,0,0,2Z" transform="translate(-36.56 -197.33)"/><path class="cls-2" d="M84.3,278.25a1,1,0,0,0,0-2,1,1,0,0,0,0,2Z" transform="translate(-36.56 -197.33)"/><path class="cls-2" d="M80.81,278.56a1,1,0,0,0,0-2,1,1,0,0,0,0,2Z" transform="translate(-36.56 -197.33)"/><path class="cls-2" d="M96,275.68a1,1,0,0,0,0-2,1,1,0,0,0,0,2Z" transform="translate(-36.56 -197.33)"/><path class="cls-2" d="M93.55,278.25a1,1,0,0,0,0-2,1,1,0,0,0,0,2Z" transform="translate(-36.56 -197.33)"/><path class="cls-2" d="M97,278.56a1,1,0,0,0,0-2,1,1,0,0,0,0,2Z" transform="translate(-36.56 -197.33)"/><path class="cls-3" d="M102.4,290.29a51.19,51.19,0,0,0-.67,5.39,20.62,20.62,0,0,0-3.57.6c1,.6,3.42.77,3.5,1.08.17.64.6,3.81,1.13,5.43.39-2,.63-3.69.89-5.47,0-.19,2.44-.54,3.43-1.08a12.87,12.87,0,0,0-3.68-.56,41.26,41.26,0,0,0-1-5.39" transform="translate(-36.56 -197.33)"/><path class="cls-3" d="M79.12,197.33a41.1,41.1,0,0,0-.57,4.59,16.2,16.2,0,0,0-3,.51c.87.51,2.91.64,3,.91.13.55.5,3.24,1,4.62.33-1.73.53-3.14.75-4.65,0-.16,2.07-.46,2.92-.92a10.91,10.91,0,0,0-3.13-.47,35.74,35.74,0,0,0-.87-4.59" transform="translate(-36.56 -197.33)"/><path class="cls-3" d="M39.63,253a36,36,0,0,0-.49,3.89,15.27,15.27,0,0,0-2.58.43c.74.44,2.47.56,2.53.79.12.46.43,2.75.82,3.92.28-1.47.45-2.67.64-3.95,0-.14,1.76-.39,2.48-.78a9.18,9.18,0,0,0-2.66-.41,28.47,28.47,0,0,0-.74-3.89" transform="translate(-36.56 -197.33)"/><path class="cls-4" d="M137.94,241.38a2.06,2.06,0,1,0,.14,4.12,2.06,2.06,0,0,0-.14-4.12" transform="translate(-36.56 -197.33)"/><path class="cls-4" d="M57.2,288.75a1.55,1.55,0,1,0,.11,3.09,1.55,1.55,0,0,0-.11-3.09" transform="translate(-36.56 -197.33)"/><path class="cls-4" d="M46.26,219.85a1.55,1.55,0,1,0,.11,3.09,1.55,1.55,0,0,0-.11-3.09" transform="translate(-36.56 -197.33)"/><path class="cls-4" d="M129.89,280.08a1,1,0,1,0,.07,2.06,1,1,0,0,0-.07-2.06" transform="translate(-36.56 -197.33)"/><path class="cls-4" d="M118.13,206.23a1,1,0,1,0,.07,2.06,1,1,0,0,0-.07-2.06" transform="translate(-36.56 -197.33)"/><path class="cls-4" d="M79.36,300.73a1,1,0,1,0,.07,2.06,1,1,0,0,0-.07-2.06" transform="translate(-36.56 -197.33)"/><path class="cls-2" d="M136.1,226.74a1.25,1.25,0,0,0,0-2.5,1.25,1.25,0,0,0,0,2.5Z" transform="translate(-36.56 -197.33)"/><path class="cls-2" d="M38.9,239.62a1.25,1.25,0,0,0,0-2.5,1.25,1.25,0,0,0,0,2.5Z" transform="translate(-36.56 -197.33)"/><path class="cls-2" d="M100.7,200.1a1,1,0,0,0,0-2,1,1,0,0,0,0,2Z" transform="translate(-36.56 -197.33)"/><path class="cls-2" d="M120,293.44a1,1,0,0,0,0-2,1,1,0,0,0,0,2Z" transform="translate(-36.56 -197.33)"/><path class="cls-2" d="M139.32,263.83a1,1,0,0,0,0-2,1,1,0,0,0,0,2Z" transform="translate(-36.56 -197.33)"/><path class="cls-2" d="M58.85,207.82a1,1,0,0,0,0-2,1,1,0,0,0,0,2Z" transform="translate(-36.56 -197.33)"/><path class="cls-2" d="M69.79,296.41a.75.75,0,0,0,0-1.5.75.75,0,0,0,0,1.5Z" transform="translate(-36.56 -197.33)"/><path class="cls-2" d="M44.69,276.46a.75.75,0,0,0,0-1.5.75.75,0,0,0,0,1.5Z" transform="translate(-36.56 -197.33)"/></g></svg>