<svg xmlns="http://www.w3.org/2000/svg" viewBox="0 0 108.09 106.54"><defs><style>.cls-1{fill:#ff7e00;}.cls-2{fill:#e9e3ff;}.cls-3{fill:#ffe1d7;}.cls-4{fill:#fff;}</style></defs><g id="OBJECTS"><path class="cls-1" d="M333.93,259.53c-16.92-1.21-25.87,10.48-5.33,12.3,4.69.32,18.18.45,20.56-4.8,3-6.68-7.39-7.18-15.23-7.5" transform="translate(-316.33 -197.46)"/><path class="cls-2" d="M333.93,259.13a30.11,30.11,0,0,0-9.87.84,14.62,14.62,0,0,0-6.06,3,4.15,4.15,0,0,0-1.57,4c.46,1.81,2.33,2.88,3.93,3.53,5.38,2.23,12,2.17,17.69,1.62,4.26-.41,11.91-1.47,12.05-7.15.07-2.76-2.75-4-5-4.63a50.91,50.91,0,0,0-11.15-1.2c-.51,0-.51.78,0,.8a67.14,67.14,0,0,1,9.18.78c2,.36,5.06.94,6,3.05s-.84,4.4-2.61,5.4a19.85,19.85,0,0,1-7.45,2,44.54,44.54,0,0,1-15.91-.66c-2.76-.7-8.12-3-5-6.49a12.39,12.39,0,0,1,6-3.26,29.31,29.31,0,0,1,9.87-.87c.52,0,.52-.76,0-.8Z" transform="translate(-316.33 -197.46)"/><path class="cls-1" d="M333.73,262.18c-12.09-.69-18.49,6-3.81,7,3.35.18,13,.25,14.69-2.74,2.17-3.81-5.28-4.1-10.88-4.28" transform="translate(-316.33 -197.46)"/><path class="cls-2" d="M333.73,261.78a26.46,26.46,0,0,0-7.05.48,11,11,0,0,0-4.45,1.8,2.3,2.3,0,0,0-1.11,2.44c.39,1.2,1.88,1.78,3,2.13,3.93,1.28,8.47,1.22,12.56.9a20.28,20.28,0,0,0,5.93-1.12c1.33-.52,2.7-1.47,2.81-3,.13-1.85-2.09-2.55-3.53-2.87a43.36,43.36,0,0,0-8.13-.72c-.52,0-.51.78,0,.8a58.22,58.22,0,0,1,6.6.45c1.22.18,3.55.42,4.16,1.71s-1,2.42-2,2.84a17.16,17.16,0,0,1-5.17,1.09,39.73,39.73,0,0,1-11.21-.34c-1.27-.25-5.88-1.37-3.71-3.41a9.17,9.17,0,0,1,4.22-1.84,25.52,25.52,0,0,1,7.08-.5c.51,0,.51-.77,0-.8Z" transform="translate(-316.33 -197.46)"/><path class="cls-2" d="M322.79,264.4c3.79-9.13,6.95-18.42,11.85-27l-.73-.1c3.62,9.22,7.45,18.33,10.56,27.73.16.49.93.28.77-.21-3.11-9.4-6.93-18.52-10.56-27.73A.4.4,0,0,0,334,237C329,245.64,325.84,255,322,264.19c-.19.47.58.68.77.21Z" transform="translate(-316.33 -197.46)"/><path class="cls-1" d="M406.83,259.53c16.92-1.21,25.87,10.48,5.33,12.3-4.69.32-18.17.45-20.56-4.8-3-6.68,7.39-7.18,15.23-7.5" transform="translate(-316.33 -197.46)"/><path class="cls-2" d="M406.83,259.93c4.89-.33,11,.08,15,3.29,1,.83,2.12,2.1,1.76,3.53-.42,1.71-2.47,2.66-4,3.21-4.93,1.8-10.61,1.82-15.8,1.45a29.07,29.07,0,0,1-7.85-1.48c-2.16-.81-4.22-2.22-4.47-4.71-.29-2.82,3-3.84,5.21-4.32a58.43,58.43,0,0,1,10.14-1c.51,0,.51-.82,0-.8a61.14,61.14,0,0,0-10.11.95c-2.09.44-4.89,1.22-5.79,3.41s.36,4.49,2,5.75c2.17,1.65,5.08,2.25,7.72,2.63,5.76.83,12.18.88,17.81-.72,1.95-.55,4.3-1.41,5.43-3.22a3.47,3.47,0,0,0-.3-4c-1.4-1.9-3.79-3-6-3.68a29.24,29.24,0,0,0-10.81-1.12c-.51,0-.52.84,0,.8Z" transform="translate(-316.33 -197.46)"/><path class="cls-1" d="M407,262.18c12.09-.69,18.49,6,3.81,7-3.34.18-13,.25-14.69-2.74-2.17-3.81,5.28-4.1,10.88-4.28" transform="translate(-316.33 -197.46)"/><path class="cls-2" d="M407,262.58a26.12,26.12,0,0,1,6.43.37,12.1,12.1,0,0,1,4.21,1.48c.58.36,1.49,1.05,1.2,1.86-.36,1-2,1.45-2.86,1.71a34.18,34.18,0,0,1-11.19.78,25.09,25.09,0,0,1-5.45-.81c-1.25-.36-2.8-1-3.15-2.36-.44-1.76,2.31-2.25,3.49-2.46a48.48,48.48,0,0,1,7.32-.57c.52,0,.52-.82,0-.8a53.66,53.66,0,0,0-7.27.55c-1.42.24-3.6.63-4.24,2.14-.58,1.36.5,2.78,1.62,3.45a14,14,0,0,0,5.39,1.46,39.1,39.1,0,0,0,12.68-.36c1.79-.39,6.14-1.88,3.92-4.42a8.5,8.5,0,0,0-4.27-2.16,25.75,25.75,0,0,0-7.83-.66c-.51,0-.51.83,0,.8Z" transform="translate(-316.33 -197.46)"/><path class="cls-2" d="M418.74,264.19c-3.81-9.19-7-18.55-11.92-27.24a.41.41,0,0,0-.74.09c-3.62,9.21-7.45,18.33-10.56,27.73-.16.49.61.7.77.21,3.11-9.4,6.94-18.51,10.57-27.73l-.74.1c4.9,8.63,8.06,17.92,11.85,27,.19.47,1,.26.77-.21Z" transform="translate(-316.33 -197.46)"/><path class="cls-1" d="M357.86,282.28c-5.93.54-8.76,6.72-1.81,8.6a44.73,44.73,0,0,0,16.48,1.34" transform="translate(-316.33 -197.46)"/><path class="cls-2" d="M357.86,281.88c-2.87.29-7.31,2.61-6.12,6.2.6,1.8,2.51,2.71,4.21,3.18a43.89,43.89,0,0,0,7,1.34,53.78,53.78,0,0,0,9.58,0c.51,0,.52-.84,0-.8a48.33,48.33,0,0,1-13.79-.71c-1.87-.4-4.18-.73-5.57-2.19a2.83,2.83,0,0,1-.24-3.6,6.57,6.57,0,0,1,4.93-2.64c.5-.05.51-.85,0-.8Z" transform="translate(-316.33 -197.46)"/><path class="cls-1" d="M382.91,282.28c5.92.54,8.75,6.72,1.8,8.6a44.71,44.71,0,0,1-16.48,1.34" transform="translate(-316.33 -197.46)"/><path class="cls-2" d="M382.91,282.68a6.88,6.88,0,0,1,4.58,2.18,3,3,0,0,1,.46,3.6c-1.09,1.67-3.37,2.06-5.16,2.48a40.93,40.93,0,0,1-6.13,1,55.16,55.16,0,0,1-8.43-.08c-.52,0-.51.76,0,.8a49.43,49.43,0,0,0,15.67-1.13c1.84-.45,4-1.11,4.92-2.93a3.77,3.77,0,0,0-.55-4,7.63,7.63,0,0,0-5.36-2.67c-.52-.05-.51.75,0,.8Z" transform="translate(-316.33 -197.46)"/><path class="cls-1" d="M366.61,228.54v26.87c0,5.64,1,15-1.54,20.15-1.81,3.22-10.56,2.69-7.73,7,1.81,3.22,11.85,2.42,15.19,2.42" transform="translate(-316.33 -197.46)"/><path class="cls-2" d="M366.21,228.54V252c0,5.82.59,11.74,0,17.54-.23,2.21-.54,5.56-2.57,6.9-1.47,1-3.26,1.35-4.87,2.05-1.13.5-2.46,1.27-2.36,2.7a4,4,0,0,0,2.63,3.14c4.13,1.76,9.15,1,13.51,1a.4.4,0,0,0,0-.8c-3.95,0-8.06.46-11.94-.54-1.32-.34-3.92-1.48-3.36-3.33.42-1.36,2.86-1.85,4-2.27,1.4-.52,3.07-1.08,4-2.35,1.2-1.68,1.51-4.17,1.74-6.16.63-5.45.06-11,.06-16.45V228.54a.4.4,0,0,0-.8,0Z" transform="translate(-316.33 -197.46)"/><path class="cls-1" d="M374.15,228.54v26.87c0,5.64-1,15,1.55,20.15,1.8,3.22,10.55,2.69,7.72,7-1.8,3.22-11.84,2.42-15.19,2.42" transform="translate(-316.33 -197.46)"/><path class="cls-2" d="M373.75,228.54v22c0,5.71-.44,11.47-.12,17.17a21.9,21.9,0,0,0,1.43,7.39,5.52,5.52,0,0,0,3.28,2.83c1.49.63,3.44,1,4.68,2s-.16,2.95-1.38,3.53c-2.12,1-4.72,1.06-7,1.11-2.13.05-4.26-.07-6.39-.07a.4.4,0,0,0,0,.8c4.09,0,8.4.49,12.4-.63a4.94,4.94,0,0,0,3.48-2.61,2.3,2.3,0,0,0-1-3.07c-1.51-1-3.36-1.3-5-2.07a4.72,4.72,0,0,1-2-1.47,10.1,10.1,0,0,1-1.22-3.65c-1.14-5.7-.37-11.66-.37-17.43v-25.9a.4.4,0,0,0-.8,0Z" transform="translate(-316.33 -197.46)"/><path class="cls-1" d="M369.44,215.45c0,14.42-30.64,2.32-37.85,12.62-5.41,7.72,6.1,11.14,5.92,7.47-.13-2.83-3.88,0-3.34-3.87.4-2.87,11.84-2.32,15.7-1.54,5.93,1,14.68,3.09,20.35.51" transform="translate(-316.33 -197.46)"/><path class="cls-2" d="M369,215.45c-.07,7.17-8.77,7.33-14.07,7.43-3.7.07-7.4,0-11.1.18-3.17.19-6.53.56-9.4,2.05-2.59,1.35-5,4.22-4.71,7.3.23,2.65,2.67,4.62,5.2,5a2.82,2.82,0,0,0,2.59-.68,1.94,1.94,0,0,0-.33-2.64c-1-.76-3.47-.14-2.64-2.38.48-1.31,2.93-1.46,4.07-1.58a48.15,48.15,0,0,1,13.86.93c5.74,1.05,12.34,2.4,17.91,0,.47-.21.06-.9-.4-.69-5.22,2.27-11.56,1-16.93,0a58.38,58.38,0,0,0-11.65-1.2,20.64,20.64,0,0,0-5.25.6c-1,.28-2.14.75-2.41,1.86a2.08,2.08,0,0,0,1.47,2.77c.5.11,1.2,0,1.6.42a1.1,1.1,0,0,1-.14,1.61c-.88.62-2.42.11-3.28-.29a4.92,4.92,0,0,1-2.73-3c-.94-3.3,2.11-6.42,4.88-7.62,3-1.33,6.51-1.56,9.78-1.68,3.61-.13,7.22,0,10.84-.14,5.61-.18,13.57-1,13.64-8.2a.4.4,0,0,0-.8,0Z" transform="translate(-316.33 -197.46)"/><path class="cls-1" d="M371.32,215.45c0,14.42,30.64,2.32,37.85,12.62,5.41,7.72-6.09,11.14-5.92,7.47.13-2.83,3.88,0,3.34-3.87-.39-2.87-11.84-2.32-15.7-1.54-5.92,1-14.68,3.09-20.34.51" transform="translate(-316.33 -197.46)"/><path class="cls-2" d="M370.92,215.45a6.87,6.87,0,0,0,3.18,6.05c2.37,1.48,5.36,1.83,8.09,2,6.89.5,14.11-.58,20.86,1.21,3.06.82,5.94,2.56,6.93,5.77a4.84,4.84,0,0,1-4.54,6.09c-.88.07-2.6-.51-1.59-1.75.71-.88,2.24-.18,2.93-1.3a2.51,2.51,0,0,0-.51-3.07,8.09,8.09,0,0,0-4.16-1.2,44.1,44.1,0,0,0-12.66.7c-5.91,1.08-12.94,2.83-18.7.32-.47-.21-.88.48-.41.69,5,2.18,10.86,1.25,16.06.35A68.74,68.74,0,0,1,399,229.91a18.1,18.1,0,0,1,5.72.69,2.13,2.13,0,0,1,1.44,1.06,1.34,1.34,0,0,1-1,1.93c-1.23.26-2.38.51-2.3,2.07a1.78,1.78,0,0,0,1.51,1.67c2.27.54,5-1.07,6.08-3,1.53-2.84-.25-6.33-2.56-8.16s-5.45-2.5-8.36-2.84a95.52,95.52,0,0,0-11-.38c-5.64,0-16.75.67-16.83-7.46a.4.4,0,0,0-.8,0Z" transform="translate(-316.33 -197.46)"/><path class="cls-1" d="M370.22,207.53c-5.73,0-6,8.78.32,8.62,5.52-.16,5.67-8.62-.32-8.62" transform="translate(-316.33 -197.46)"/><path class="cls-2" d="M370.22,207.13a4.64,4.64,0,0,0-4.49,3.13,4.86,4.86,0,0,0,1.17,5.06,5.29,5.29,0,0,0,6,.57A4.8,4.8,0,0,0,375,211a4.55,4.55,0,0,0-1.42-2.71,5.08,5.08,0,0,0-3.39-1.2.4.4,0,0,0,0,.8,3.9,3.9,0,0,1,3.91,2.71,4.15,4.15,0,0,1-1.17,4.24,4.44,4.44,0,0,1-5.09.19,3.89,3.89,0,0,1-1.53-4,3.85,3.85,0,0,1,3.88-3.15.4.4,0,0,0,0-.8Z" transform="translate(-316.33 -197.46)"/><path class="cls-1" d="M370.25,223a2.2,2.2,0,1,0,.16,4.39,2.2,2.2,0,1,0-.16-4.39" transform="translate(-316.33 -197.46)"/><path class="cls-2" d="M370.25,222.64a2.55,2.55,0,0,0-2.48,1.74,2.64,2.64,0,0,0,.65,2.76,2.89,2.89,0,0,0,3.3.33,2.66,2.66,0,0,0,1.17-2.7,2.43,2.43,0,0,0-.77-1.46,2.74,2.74,0,0,0-1.87-.67.4.4,0,0,0,0,.8,1.92,1.92,0,0,1,1.25.39c-.05-.05.06,0,.07,0l.1.11.1.11s.05.07.06.09a1.3,1.3,0,0,1,.14.26s0,.07,0,0a.64.64,0,0,1,0,.07.88.88,0,0,1,.05.15c0,.1.05.2.07.3,0-.09,0,.05,0,.07v.16a2.71,2.71,0,0,1,0,.29h0a.2.2,0,0,0,0,.07c0,.06,0,.12,0,.18a.74.74,0,0,0,0,.14l0,.1a1.51,1.51,0,0,1-.13.24l-.07.12-.05.06c.05-.05,0,0,0,0a2.5,2.5,0,0,1-.23.23l-.06.05c.05,0,0,0,0,0l-.12.09-.14.07-.12.06a1.91,1.91,0,0,1-.65.12,2,2,0,0,1-1.26-.32,1,1,0,0,1-.18-.14l-.1-.11-.06-.06,0,0-.15-.24-.06-.12,0,0c0,.05,0,0,0,0a2.76,2.76,0,0,1-.08-.27l0-.15h0s0-.06,0-.09a2.62,2.62,0,0,1,0-.28s0-.09,0-.14,0,0,0,0a.3.3,0,0,1,0-.1,2,2,0,0,1,.09-.33s.06-.16,0-.08.05-.11.07-.16.11-.18.18-.27l.07-.08.13-.12a1.93,1.93,0,0,1,.47-.29,1.83,1.83,0,0,1,.75-.13.4.4,0,0,0,0-.8Z" transform="translate(-316.33 -197.46)"/><path class="cls-1" d="M370.25,227.81a2.58,2.58,0,1,0,.18,5.15c3.21-.1,3.3-5.15-.18-5.15" transform="translate(-316.33 -197.46)"/><path class="cls-2" d="M370.25,227.41a2.88,2.88,0,0,0-2.78,2,3.11,3.11,0,0,0,.71,3.17,3.2,3.2,0,0,0,3.69.4,3.07,3.07,0,0,0,1.34-3.08,2.92,2.92,0,0,0-.88-1.71,3.11,3.11,0,0,0-2.08-.76.4.4,0,0,0,0,.8,2.36,2.36,0,0,1,1.43.45,2.1,2.1,0,0,1,.68,1.06,2.34,2.34,0,0,1-.64,2.36,2.12,2.12,0,0,1-1.29.48,2.45,2.45,0,0,1-1.46-.39,1.91,1.91,0,0,1-.72-1,2.34,2.34,0,0,1-.1-1.25,2.27,2.27,0,0,1,.65-1.23,2.12,2.12,0,0,1,1.45-.52.4.4,0,0,0,0-.8Z" transform="translate(-316.33 -197.46)"/><path class="cls-2" d="M352.85,285.26c3.37,4.07,9.84,4.57,14.73,4.6,2.45,0,4.89-.25,7.35-.29a36.12,36.12,0,0,0,7.41-.61c2.38-.53,4.58-1.68,5.52-4,.19-.48-.59-.69-.78-.21-1.16,2.93-4.67,3.61-7.47,3.88s-5.4.14-8.09.34a41.16,41.16,0,0,1-9.67-.29c-3.07-.5-6.38-1.45-8.43-3.94-.33-.4-.89.17-.57.57Z" transform="translate(-316.33 -197.46)"/><path class="cls-2" d="M366.7,249.15c2.29,0,4.57.51,6.87.35.51,0,.51-.84,0-.8-2.3.16-4.58-.34-6.87-.35a.4.4,0,0,0,0,.8Z" transform="translate(-316.33 -197.46)"/><path class="cls-2" d="M366.42,252.57a53.51,53.51,0,0,0,7.49.19.4.4,0,0,0,0-.8,53.6,53.6,0,0,1-7.28-.16c-.5-.07-.72.7-.21.77Z" transform="translate(-316.33 -197.46)"/><path class="cls-2" d="M367,256.36h6.87a.4.4,0,0,0,0-.8H367a.4.4,0,0,0,0,.8Z" transform="translate(-316.33 -197.46)"/><path class="cls-3" d="M390.83,202.74a51.19,51.19,0,0,0-.67,5.39,20.62,20.62,0,0,0-3.57.6c1,.6,3.42.77,3.5,1.08.16.64.59,3.81,1.13,5.43.39-2,.63-3.69.88-5.47,0-.19,2.44-.54,3.43-1.08a12.81,12.81,0,0,0-3.67-.56,41.26,41.26,0,0,0-1-5.39" transform="translate(-316.33 -197.46)"/><path class="cls-3" d="M336.71,279.49a41.22,41.22,0,0,0-.57,4.58,17.22,17.22,0,0,0-3,.51c.87.51,2.91.65,3,.92.14.55.5,3.24,1,4.62.33-1.74.54-3.14.75-4.65,0-.17,2.08-.46,2.92-.92a10.9,10.9,0,0,0-3.13-.48,34,34,0,0,0-.87-4.58" transform="translate(-316.33 -197.46)"/><path class="cls-3" d="M336.74,208.73a35.63,35.63,0,0,0-.49,3.89,14.16,14.16,0,0,0-2.58.43c.74.44,2.47.55,2.53.78.12.47.43,2.76.82,3.93.28-1.48.45-2.67.64-4,0-.13,1.76-.39,2.48-.78a9.49,9.49,0,0,0-2.66-.4,30.19,30.19,0,0,0-.74-3.89" transform="translate(-316.33 -197.46)"/><path class="cls-4" d="M401.3,282.74a2.06,2.06,0,1,0,.15,4.12,2.06,2.06,0,0,0-.15-4.12" transform="translate(-316.33 -197.46)"/><path class="cls-4" d="M319.39,238.83a1.55,1.55,0,1,0,.11,3.09,1.55,1.55,0,0,0-.11-3.09" transform="translate(-316.33 -197.46)"/><path class="cls-4" d="M410.59,214.61a1.55,1.55,0,1,0,.11,3.09,1.55,1.55,0,0,0-.11-3.09" transform="translate(-316.33 -197.46)"/><path class="cls-4" d="M356.77,201.62a1,1,0,1,0,.07,2.06,1,1,0,0,0-.07-2.06" transform="translate(-316.33 -197.46)"/><path class="cls-4" d="M355.74,250.83a1,1,0,1,0,.07,2.06,1,1,0,0,0-.07-2.06" transform="translate(-316.33 -197.46)"/><path class="cls-4" d="M391.05,240.89a1,1,0,1,0,.07,2.06,1,1,0,0,0-.07-2.06" transform="translate(-316.33 -197.46)"/><path class="cls-2" d="M423.21,247.34a1.25,1.25,0,0,0,0-2.5,1.25,1.25,0,0,0,0,2.5Z" transform="translate(-316.33 -197.46)"/><path class="cls-2" d="M370.43,304a1.25,1.25,0,0,0,0-2.5,1.25,1.25,0,0,0,0,2.5Z" transform="translate(-316.33 -197.46)"/><path class="cls-2" d="M395.53,298.59a1,1,0,0,0,0-2,1,1,0,0,0,0,2Z" transform="translate(-316.33 -197.46)"/><path class="cls-2" d="M374.29,199.46a1,1,0,0,0,0-2,1,1,0,0,0,0,2Z" transform="translate(-316.33 -197.46)"/><path class="cls-2" d="M346,238.72a1,1,0,0,0,0-2,1,1,0,0,0,0,2Z" transform="translate(-316.33 -197.46)"/><path class="cls-2" d="M414.84,282.5a1,1,0,0,0,0-2,1,1,0,0,0,0,2Z" transform="translate(-316.33 -197.46)"/><path class="cls-2" d="M318.28,253.28a.75.75,0,0,0,0-1.5.75.75,0,0,0,0,1.5Z" transform="translate(-316.33 -197.46)"/><path class="cls-2" d="M420,233.32a.75.75,0,0,0,0-1.5.75.75,0,0,0,0,1.5Z" transform="translate(-316.33 -197.46)"/><path class="cls-2" d="M382.66,265.51a.75.75,0,0,0,0-1.5.75.75,0,0,0,0,1.5Z" transform="translate(-316.33 -197.46)"/><path class="cls-2" d="M347.25,299.63a.75.75,0,0,0,0-1.5.75.75,0,0,0,0,1.5Z" transform="translate(-316.33 -197.46)"/><path class="cls-2" d="M383.94,253.28a.75.75,0,0,0,0-1.5.75.75,0,0,0,0,1.5Z" transform="translate(-316.33 -197.46)"/><path class="cls-2" d="M356.26,271.31a.75.75,0,0,0,0-1.5.75.75,0,0,0,0,1.5Z" transform="translate(-316.33 -197.46)"/><path class="cls-2" d="M380.73,244.27a.75.75,0,0,0,0-1.5.75.75,0,0,0,0,1.5Z" transform="translate(-316.33 -197.46)"/><path class="cls-2" d="M358.19,242.34a.75.75,0,0,0,0-1.5.75.75,0,0,0,0,1.5Z" transform="translate(-316.33 -197.46)"/></g></svg>