<svg xmlns="http://www.w3.org/2000/svg" viewBox="0 0 103.8 105.39"><defs><style>.cls-1{fill:#ff7e00;}.cls-2{fill:#e9e3ff;}.cls-3{fill:#ffe1d7;}.cls-4{fill:#fff;}</style></defs><g id="OBJECTS"><path class="cls-1" d="M99.63,384c7,5.84,18.86,1.95,25.9,11.47,5.59,8.47,6.39,21.53,9.14,30.88C128,420.36,126,410,121,402.68c-7.87-9.39-14.64-.91-27-11" transform="translate(-38.17 -346.81)"/><path class="cls-2" d="M99.35,384.26c5.57,4.52,13.37,3.51,19.66,6.41,8.19,3.77,10.38,13.49,12.11,21.53,1,4.75,1.81,9.57,3.17,14.24l.67-.39c-6.24-5.69-8.19-14.35-12.28-21.45a14.16,14.16,0,0,0-7.13-6.48c-2.62-1-5.48-1-8.24-1.23a24.17,24.17,0,0,1-13-5.5c-.4-.32-1,.24-.57.56a24.67,24.67,0,0,0,10.75,5.34c2.94.57,6,.43,8.89,1,8,1.68,10.52,10.51,13.54,17,1.9,4.1,4.07,8.16,7.45,11.25a.41.41,0,0,0,.67-.39c-2.48-8.5-3.11-17.49-6.48-25.74-1.51-3.69-3.52-7-6.91-9.26-3.06-2-6.67-2.85-10.22-3.52-4-.76-8.27-1.37-11.54-4-.39-.32-1,.24-.56.56Z" transform="translate(-38.17 -346.81)"/><path class="cls-1" d="M99.58,383.94c-7.73-4.88-7.68-17.33-18.91-21.08-9.79-2.71-22.46.58-32.2.84,7.74,4.49,18.24,3.21,26.72,5.69C86.55,374,80.57,383,94,391.63" transform="translate(-38.17 -346.81)"/><path class="cls-2" d="M99.78,383.6c-5.67-3.68-7.25-11.07-11.49-16a16.41,16.41,0,0,0-9.21-5.5,49.37,49.37,0,0,0-14.31-.32c-5.44.49-10.84,1.38-16.3,1.55a.41.41,0,0,0-.2.75c7.6,4.3,16.68,3.36,24.94,5.24A12.73,12.73,0,0,1,81.52,375c1.44,2.4,2.22,5.15,3.5,7.64A24.5,24.5,0,0,0,93.79,392c.43.28.83-.41.4-.69a23.82,23.82,0,0,1-8.42-8.9c-1.29-2.49-2.07-5.24-3.5-7.66a13.35,13.35,0,0,0-6.59-5.56,26.3,26.3,0,0,0-6.15-1.35c-2-.29-4.1-.49-6.15-.71-5.05-.55-10.22-1.21-14.71-3.75l-.2.74c9.55-.29,19.13-2.9,28.7-1.55a16.3,16.3,0,0,1,10.36,5.37c2.26,2.56,3.76,5.66,5.41,8.61s3.53,5.87,6.44,7.76c.43.28.83-.41.4-.69Z" transform="translate(-38.17 -346.81)"/><path class="cls-2" d="M126.65,397.91c-1.85,1.5-3.61,3.12-5.47,4.62a.42.42,0,0,0,0,.57.43.43,0,0,0,.57,0c1.85-1.51,3.61-3.12,5.46-4.63a.4.4,0,0,0-.56-.56Z" transform="translate(-38.17 -346.81)"/><path class="cls-2" d="M124.81,394.66c-.72.86-1.51,1.65-2.27,2.47a34.25,34.25,0,0,0-2.75,3.37c-.3.42.4.82.69.4a34.79,34.79,0,0,1,2.67-3.26c.75-.8,1.52-1.57,2.22-2.42.33-.39-.24-1-.56-.56Z" transform="translate(-38.17 -346.81)"/><path class="cls-2" d="M121.92,392.31c-1.43,2.27-2.77,4.6-4.34,6.77-.3.42.39.82.69.4,1.57-2.17,2.91-4.5,4.34-6.77.28-.43-.41-.84-.69-.4Z" transform="translate(-38.17 -346.81)"/><path class="cls-2" d="M77.24,362.26c-.86,2.23-1.85,4.4-2.71,6.63-.18.48.59.69.77.21.86-2.23,1.86-4.4,2.72-6.62.18-.48-.59-.69-.78-.22Z" transform="translate(-38.17 -346.81)"/><path class="cls-2" d="M80.94,362.92c-.59.93-1.09,1.91-1.63,2.88A32.44,32.44,0,0,1,77,369.4c-.3.42.39.82.69.41A32.57,32.57,0,0,0,80,366.2c.54-1,1-1.94,1.63-2.88.28-.44-.41-.84-.69-.4Z" transform="translate(-38.17 -346.81)"/><path class="cls-2" d="M84.19,364.76c-1.74,2.09-3.56,4.12-5.16,6.31-.31.42.39.82.69.41,1.56-2.15,3.34-4.11,5-6.15.33-.39-.23-1-.56-.57Z" transform="translate(-38.17 -346.81)"/><path class="cls-2" d="M132.13,425.06c-15.25-.18-30.53,2.28-45.7-.45a55,55,0,0,1-13.09-4c-.47-.21-.88.48-.41.69C87.6,428,104.2,427,119.88,426.2c4.08-.2,8.17-.39,12.25-.34a.4.4,0,0,0,0-.8Z" transform="translate(-38.17 -346.81)"/><path class="cls-2" d="M49.7,366c5,14.68,7.37,30.23,14.88,44a55.3,55.3,0,0,0,7.72,10.94c.34.38.91-.19.56-.57C62,408.4,57.94,392.18,53.81,377c-1-3.79-2.08-7.58-3.34-11.3-.16-.49-.94-.28-.77.21Z" transform="translate(-38.17 -346.81)"/><path class="cls-1" d="M134.91,422.9a2.32,2.32,0,1,1-2.85,3.65,2.32,2.32,0,0,1,2.85-3.65" transform="translate(-38.17 -346.81)"/><path class="cls-2" d="M134.71,423.24a2.29,2.29,0,0,1,.44.44l.17.28,0,.07c0-.06,0,0,0,0l.06.18,0,.14s0,.06,0,.09h0c0,.1,0,.21,0,.32s0,.11,0,.16,0,.08,0,0,0,.05,0,.07a1.57,1.57,0,0,1-.08.31c0,.05,0,.09,0,.14s0,0,0,0l0,.08a2.54,2.54,0,0,1-.16.28l-.08.12c0,.06.05-.07,0,0l0,.06a2.5,2.5,0,0,1-.23.23l-.11.09c.06,0,0,0-.06.05l-.28.16-.08,0h0l-.15.05-.14,0-.11,0a1.86,1.86,0,0,1-1.24-.27A2.5,2.5,0,0,1,132,426l-.07-.08-.1-.14-.09-.16,0-.07c0-.06,0,0,0,0a2.81,2.81,0,0,1-.1-.31.68.68,0,0,1,0-.14c0,.08,0-.09,0-.11a1.58,1.58,0,0,1,0-.31c0-.1,0,0,0-.08a1.16,1.16,0,0,1,0-.18,1.4,1.4,0,0,1,.09-.29s0-.07,0,0l0-.07a1.19,1.19,0,0,1,.08-.16c.05-.08.1-.17.16-.25s0,0,0,0l0-.05.12-.13.13-.12.05-.05,0,0a2,2,0,0,1,.31-.19l.06,0,0,0,.16-.06.18-.05h.11a1.74,1.74,0,0,1,.69.05,2.42,2.42,0,0,1,.75.38.4.4,0,0,0,.55-.14.42.42,0,0,0-.14-.55,2.8,2.8,0,0,0-1.72-.55,2.66,2.66,0,0,0-1.52.59,2.83,2.83,0,0,0-1,2.82,2.89,2.89,0,0,0,2.67,2.1,2.83,2.83,0,0,0,2.69-3.37,2.69,2.69,0,0,0-1.09-1.59.4.4,0,0,0-.55.15.4.4,0,0,0,.14.54Z" transform="translate(-38.17 -346.81)"/><path class="cls-1" d="M51.66,362.41a2.32,2.32,0,1,0-2.58,3.85,2.32,2.32,0,0,0,2.58-3.85" transform="translate(-38.17 -346.81)"/><path class="cls-2" d="M51.86,362.07a2.6,2.6,0,0,0-3.08,0,2.85,2.85,0,0,0-1.16,2.78,2.92,2.92,0,0,0,2.57,2.21,2.78,2.78,0,0,0,2.57-1.55,2.6,2.6,0,0,0-.9-3.44.39.39,0,0,0-.54.14.42.42,0,0,0,.14.55,2.37,2.37,0,0,1,.5.5,1.5,1.5,0,0,1,.26.54l0,.15s0,.05,0,.08,0,0,0,0a2,2,0,0,1,0,.35s0,.15,0,.08l0,.13a1.68,1.68,0,0,1-.09.32.19.19,0,0,0,0,.07c0-.06,0,0,0,0a.91.91,0,0,1-.07.14,2.38,2.38,0,0,1-.18.3,1.08,1.08,0,0,1-.16.18l-.22.22-.06,0s0,0,0,0l-.13.09-.3.16-.09,0-.14,0-.15,0h-.09a1.76,1.76,0,0,1-1.22-.34,2.47,2.47,0,0,1-.56-.51,2.75,2.75,0,0,1-.15-.24.93.93,0,0,1-.12-.25,2.81,2.81,0,0,1-.08-.31c0-.08,0,0,0-.06s0-.13,0-.19a.76.76,0,0,1,0-.15s0-.16,0-.08a1.57,1.57,0,0,1,.08-.31,1.86,1.86,0,0,1,.08-.23,1.91,1.91,0,0,1,.15-.28l.08-.12,0-.07s0,.06,0,0a1.7,1.7,0,0,1,.22-.24l.12-.11h0l.1-.07.29-.17.07,0h0l.16-.05.19-.05.07,0h.39a.92.92,0,0,1,.29.05,2.09,2.09,0,0,1,.7.35.41.41,0,0,0,.55-.15.4.4,0,0,0-.15-.54Z" transform="translate(-38.17 -346.81)"/><path class="cls-1" d="M71.56,421l-10.05,3.59L56.2,434.84c4.57.07,8.85-3.31,11.57-7.06" transform="translate(-38.17 -346.81)"/><path class="cls-2" d="M71.45,420.59l-9.18,3.28a2.68,2.68,0,0,0-1.1.49,4.63,4.63,0,0,0-.48.94L58,430.52l-2.14,4.12a.41.41,0,0,0,.35.6c4.94,0,9.13-3.46,11.92-7.26.3-.42-.39-.82-.69-.4-2.62,3.56-6.59,6.87-11.23,6.86l.34.6,4.5-8.69a5.87,5.87,0,0,0,.76-1.47c0-.26-.09.07-.14.06s.43-.16.52-.19l5.11-1.82,4.37-1.57c.49-.17.28-.94-.21-.77Z" transform="translate(-38.17 -346.81)"/><path class="cls-1" d="M73.07,422.08l-.31,10.66L64.64,441c-1.49-4.33.41-9.44,3.13-13.19" transform="translate(-38.17 -346.81)"/><path class="cls-2" d="M72.67,422.08l-.28,9.67a5.83,5.83,0,0,0,0,.72c0,.4-.09.13.1,0a7.48,7.48,0,0,0-.89.89L67.5,437.5l-3.15,3.19.67.17c-1.45-4.47.49-9.24,3.1-12.88.3-.42-.39-.82-.69-.4-2.73,3.8-4.7,8.83-3.18,13.49a.4.4,0,0,0,.67.18l7-7c.59-.6,1.28-1,1.3-1.88l.16-5.39.14-4.86c0-.52-.78-.52-.8,0Z" transform="translate(-38.17 -346.81)"/><path class="cls-2" d="M60.71,427.35l7.86-2.66,1.11-.37c.49-.17.28-.94-.21-.77l-7.86,2.65-1.12.37c-.48.17-.27.94.22.78Z" transform="translate(-38.17 -346.81)"/><path class="cls-2" d="M58.94,430.46l7.83-2.83,1.13-.4c.48-.18.28-1-.21-.78l-7.83,2.83-1.13.41c-.48.17-.27.94.21.77Z" transform="translate(-38.17 -346.81)"/><path class="cls-2" d="M57.16,433.36,65,430.54l1.13-.41c.48-.17.27-.94-.21-.77l-7.83,2.82-1.13.41c-.48.17-.27,1,.21.77Z" transform="translate(-38.17 -346.81)"/><path class="cls-2" d="M71.17,434.35l.09-8.28v-1.2a.4.4,0,0,0-.79,0l-.1,8.29v1.19a.4.4,0,0,0,.8,0Z" transform="translate(-38.17 -346.81)"/><path class="cls-2" d="M68.75,437l.27-8.32,0-1.19c0-.52-.78-.52-.8,0L68,435.79,68,437a.4.4,0,0,0,.8,0Z" transform="translate(-38.17 -346.81)"/><path class="cls-2" d="M66.54,439.58l.27-8.32,0-1.2c0-.51-.78-.51-.8,0l-.26,8.32,0,1.2a.4.4,0,0,0,.8,0Z" transform="translate(-38.17 -346.81)"/><path class="cls-1" d="M103.32,376.64,74.16,416.77l-9.53,13.12,2.24,1.36,9.67-13.31,28.89-39.77" transform="translate(-38.17 -346.81)"/><path class="cls-2" d="M103,376.43,68.37,424.06l-4.09,5.63a.41.41,0,0,0,.15.55l2.24,1.35a.4.4,0,0,0,.54-.14l15.25-21,18.61-25.61,4.71-6.48c.3-.42-.39-.82-.69-.4L92.6,395.16,76.06,417.91l-9.54,13.14.55-.15-2.24-1.35.14.54Q78.5,411.49,92,392.87q5.82-8,11.65-16c.3-.42-.39-.82-.69-.41Z" transform="translate(-38.17 -346.81)"/><path class="cls-1" d="M110.19,369.4c-4.77,4.2-8.22,5.94-13.34,8.64,3.76,0,4.78-.14,7.19-.17.21,2.07,1,3.9,2,6.88C106.61,381.16,109.66,371.47,110.19,369.4Z" transform="translate(-38.17 -346.81)"/><path class="cls-2" d="M109.9,369.12a48,48,0,0,1-6.55,4.88c-2.17,1.34-4.44,2.51-6.7,3.7a.4.4,0,0,0,.2.74c2.4,0,4.79-.13,7.19-.17l-.4-.4a34.91,34.91,0,0,0,2,7c.12.34.71.42.78,0,.79-5.23,2.78-10.24,4.1-15.34a.4.4,0,0,0-.77-.21c-1.32,5.1-3.31,10.11-4.11,15.34h.78c-.74-2.21-1.77-4.43-2-6.77a.41.41,0,0,0-.4-.4c-2.4,0-4.79.18-7.19.17l.2.75c2.33-1.23,4.67-2.43,6.9-3.82a50.79,50.79,0,0,0,6.52-4.88C110.86,369.35,110.29,368.78,109.9,369.12Z" transform="translate(-38.17 -346.81)"/><path class="cls-3" d="M122.38,367.63a51.19,51.19,0,0,0-.67,5.39,19.55,19.55,0,0,0-3.57.6c1,.6,3.42.77,3.5,1.08.16.64.59,3.81,1.13,5.43.39-2,.63-3.69.89-5.47,0-.19,2.44-.54,3.43-1.08a12.87,12.87,0,0,0-3.68-.56,41.26,41.26,0,0,0-1-5.39" transform="translate(-38.17 -346.81)"/><path class="cls-3" d="M47.78,412.55a41.22,41.22,0,0,0-.57,4.58,17.08,17.08,0,0,0-3,.51c.87.51,2.91.65,3,.92.13.54.5,3.24,1,4.61.33-1.73.53-3.13.75-4.65,0-.16,2.07-.45,2.91-.91a10.84,10.84,0,0,0-3.12-.48,35.7,35.7,0,0,0-.87-4.58" transform="translate(-38.17 -346.81)"/><path class="cls-3" d="M109.07,436.45a38.83,38.83,0,0,0-.49,3.9,14.16,14.16,0,0,0-2.58.43c.74.43,2.47.55,2.53.78.12.46.43,2.75.82,3.92.28-1.47.45-2.66.64-4,0-.14,1.76-.39,2.48-.78a9.14,9.14,0,0,0-2.66-.4,28.52,28.52,0,0,0-.74-3.9" transform="translate(-38.17 -346.81)"/><path class="cls-4" d="M77.93,346.81a2.06,2.06,0,1,0,.15,4.12,2.06,2.06,0,0,0-.15-4.12" transform="translate(-38.17 -346.81)"/><path class="cls-4" d="M84.28,446.74a1.55,1.55,0,1,0,.11,3.09,1.55,1.55,0,0,0-.11-3.09" transform="translate(-38.17 -346.81)"/><path class="cls-4" d="M40.31,393a1.55,1.55,0,1,0,.11,3.09,1.55,1.55,0,0,0-.11-3.09" transform="translate(-38.17 -346.81)"/><path class="cls-4" d="M136.2,392.78a1,1,0,1,0,.08,2.06,1,1,0,0,0-.08-2.06" transform="translate(-38.17 -346.81)"/><path class="cls-4" d="M77.17,392.14a1,1,0,1,0,.07,2.06,1,1,0,0,0-.07-2.06" transform="translate(-38.17 -346.81)"/><path class="cls-4" d="M113.26,416.05a1,1,0,1,0,.07,2.06,1,1,0,0,0-.07-2.06" transform="translate(-38.17 -346.81)"/><path class="cls-2" d="M103.91,352.92a1.25,1.25,0,0,0,0-2.5,1.25,1.25,0,0,0,0,2.5Z" transform="translate(-38.17 -346.81)"/><path class="cls-2" d="M91,419.87a1.25,1.25,0,0,0,0-2.5,1.25,1.25,0,0,0,0,2.5Z" transform="translate(-38.17 -346.81)"/><path class="cls-2" d="M63.36,380.35a1,1,0,0,0,0-2,1,1,0,0,0,0,2Z" transform="translate(-38.17 -346.81)"/><path class="cls-2" d="M121.94,437a1,1,0,0,0,0-2,1,1,0,0,0,0,2Z" transform="translate(-38.17 -346.81)"/><path class="cls-2" d="M51.13,403.52a1,1,0,0,0,0-2,1,1,0,0,0,0,2Z" transform="translate(-38.17 -346.81)"/><path class="cls-2" d="M137.39,378.42a1,1,0,0,0,0-2,1,1,0,0,0,0,2Z" transform="translate(-38.17 -346.81)"/><path class="cls-2" d="M101.34,409.07a.75.75,0,0,0,0-1.5.75.75,0,0,0,0,1.5Z" transform="translate(-38.17 -346.81)"/><path class="cls-2" d="M118.72,356.92a.75.75,0,0,0,0-1.5.75.75,0,0,0,0,1.5Z" transform="translate(-38.17 -346.81)"/><path class="cls-2" d="M94.26,363.36a.75.75,0,0,0,0-1.5.75.75,0,0,0,0,1.5Z" transform="translate(-38.17 -346.81)"/><path class="cls-2" d="M62.71,355a.75.75,0,0,0,0-1.5.75.75,0,0,0,0,1.5Z" transform="translate(-38.17 -346.81)"/><path class="cls-2" d="M38.9,411a.75.75,0,0,0,0-1.5.75.75,0,0,0,0,1.5Z" transform="translate(-38.17 -346.81)"/><path class="cls-2" d="M91,435.46a.75.75,0,0,0,0-1.5.75.75,0,0,0,0,1.5Z" transform="translate(-38.17 -346.81)"/><path class="cls-2" d="M44,380.1a.75.75,0,0,0,0-1.5.75.75,0,0,0,0,1.5Z" transform="translate(-38.17 -346.81)"/><path class="cls-2" d="M141.25,408.42a.75.75,0,0,0,0-1.5.75.75,0,0,0,0,1.5Z" transform="translate(-38.17 -346.81)"/><path class="cls-2" d="M71.73,447.69a.75.75,0,0,0,0-1.5.75.75,0,0,0,0,1.5Z" transform="translate(-38.17 -346.81)"/><path class="cls-2" d="M69.15,404.56a.75.75,0,0,0,0-1.5.75.75,0,0,0,0,1.5Z" transform="translate(-38.17 -346.81)"/><path class="cls-2" d="M49.84,434.17a.75.75,0,0,0,0-1.5.75.75,0,0,0,0,1.5Z" transform="translate(-38.17 -346.81)"/><path class="cls-2" d="M98.76,452.2a.75.75,0,0,0,0-1.5.75.75,0,0,0,0,1.5Z" transform="translate(-38.17 -346.81)"/></g></svg>