<svg xmlns="http://www.w3.org/2000/svg" viewBox="0 0 106.86 103.98"><defs><style>.cls-1{fill:#ff7e00;}.cls-2{fill:#e9e3ff;}.cls-3{fill:#ffe1d7;}.cls-4{fill:#fff;}</style></defs><g id="OBJECTS"><path class="cls-1" d="M509.92,277c-1.38,3.26-.86,10.64,4.63,8.92,3.26-1,3.09-7.38,1.54-9.78" transform="translate(-457.41 -198.23)"/><path class="cls-2" d="M509.53,276.84a10,10,0,0,0-.62,4.6,6.22,6.22,0,0,0,1.71,4.19,4.18,4.18,0,0,0,4.56.42c1.57-.8,2.15-2.71,2.32-4.34a9.39,9.39,0,0,0-1.06-5.82c-.27-.44-1,0-.69.4a8.3,8.3,0,0,1,1,4.48c0,1.47-.32,3.33-1.55,4.3a3.37,3.37,0,0,1-3.9.1,5.1,5.1,0,0,1-1.58-3.54,9.54,9.54,0,0,1,.57-4.58c.2-.47-.58-.68-.77-.21Z" transform="translate(-457.41 -198.23)"/><path class="cls-1" d="M506.51,285.19c3.09-3.09,8.93-3.61,8.93,1.88,0,4.81-6.52,6-9.27,2.41" transform="translate(-457.41 -198.23)"/><path class="cls-2" d="M506.8,285.47a7.5,7.5,0,0,1,4.12-2.13,3.48,3.48,0,0,1,3.45,1.19,4.54,4.54,0,0,1,.14,4.6,4.43,4.43,0,0,1-3.5,2,5.18,5.18,0,0,1-4.55-2c-.32-.4-.88.17-.57.57,2.12,2.72,6.83,3.08,9,.22a5.37,5.37,0,0,0,.47-5.31,4,4,0,0,0-3.8-2.18,8.09,8.09,0,0,0-5.34,2.41c-.37.36.2.93.57.57Z" transform="translate(-457.41 -198.23)"/><path class="cls-1" d="M499.71,287.29c2.93-3.32,10.27-2.55,9.53,2.9-.62,4.25-8.84,5.29-10.49,1.31" transform="translate(-457.41 -198.23)"/><path class="cls-2" d="M500,287.57a6,6,0,0,1,4.41-1.86,4.55,4.55,0,0,1,4,1.82,3.68,3.68,0,0,1-.43,4.35,6.36,6.36,0,0,1-4.48,1.71c-1.73,0-3.65-.58-4.39-2.29-.2-.47-.89-.06-.69.41,1.56,3.59,7.17,3.23,9.74,1.09a4.42,4.42,0,0,0,1.25-5,4.84,4.84,0,0,0-4.13-2.83,6.91,6.91,0,0,0-5.84,2.06c-.34.38.22.94.57.56Z" transform="translate(-457.41 -198.23)"/><path class="cls-1" d="M493.61,286.25c3.33-2.67,9.8-.86,7.75,4.16-1.61,3.71-9.15,3.78-9.83-.73" transform="translate(-457.41 -198.23)"/><path class="cls-2" d="M493.89,286.53a5.63,5.63,0,0,1,4.46-1,3.44,3.44,0,0,1,3,2.56,3.82,3.82,0,0,1-1.85,3.84,6.2,6.2,0,0,1-4.26.71,3.82,3.82,0,0,1-3.29-3.05c-.08-.51-.85-.29-.77.21.62,3.78,5.45,4.48,8.36,3a4.67,4.67,0,0,0,2.65-4.36,4,4,0,0,0-3-3.55,6.47,6.47,0,0,0-5.84,1.06c-.41.32.16.88.56.57Z" transform="translate(-457.41 -198.23)"/><path class="cls-1" d="M484.89,283.13c.34,3.43,3.43,10.64,8.24,7.89,6.18-3.26-2.75-10-6.36-10.3" transform="translate(-457.41 -198.23)"/><path class="cls-2" d="M484.49,283.13a13.78,13.78,0,0,0,2.14,6c1.13,1.71,2.88,3.25,5.08,2.88,1.85-.31,4-1.85,3.94-3.91s-1.63-3.62-3-4.8a11.7,11.7,0,0,0-5.84-2.94c-.51-.05-.5.75,0,.8a10,10,0,0,1,4.48,2.09,8.79,8.79,0,0,1,3.46,4.07c.56,1.81-.87,3.13-2.47,3.72-1.9.71-3.57-.44-4.66-1.95a12.61,12.61,0,0,1-2.29-5.92c-.06-.51-.86-.52-.8,0Z" transform="translate(-457.41 -198.23)"/><path class="cls-1" d="M476.82,261.84c1.89,5.15-.69,7.9-1.38,12.7-.51,4.81,1.72,11.5,7.56,11,6.69-.52,8.75-6.7,5.49-12-2.92-4.63-8.41-7-11.67-11.67" transform="translate(-457.41 -198.23)"/><path class="cls-2" d="M476.43,262a11.6,11.6,0,0,1-.13,7.67,21.88,21.88,0,0,0-1.33,6.22c0,3.33,1.08,7.3,4.06,9.18s7.54.86,9.75-1.78c2.34-2.8,1.91-6.82.14-9.79-2.9-4.85-8.48-7.27-11.76-11.81-.3-.42-1,0-.69.4,2.53,3.51,6.23,5.75,9.27,8.75,2.7,2.67,5,6.73,3.29,10.56-1.5,3.3-6.34,4.94-9.49,3-3-1.77-3.9-5.87-3.75-9.07.1-2.34,1.07-4.51,1.65-6.74a11.36,11.36,0,0,0-.24-6.85c-.16-.48-.94-.27-.77.22Z" transform="translate(-457.41 -198.23)"/><path class="cls-1" d="M533.07,236.6c-.17,3.09-4.81,7.73-7.73,4.3-2.74-3.09,1.38-6.7,4.64-6.36" transform="translate(-457.41 -198.23)"/><path class="cls-2" d="M532.67,236.6a5.7,5.7,0,0,1-1.48,3.17,5.26,5.26,0,0,1-3.06,1.92,3,3,0,0,1-3-1.78,2.9,2.9,0,0,1,.71-3.37,5.25,5.25,0,0,1,4.13-1.6c.51.05.51-.75,0-.8-2.81-.26-6.79,2.33-5.79,5.54a4,4,0,0,0,3.33,2.82,5.12,5.12,0,0,0,3.76-1.66,6.82,6.82,0,0,0,2.19-4.24c0-.51-.77-.51-.8,0Z" transform="translate(-457.41 -198.23)"/><path class="cls-1" d="M536.33,232.83c-.34,2.92-.69,7.21-5.15,5.83-5-1.54-2.92-7.55,1.2-8.41" transform="translate(-457.41 -198.23)"/><path class="cls-2" d="M535.93,232.83c-.24,2.06-.44,5.77-3.3,5.7a4.28,4.28,0,0,1-3.63-2,3.61,3.61,0,0,1,.15-3.32,4.93,4.93,0,0,1,3.34-2.59c.5-.11.29-.88-.21-.77-2.76.6-5.25,3.73-4.19,6.6a4.7,4.7,0,0,0,3.78,2.77,3.38,3.38,0,0,0,3.72-1.58,12.48,12.48,0,0,0,1.14-4.83c.06-.51-.74-.51-.8,0Z" transform="translate(-457.41 -198.23)"/><path class="cls-1" d="M538.73,226c.52,3.78.52,8.41-4.29,8.24-2.4,0-3.6-1.37-3.77-3.78-.18-2.57,1.54-3.94,3.43-5.66" transform="translate(-457.41 -198.23)"/><path class="cls-2" d="M538.35,226.07a16.4,16.4,0,0,1,.13,4.14,4.08,4.08,0,0,1-1.6,3,3.91,3.91,0,0,1-1.92.54,4.63,4.63,0,0,1-2.21-.33c-1.35-.65-1.77-2.31-1.69-3.7.13-2.07,1.91-3.44,3.32-4.73.38-.34-.18-.91-.56-.56-1.44,1.3-3.14,2.68-3.49,4.71a4.9,4.9,0,0,0,1.47,4.63,5.3,5.3,0,0,0,4.79.47,4.22,4.22,0,0,0,2.52-3.13,14.53,14.53,0,0,0,0-5.3c-.07-.51-.84-.3-.77.21Z" transform="translate(-457.41 -198.23)"/><path class="cls-1" d="M537.87,218.41c2.75,2.4,2.75,8.58-1.54,8.92s-5.84-5-4.12-8.06" transform="translate(-457.41 -198.23)"/><path class="cls-2" d="M537.59,218.69c1.81,1.62,2.52,5.06,1,7.08a3.45,3.45,0,0,1-3.65,1,4.12,4.12,0,0,1-2.67-2.77,5.86,5.86,0,0,1,.33-4.57c.24-.45-.45-.86-.7-.41-1.46,2.7-.77,7,2.28,8.33a4.41,4.41,0,0,0,4.55-.61,5.06,5.06,0,0,0,1.48-4,6.58,6.58,0,0,0-2-4.66c-.39-.34-.95.23-.57.57Z" transform="translate(-457.41 -198.23)"/><path class="cls-1" d="M533.75,205.88c8.25.51,10.31,16.65.18,15.45-4.64-.52-7.56-5.33-7.21-9.79.17-1.72.52-3,1.88-3.78a41,41,0,0,0,5,4,32.5,32.5,0,0,0,.17-5.83" transform="translate(-457.41 -198.23)"/><path class="cls-2" d="M533.75,206.28c4.49.32,6.9,5.39,6.58,9.42a5.66,5.66,0,0,1-2.72,4.7c-2.56,1.36-6,.38-7.9-1.59a9.41,9.41,0,0,1-2.51-5.1c-.3-1.9-.21-4.49,1.61-5.6l-.49-.06a26,26,0,0,0,5.06,4,.41.41,0,0,0,.59-.24,34.67,34.67,0,0,0,.18-5.94.4.4,0,0,0-.8,0,33.23,33.23,0,0,1-.15,5.73l.58-.24a25,25,0,0,1-4.89-3.89.41.41,0,0,0-.49-.06c-1.65,1-2.09,2.91-2.11,4.74a10.43,10.43,0,0,0,1.49,5.44,8.29,8.29,0,0,0,8.68,4c5.25-1.07,5.47-7.68,3.53-11.6a7.71,7.71,0,0,0-6.24-4.56c-.51,0-.51.76,0,.8Z" transform="translate(-457.41 -198.23)"/><path class="cls-1" d="M493.19,236.6c.17,3.09,4.81,7.73,7.73,4.3,2.74-3.09-1.38-6.7-4.64-6.36" transform="translate(-457.41 -198.23)"/><path class="cls-2" d="M492.79,236.6a6.63,6.63,0,0,0,1.81,3.84,5.72,5.72,0,0,0,3.66,2.06,3.87,3.87,0,0,0,3.6-2.28,3.65,3.65,0,0,0-.76-4.1,6,6,0,0,0-4.82-2c-.51.05-.51.85,0,.8a5.2,5.2,0,0,1,3.75,1.25,3,3,0,0,1-1.53,5.52,4.6,4.6,0,0,1-3.09-1.57,5.93,5.93,0,0,1-1.82-3.54c0-.51-.83-.51-.8,0Z" transform="translate(-457.41 -198.23)"/><path class="cls-1" d="M489.93,232.83c.34,2.92.68,7.21,5.15,5.83,5-1.54,2.92-7.55-1.2-8.41" transform="translate(-457.41 -198.23)"/><path class="cls-2" d="M489.53,232.83c.3,2.57.69,6.67,4.19,6.49A5.06,5.06,0,0,0,498,237a4.43,4.43,0,0,0-.09-4,5.73,5.73,0,0,0-3.88-3.07c-.5-.11-.71.66-.21.77,2.32.5,4.51,3.09,3.65,5.55a3.93,3.93,0,0,1-3.24,2.28,2.58,2.58,0,0,1-2.95-1.46,12.42,12.42,0,0,1-.9-4.18c-.06-.51-.86-.51-.8,0Z" transform="translate(-457.41 -198.23)"/><path class="cls-1" d="M487.52,226c-.51,3.78-.51,8.41,4.3,8.24,2.4,0,3.6-1.37,3.77-3.78.17-2.57-1.54-3.94-3.43-5.66" transform="translate(-457.41 -198.23)"/><path class="cls-2" d="M487.14,225.86c-.35,2.62-.76,6.65,2,8.19a5.56,5.56,0,0,0,4.84.08,4.49,4.49,0,0,0,2-4.29c-.11-2.36-1.93-3.89-3.56-5.36-.38-.35-.94.22-.56.56,1.25,1.14,2.78,2.32,3.21,4a4.12,4.12,0,0,1-1.17,4.14,3.57,3.57,0,0,1-2,.58,4.63,4.63,0,0,1-2.17-.36,3.69,3.69,0,0,1-1.86-2.79,14.37,14.37,0,0,1,.06-4.58c.07-.51-.7-.72-.77-.21Z" transform="translate(-457.41 -198.23)"/><path class="cls-1" d="M488.38,218.41c-2.74,2.4-2.74,8.58,1.55,8.92s5.83-5,4.12-8.06" transform="translate(-457.41 -198.23)"/><path class="cls-2" d="M488.1,218.12c-2.16,1.93-2.84,6-.91,8.28a4.28,4.28,0,0,0,4.34,1.2,4.93,4.93,0,0,0,3.22-3.22,6.67,6.67,0,0,0-.36-5.32c-.24-.45-.93,0-.69.41,1.24,2.28.7,6.06-1.9,7.19a3.58,3.58,0,0,1-3.82-.58,4.45,4.45,0,0,1-1.08-3.43,5.73,5.73,0,0,1,1.77-4c.38-.34-.19-.91-.57-.57Z" transform="translate(-457.41 -198.23)"/><path class="cls-1" d="M492.5,205.88c-8.24.51-10.3,16.65-.17,15.45,4.64-.52,7.56-5.33,7.21-9.79-.17-1.72-.52-3-1.89-3.78a40.22,40.22,0,0,1-5,4,33.46,33.46,0,0,1-.17-5.83" transform="translate(-457.41 -198.23)"/><path class="cls-2" d="M492.5,205.48c-5.11.37-7.94,6.13-7.31,10.77a6.16,6.16,0,0,0,3.7,5.13,8,8,0,0,0,8.83-2.69,10.4,10.4,0,0,0,2.23-5.8c.13-2-.24-4.34-2.09-5.47a.41.41,0,0,0-.49.06,25.11,25.11,0,0,1-4.9,3.89l.59.24a34.27,34.27,0,0,1-.16-5.73.4.4,0,0,0-.8,0,35.72,35.72,0,0,0,.19,5.94.4.4,0,0,0,.59.24,26.65,26.65,0,0,0,5.06-4l-.49.06c1.63,1,1.82,3.14,1.69,4.88a9.62,9.62,0,0,1-1.74,4.81,7.32,7.32,0,0,1-8.07,2.89c-4.21-1.42-4-7.19-2.28-10.42a6.86,6.86,0,0,1,5.45-4c.51,0,.52-.84,0-.8Z" transform="translate(-457.41 -198.23)"/><path class="cls-2" d="M524.25,247.29c3.13-.46,6.73-.26,9.3,1.81s3.21,5.46,2.89,8.62l.69-.28c-1.62-1.94-2.87-4.3-5.1-5.63-2.66-1.59-5.83-.86-8.75-.84a.4.4,0,0,0,0,.8c2.83,0,6-.78,8.5.83,2.07,1.3,3.25,3.57,4.78,5.4.25.3.65,0,.68-.28a10.93,10.93,0,0,0-1.81-7.83,9.61,9.61,0,0,0-6.41-3.46,17.31,17.31,0,0,0-5,.09c-.51.07-.3.84.21.77Z" transform="translate(-457.41 -198.23)"/><path class="cls-2" d="M522.19,255.53c3.13-.46,6.72-.26,9.3,1.81s3.21,5.46,2.89,8.62l.69-.28c-1.63-1.94-2.87-4.3-5.1-5.63-2.66-1.59-5.83-.86-8.75-.84a.4.4,0,0,0,0,.8c2.83,0,6-.78,8.5.83,2.07,1.3,3.25,3.57,4.78,5.4.25.3.65,0,.68-.28a10.93,10.93,0,0,0-1.81-7.83,9.61,9.61,0,0,0-6.41-3.46,17.39,17.39,0,0,0-5,.09c-.5.07-.29.84.22.77Z" transform="translate(-457.41 -198.23)"/><path class="cls-2" d="M519.1,262.74c3.13-.46,6.72-.26,9.3,1.81s3.21,5.46,2.89,8.62l.69-.28c-1.62-1.94-2.87-4.3-5.1-5.63-2.66-1.59-5.83-.86-8.75-.84a.4.4,0,0,0,0,.8c2.83,0,6-.78,8.5.83,2.07,1.3,3.25,3.57,4.78,5.4.25.3.65,0,.68-.28a10.93,10.93,0,0,0-1.81-7.83,9.61,9.61,0,0,0-6.41-3.46,17.39,17.39,0,0,0-5,.09c-.5.07-.29.84.22.77Z" transform="translate(-457.41 -198.23)"/><path class="cls-2" d="M502.22,246.52a14.45,14.45,0,0,0-8.2.84,8.6,8.6,0,0,0-4.63,5.39,13,13,0,0,0-.38,5c0,.31.44.57.69.28,1.53-1.83,2.71-4.1,4.77-5.4,2.55-1.61,5.68-.85,8.51-.83a.4.4,0,0,0,0-.8c-2.92,0-6.09-.75-8.75.84-2.23,1.33-3.48,3.69-5.1,5.63l.68.28c-.31-3.16.3-6.53,2.9-8.62s6.16-2.27,9.3-1.81c.5.07.72-.7.21-.77Z" transform="translate(-457.41 -198.23)"/><path class="cls-2" d="M504.28,254.76a14.45,14.45,0,0,0-8.2.84,8.6,8.6,0,0,0-4.63,5.39,13,13,0,0,0-.38,5c0,.31.44.58.69.28,1.53-1.83,2.71-4.1,4.78-5.4,2.54-1.61,5.67-.85,8.5-.83a.4.4,0,0,0,0-.8c-2.92,0-6.09-.75-8.75.84-2.23,1.33-3.48,3.69-5.1,5.63l.68.28c-.31-3.16.3-6.53,2.9-8.62s6.16-2.27,9.3-1.81c.5.07.72-.7.21-.77Z" transform="translate(-457.41 -198.23)"/><path class="cls-2" d="M507.37,262a14.45,14.45,0,0,0-8.2.84,8.6,8.6,0,0,0-4.63,5.39,13,13,0,0,0-.38,5c0,.31.44.58.69.28,1.53-1.83,2.71-4.1,4.78-5.4,2.54-1.61,5.67-.85,8.5-.83a.4.4,0,0,0,0-.8c-2.92,0-6.09-.75-8.75.84-2.23,1.33-3.48,3.69-5.1,5.63l.68.28c-.31-3.16.3-6.53,2.9-8.62s6.16-2.27,9.3-1.81c.5.07.72-.7.21-.77Z" transform="translate(-457.41 -198.23)"/><path class="cls-1" d="M518.75,224.59c3.44-5.5-3.6-7.38-3.26-1.2" transform="translate(-457.41 -198.23)"/><path class="cls-2" d="M519.1,224.79c.88-1.42,1.62-3.65.22-5a2.23,2.23,0,0,0-1.73-.63,2.47,2.47,0,0,0-1.77,1.07,5,5,0,0,0-.73,3.18.41.41,0,0,0,.4.4.41.41,0,0,0,.4-.4c0-.29,0-.57,0-.85l0-.33s0-.13,0,0v-.07l0-.2a4.5,4.5,0,0,1,.17-.6.69.69,0,0,1,.05-.13c0-.09,0,.08,0,0l0,0c0-.09.09-.17.14-.26a1,1,0,0,1,.12-.19l.07-.1c-.08.11,0,0,0,0s.1-.11.16-.16l.07-.07,0,0a2.67,2.67,0,0,1,.36-.22c.11-.05-.06,0,0,0l.08,0,.21,0,.09,0h.19s.17,0,.19,0h0l.1,0,.17.05.08,0c-.05,0-.07,0,0,0l0,0,.16.09.08.05,0,0c.07,0-.07-.07,0,0l.28.29c.06.06,0-.07,0,0l.06.08a2.12,2.12,0,0,1,.11.21l0,.1s0-.09,0,0,.05.15.07.23a2,2,0,0,1,0,.24s0,0,0,0,0-.09,0,0,0,.09,0,.14a3.22,3.22,0,0,1,0,.62s0,.12,0,0,0,.06,0,.09l0,.18a2.25,2.25,0,0,1-.09.35,6,6,0,0,1-.73,1.57c-.27.43.42.84.69.4Z" transform="translate(-457.41 -198.23)"/><path class="cls-1" d="M507.72,224.59c-3.44-5.5,3.6-7.38,3.26-1.2" transform="translate(-457.41 -198.23)"/><path class="cls-2" d="M508.06,224.39c-.15-.26-.3-.51-.43-.78l-.07-.16,0-.09c0,.06,0,0,0,0s-.1-.24-.14-.37a4.85,4.85,0,0,1-.16-.63l0-.15c0,.11,0,0,0-.07s0-.21,0-.31a1.93,1.93,0,0,1,0-.24s0-.09,0-.13,0,.1,0,0,0-.05,0-.07a3.45,3.45,0,0,1,.12-.46l0-.06s-.05.09,0,0l.05-.1a2,2,0,0,1,.11-.2l.06-.08c.06-.09,0,0,0,0l.15-.17.15-.13h0l.09-.06.16-.09.09,0-.05,0,.07,0,.17-.05.09,0h0c.07,0,0,0,0,0s.16,0,.19,0h.19l.1,0,.19,0,.09,0c.09,0-.08,0,0,0l.2.1.16.11c.05,0-.08-.07,0,0l0,0,.09.08c.06,0,.11.11.16.16l.08.09c-.07-.08,0,0,0,0a3.15,3.15,0,0,1,.28.51c0,.09,0-.08,0,0l0,.08a.84.84,0,0,1,.05.17,3,3,0,0,1,.1.32c0,.12,0,.24.07.36s0,.13,0,0a.41.41,0,0,1,0,.11,1.5,1.5,0,0,1,0,.22,5.64,5.64,0,0,1,0,.92.4.4,0,0,0,.8,0,5.27,5.27,0,0,0-.58-2.95,2.54,2.54,0,0,0-1.64-1.26,2.23,2.23,0,0,0-1.86.47,2.65,2.65,0,0,0-.92,1.85,5.47,5.47,0,0,0,1,3.29c.27.44,1,0,.69-.4Z" transform="translate(-457.41 -198.23)"/><path class="cls-1" d="M513.32,228.69c-5,.22-9.57-1.49-11.85,4.26-2.5,6.61.41,15.77,1.87,22.58,1.24,6.82-.35,22.69,10.18,21.51" transform="translate(-457.41 -198.23)"/><path class="cls-2" d="M513.32,228.29c-4,.14-8.81-1.07-11.37,2.84-3.05,4.65-1.86,11.34-.83,16.41.58,2.83,1.42,5.62,1.89,8.46.28,1.65.37,3.33.49,5,.28,3.69.51,7.57,1.86,11.06s4.2,5.78,8.16,5.39c.51-.05.52-.85,0-.8-8,.8-8.71-9.11-9.16-14.9-.12-1.55-.22-3.11-.4-4.66a51,51,0,0,0-1.18-5.75c-1.23-5.29-2.71-11.09-1.46-16.51.62-2.68,2-5.1,4.9-5.64,2.32-.44,4.75,0,7.1-.09.51,0,.51-.82,0-.8Z" transform="translate(-457.41 -198.23)"/><path class="cls-1" d="M513.17,228.69c5,.22,9.57-1.49,11.85,4.26,2.49,6.61-.42,15.77-1.87,22.58-1.25,6.82-.06,22.69-10.19,21.51" transform="translate(-457.41 -198.23)"/><path class="cls-2" d="M513.17,229.09c4.1.15,9-1.15,11.19,3.36,2.43,5,1,11.39-.11,16.5-.52,2.34-1.21,4.67-1.58,7-.23,1.44-.35,2.9-.47,4.36a48.07,48.07,0,0,1-1.64,10.4c-1.16,3.63-3.52,6.31-7.6,5.89-.51-.05-.5.75,0,.8,8.23.85,9.31-9.21,9.87-15.18.16-1.79.28-3.58.51-5.37.32-2.47,1-4.89,1.59-7.33,1.2-5.37,2.6-11.79.32-17.08a6.47,6.47,0,0,0-4.64-4c-2.43-.51-5-.05-7.44-.14-.51,0-.51.78,0,.8Z" transform="translate(-457.41 -198.23)"/><path class="cls-1" d="M500.33,236.09c1.37-6.35,3.19-11.8,10.12-12.88,6.36-1,10.48-.68,13.57,4.64.85,1.37,2.4,7,2.06,8.75,0,0-2.92.35-5.5.69-4.63.52-16,1-20.25-1.2" transform="translate(-457.41 -198.23)"/><path class="cls-2" d="M500.71,236.2c1.19-5.43,3-11.18,9.14-12.47,2.72-.57,5.92-.94,8.63-.14a9.09,9.09,0,0,1,5.5,5.07,22.49,22.49,0,0,1,1.2,3.84,10.7,10.7,0,0,1,.51,4l.39-.3c-4.14.49-8.23,1-12.4,1.12a63.05,63.05,0,0,1-7-.19,17.23,17.23,0,0,1-6.14-1.39c-.46-.23-.87.46-.4.69,3.8,1.9,8.76,1.76,12.89,1.7A124.14,124.14,0,0,0,526.08,237a.4.4,0,0,0,.38-.29c.38-2.39-.61-5.29-1.41-7.51a10.41,10.41,0,0,0-5-5.85c-2.64-1.29-5.71-1.07-8.54-.69-3.1.41-5.91,1.4-7.91,3.92s-3,6.14-3.67,9.4c-.11.5.66.72.77.22Z" transform="translate(-457.41 -198.23)"/><path class="cls-2" d="M501.37,246.27h23.51a.4.4,0,0,0,0-.8H501.37a.4.4,0,0,0,0,.8Z" transform="translate(-457.41 -198.23)"/><path class="cls-2" d="M503.6,255c6.38.83,12.81.18,19.22.17a.4.4,0,0,0,0-.8c-6.41,0-12.84.66-19.22-.17-.51-.07-.51.73,0,.8Z" transform="translate(-457.41 -198.23)"/><path class="cls-2" d="M504.11,263.1c5.88,0,12,1.95,17.79,0,.48-.16.28-.94-.21-.77-5.67,1.94-11.78,0-17.58,0a.4.4,0,0,0,0,.8Z" transform="translate(-457.41 -198.23)"/><path class="cls-2" d="M504.94,270.42a19.64,19.64,0,0,0,8.18,1.63,20.42,20.42,0,0,0,8.19-1.45c.47-.21.06-.9-.41-.69a19.46,19.46,0,0,1-7.78,1.34,18.72,18.72,0,0,1-7.78-1.52c-.46-.21-.87.48-.4.69Z" transform="translate(-457.41 -198.23)"/><path class="cls-3" d="M472.33,234.8a48.68,48.68,0,0,0-.67,5.39,20.8,20.8,0,0,0-3.58.6c1,.6,3.42.77,3.5,1.08.17.64.6,3.81,1.14,5.43.39-2,.63-3.69.88-5.47,0-.19,2.44-.54,3.43-1.08a12.82,12.82,0,0,0-3.68-.56,40.66,40.66,0,0,0-1-5.39" transform="translate(-457.41 -198.23)"/><path class="cls-3" d="M550.21,269.86a43.4,43.4,0,0,0-.57,4.58,17.22,17.22,0,0,0-3,.51c.87.51,2.91.65,3,.92.14.54.5,3.24,1,4.61.33-1.73.54-3.13.75-4.65,0-.16,2.08-.46,2.92-.92a11.22,11.22,0,0,0-3.13-.47,34,34,0,0,0-.87-4.58" transform="translate(-457.41 -198.23)"/><path class="cls-3" d="M517.57,198.23a35.63,35.63,0,0,0-.49,3.89,15.27,15.27,0,0,0-2.58.43c.74.44,2.47.56,2.53.78.12.47.43,2.76.82,3.93.28-1.48.45-2.67.64-4,0-.13,1.76-.38,2.48-.78a9.54,9.54,0,0,0-2.66-.4,30.19,30.19,0,0,0-.74-3.89" transform="translate(-457.41 -198.23)"/><path class="cls-4" d="M555.65,236.26a2.06,2.06,0,1,0,.15,4.11,2.06,2.06,0,0,0-.15-4.11" transform="translate(-457.41 -198.23)"/><path class="cls-4" d="M527.75,295.56a1.54,1.54,0,1,0,.11,3.08,1.54,1.54,0,0,0-.11-3.08" transform="translate(-457.41 -198.23)"/><path class="cls-4" d="M462.32,260.29a1.55,1.55,0,1,0,.11,3.09,1.55,1.55,0,0,0-.11-3.09" transform="translate(-457.41 -198.23)"/><path class="cls-4" d="M474,218.5a1,1,0,1,0,.07,2.06,1,1,0,0,0-.07-2.06" transform="translate(-457.41 -198.23)"/><path class="cls-4" d="M559.92,262.09a1,1,0,1,0,.08,2.06,1,1,0,0,0-.08-2.06" transform="translate(-457.41 -198.23)"/><path class="cls-4" d="M490.64,297.62a1,1,0,1,0,.07,2.06,1,1,0,0,0-.07-2.06" transform="translate(-457.41 -198.23)"/><path class="cls-2" d="M551.32,219.66a1.25,1.25,0,0,0,0-2.5,1.25,1.25,0,0,0,0,2.5Z" transform="translate(-457.41 -198.23)"/><path class="cls-2" d="M458.62,246.06a1.25,1.25,0,0,0,0-2.5,1.25,1.25,0,0,0,0,2.5Z" transform="translate(-457.41 -198.23)"/><path class="cls-2" d="M533.29,284.43a1,1,0,0,0,0-2,1,1,0,0,0,0,2Z" transform="translate(-457.41 -198.23)"/><path class="cls-2" d="M481.79,253.53a1,1,0,0,0,0-2,1,1,0,0,0,0,2Z" transform="translate(-457.41 -198.23)"/><path class="cls-2" d="M547.46,254.17a1,1,0,0,0,0-2,1,1,0,0,0,0,2Z" transform="translate(-457.41 -198.23)"/><path class="cls-2" d="M467.63,280.57a1,1,0,0,0,0-2,1,1,0,0,0,0,2Z" transform="translate(-457.41 -198.23)"/><path class="cls-2" d="M503,201.14a.75.75,0,0,0,0-1.5.75.75,0,0,0,0,1.5Z" transform="translate(-457.41 -198.23)"/><path class="cls-2" d="M543.59,289.33a.75.75,0,0,0,0-1.5.75.75,0,0,0,0,1.5Z" transform="translate(-457.41 -198.23)"/><path class="cls-2" d="M461.84,230.1a.75.75,0,0,0,0-1.5.75.75,0,0,0,0,1.5Z" transform="translate(-457.41 -198.23)"/><path class="cls-2" d="M541.66,243a.75.75,0,0,0,0-1.5.75.75,0,0,0,0,1.5Z" transform="translate(-457.41 -198.23)"/><path class="cls-2" d="M563.55,248.77a.75.75,0,0,0,0-1.5.75.75,0,0,0,0,1.5Z" transform="translate(-457.41 -198.23)"/><path class="cls-2" d="M511.41,302.21a.75.75,0,0,0,0-1.5.75.75,0,0,0,0,1.5Z" transform="translate(-457.41 -198.23)"/></g></svg>