<svg xmlns="http://www.w3.org/2000/svg" viewBox="0 0 103.71 106.29"><defs><style>.cls-1{fill:#ff7e00;}.cls-2{fill:#e9e3ff;}.cls-3{fill:#ffe1d7;}.cls-4{fill:#fff;}</style></defs><g id="OBJECTS"><path class="cls-1" d="M215.37,86.06c-11.12-2.78-17.52-12.24-15.85-23.64-8.5,6.21-9.18,13.63-8.34,20.58,1.11,9.73,9.73,13.9,18.91,13.9" transform="translate(-177.22 -48.75)"/><path class="cls-2" d="M215.48,85.67A21.1,21.1,0,0,1,203,77.27a21,21,0,0,1-3.09-14.74c0-.3-.27-.69-.59-.46a21.68,21.68,0,0,0-7.24,8.62,21.36,21.36,0,0,0-1.55,9.22,19.13,19.13,0,0,0,2.24,9.24,15.4,15.4,0,0,0,6.65,5.93,25,25,0,0,0,10.67,2.22.4.4,0,0,0,0-.8c-5.88,0-12.34-1.74-16-6.73a16.17,16.17,0,0,1-2.73-8.62,22.36,22.36,0,0,1,.84-8.61,20.07,20.07,0,0,1,7.48-9.78l-.58-.45a21.87,21.87,0,0,0,3.16,15.36,22,22,0,0,0,13,8.77.4.4,0,0,0,.21-.77Z" transform="translate(-177.22 -48.75)"/><path class="cls-2" d="M201.18,74.92c-2.93.41-5.46,2.25-7.59,4.18-.39.35.18.91.56.57,2-1.85,4.44-3.58,7.24-4,.51-.07.29-.84-.21-.77Z" transform="translate(-177.22 -48.75)"/><path class="cls-2" d="M202.38,77A38.86,38.86,0,0,0,197,80.34c-.42.28,0,1,.41.69a38.17,38.17,0,0,1,5.37-3.34c.47-.21.06-.9-.4-.69Z" transform="translate(-177.22 -48.75)"/><path class="cls-2" d="M203.68,79.59a53.74,53.74,0,0,0-5.46,4.15c-.39.34.18.9.57.56a50.35,50.35,0,0,1,5.29-4c.43-.29,0-1-.4-.7Z" transform="translate(-177.22 -48.75)"/><path class="cls-1" d="M243.72,86.06c11.13-2.78,17.52-12.24,15.85-23.64,8.5,6.21,9.18,13.63,8.35,20.58-1.11,9.73-9.74,13.9-18.91,13.9" transform="translate(-177.22 -48.75)"/><path class="cls-2" d="M243.83,86.44a21.94,21.94,0,0,0,13-8.77A21.92,21.92,0,0,0,260,62.31l-.59.45a20.55,20.55,0,0,1,7,8.55,20.65,20.65,0,0,1,1.36,8.6,18.47,18.47,0,0,1-2.13,8.84,14.64,14.64,0,0,1-6.37,5.64A24,24,0,0,1,249,96.5a.4.4,0,0,0,0,.8c6.17,0,12.88-1.88,16.65-7.12a17.23,17.23,0,0,0,2.84-9,22.7,22.7,0,0,0-1.08-9.44,21.33,21.33,0,0,0-7.64-9.64c-.32-.23-.63.16-.59.46a21.11,21.11,0,0,1-3.09,14.74,21.1,21.1,0,0,1-12.48,8.4.4.4,0,0,0,.21.77Z" transform="translate(-177.22 -48.75)"/><path class="cls-2" d="M257.71,75.69c2.79.4,5.19,2.13,7.23,4,.39.34.95-.22.57-.57-2.14-1.93-4.67-3.77-7.59-4.18-.5-.07-.72.7-.21.77Z" transform="translate(-177.22 -48.75)"/><path class="cls-2" d="M256.31,77.69A38.86,38.86,0,0,1,261.69,81c.43.28.83-.41.4-.69A38.17,38.17,0,0,0,256.72,77a.4.4,0,0,0-.41.69Z" transform="translate(-177.22 -48.75)"/><path class="cls-2" d="M255,80.29a51.54,51.54,0,0,1,5.3,4c.39.34,1-.22.57-.56a54.88,54.88,0,0,0-5.46-4.15c-.43-.28-.83.41-.41.7Z" transform="translate(-177.22 -48.75)"/><path class="cls-1" d="M212,97.74c-2.51-12.79-20.58-10-28.37-5.84,5,7.79,11.87,13.62,27,8.34" transform="translate(-177.22 -48.75)"/><path class="cls-2" d="M212.42,97.63C210.3,87.38,198.36,87,190.11,89.06a30.71,30.71,0,0,0-6.64,2.49.41.41,0,0,0-.15.55c2.49,3.84,5.58,7.43,9.89,9.24,5.64,2.36,12,1.21,17.54-.71.49-.17.28-.94-.21-.78-5.41,1.87-11.54,3.05-17,.75-4.14-1.73-7.12-5.21-9.5-8.9l-.15.54c8.26-4.37,25.25-6.65,27.78,5.61.1.5.88.29.77-.22Z" transform="translate(-177.22 -48.75)"/><path class="cls-2" d="M203.89,96.84a35,35,0,0,0-13.73-3c-.52,0-.51.77,0,.8a34.32,34.32,0,0,1,13.33,2.91c.46.22.87-.47.4-.69Z" transform="translate(-177.22 -48.75)"/><path class="cls-1" d="M247.06,97.74c2.5-12.79,20.58-10,28.37-5.84-5,7.79-11.87,13.62-27,8.34" transform="translate(-177.22 -48.75)"/><path class="cls-2" d="M247.45,97.85c2.53-12.26,19.51-10,27.77-5.61l-.14-.54c-2.39,3.69-5.36,7.17-9.51,8.9-5.47,2.3-11.6,1.12-17-.75-.49-.16-.7.61-.22.78,5.59,1.92,11.9,3.07,17.54.71,4.31-1.81,7.41-5.4,9.89-9.24a.4.4,0,0,0-.14-.55A32.41,32.41,0,0,0,263,88.08c-4.32-.31-9.17.21-12.62,3.08a11.22,11.22,0,0,0-3.7,6.47c-.1.5.67.72.78.22Z" transform="translate(-177.22 -48.75)"/><path class="cls-2" d="M255.61,97.53a34.32,34.32,0,0,1,13.33-2.91c.51,0,.51-.83,0-.8a35.13,35.13,0,0,0-13.74,3c-.46.22-.06.91.41.69Z" transform="translate(-177.22 -48.75)"/><path class="cls-1" d="M229.85,146.41c8,0,9.27-2.23,10.87-10.57,1.6-7.79,9.59-8.9,12.78-16.13,3.2-6.95,3.2-20.86.27-28.09-3.46-8.62-16.24-9.46-24-9.46h-.52c-7.72,0-20.5.84-24,9.46-2.93,7.23-2.93,21.14.26,28.09,3.2,7.23,11.19,8.34,12.78,16.13,1.6,8.34,2.88,10.57,10.87,10.57" transform="translate(-177.22 -48.75)"/><path class="cls-2" d="M229.85,146.81c2.48,0,5.34-.09,7.41-1.65,1.83-1.39,2.59-3.72,3.13-5.86a44.24,44.24,0,0,1,1.24-5.14,12.53,12.53,0,0,1,3-4.43c2.33-2.29,5.14-4,7.2-6.62,4.28-5.32,4.69-13.37,4.42-19.9-.26-6.29-1.19-13.57-6.85-17.34-5.19-3.44-12-4-18.08-4.09s-12.17.06-17.79,2.15a15.5,15.5,0,0,0-7.17,5c-1.89,2.53-2.61,5.84-3.08,8.91a50.82,50.82,0,0,0-.43,11.23,33.17,33.17,0,0,0,2,10,19.39,19.39,0,0,0,6,7.63c2.57,2.14,5.35,4.23,6.58,7.47,1.1,2.88,1.07,6.08,2.57,8.84a6.81,6.81,0,0,0,4.82,3.45,22.14,22.14,0,0,0,4.38.36.4.4,0,0,0,0-.8c-2.42,0-5.37,0-7.28-1.78s-2.37-4.49-2.86-6.8c-.66-3.1-1.54-5.64-3.79-8s-4.74-3.83-6.8-6.09c-4.61-5-5.11-13-4.93-19.45.18-6.27.95-13.85,6.72-17.53,5.1-3.25,11.68-3.75,17.57-3.84,5.64-.08,11.49.08,16.87,1.93a14.89,14.89,0,0,1,7.43,5c1.8,2.51,2.45,5.83,2.88,8.83a49.71,49.71,0,0,1,.33,11,30.84,30.84,0,0,1-2.11,9.86c-1.31,3-3.61,5.19-6.1,7.25-2.26,1.87-4.6,3.76-5.9,6.46-2.11,4.37-1.07,11.27-7,12.65a19.78,19.78,0,0,1-4.41.39.4.4,0,0,0,0,.8Z" transform="translate(-177.22 -48.75)"/><path class="cls-2" d="M208.68,111.25a10.93,10.93,0,0,0,10.42.55c.46-.22.05-.91-.41-.69a10.08,10.08,0,0,1-9.6-.55c-.44-.29-.84.41-.41.69Z" transform="translate(-177.22 -48.75)"/><path class="cls-2" d="M220.77,104.24a44.66,44.66,0,0,1,4,13.23,83.12,83.12,0,0,1,1.12,13.64.4.4,0,0,0,.8,0,84.59,84.59,0,0,0-1.15-13.85,45.66,45.66,0,0,0-4.09-13.42c-.24-.46-.93,0-.7.4Z" transform="translate(-177.22 -48.75)"/><path class="cls-2" d="M250,110.56a10.1,10.1,0,0,1-9.61.55c-.46-.22-.86.47-.4.69a10.91,10.91,0,0,0,10.41-.55c.43-.28,0-1-.4-.69Z" transform="translate(-177.22 -48.75)"/><path class="cls-2" d="M237.63,103.84a45.68,45.68,0,0,0-4.1,13.42,85.71,85.71,0,0,0-1.15,13.85.4.4,0,0,0,.8,0,83.13,83.13,0,0,1,1.13-13.64,44.93,44.93,0,0,1,4-13.23c.24-.45-.45-.86-.69-.4Z" transform="translate(-177.22 -48.75)"/><path class="cls-1" d="M210.32,102.15a12.47,12.47,0,0,0,15.79,1.37" transform="translate(-177.22 -48.75)"/><path class="cls-2" d="M210,102.43a13,13,0,0,0,16.28,1.44c.42-.29,0-1-.41-.69a12.21,12.21,0,0,1-15.31-1.31c-.37-.35-.94.21-.56.56Z" transform="translate(-177.22 -48.75)"/><path class="cls-1" d="M248.77,102.15A12.47,12.47,0,0,1,233,103.52" transform="translate(-177.22 -48.75)"/><path class="cls-2" d="M248.49,101.87a12.21,12.21,0,0,1-15.31,1.31c-.42-.3-.82.4-.4.69a13,13,0,0,0,16.28-1.44c.37-.35-.19-.92-.57-.56Z" transform="translate(-177.22 -48.75)"/><path class="cls-1" d="M230.71,130.29c-5.15,0-11.31-.21-12.88,5-2.46,8.24,3.89,11.61,11.72,11.72,16.64.23,15.65-16.76,1.16-16.74" transform="translate(-177.22 -48.75)"/><path class="cls-2" d="M230.71,129.89c-2.81,0-5.75-.12-8.47.73a7,7,0,0,0-5,5.3,8.65,8.65,0,0,0,1,7.14,10.29,10.29,0,0,0,5.85,3.66c4.68,1.27,10.84,1.22,14.87-1.82a7.67,7.67,0,0,0,2.83-8.72c-1.65-4.5-6.62-6.27-11-6.29a.4.4,0,0,0,0,.8c3.7,0,7.81,1.23,9.77,4.63a6.72,6.72,0,0,1-1,8.07c-3.14,3.25-8.37,3.58-12.58,3.06a13.13,13.13,0,0,1-6.61-2.4,6.83,6.83,0,0,1-2.55-5.82,8.88,8.88,0,0,1,1.26-4.41,6.1,6.1,0,0,1,3.21-2.34c2.72-.93,5.71-.79,8.54-.79a.4.4,0,0,0,0-.8Z" transform="translate(-177.22 -48.75)"/><path class="cls-2" d="M228.14,138.7a6.85,6.85,0,0,0-2.44-2.49,2.07,2.07,0,0,0-2.67.12,3.27,3.27,0,0,0-.64,1.79,4.17,4.17,0,0,0,.18,1.92,1.68,1.68,0,0,0,1,1,2.32,2.32,0,0,0,1.33.06,7.85,7.85,0,0,0,3.22-1.74.4.4,0,1,0-.57-.57,8,8,0,0,1-2.37,1.4,2.25,2.25,0,0,1-1.08.17H224l-.12,0-.1,0c-.06,0,.05,0,0,0l-.06,0a.74.74,0,0,1-.29-.26,1.5,1.5,0,0,1-.21-.52,3.21,3.21,0,0,1-.07-.76,3.56,3.56,0,0,1,.31-1.64,1.87,1.87,0,0,1,.14-.21l.08-.09.06,0s0,0,0,0l.11-.07.06,0,.12,0s.13,0,.06,0a1.8,1.8,0,0,1,1,.24,6,6,0,0,1,2.31,2.28.4.4,0,0,0,.69-.4Z" transform="translate(-177.22 -48.75)"/><path class="cls-2" d="M231.65,139.1a6.22,6.22,0,0,1,2-2.11,4,4,0,0,1,.54-.28l.27-.09.15,0c.08,0,0,0,.09,0a1.22,1.22,0,0,1,.27,0h0l.14,0,.06,0,.11.07a.76.76,0,0,1,.17.16,1.73,1.73,0,0,1,.25.49,3.2,3.2,0,0,1,.17.86,3.38,3.38,0,0,1-.14,1.58,1.16,1.16,0,0,1-.24.34c-.05.06,0,0-.14.11l-.08,0-.08,0-.12,0h-.34a2,2,0,0,1-.51-.09,7.32,7.32,0,0,1-2.68-1.49.4.4,0,0,0-.56.57,8.67,8.67,0,0,0,2.87,1.65,2.06,2.06,0,0,0,2.47-.63,3.09,3.09,0,0,0,.37-1.69,4.15,4.15,0,0,0-.43-2,1.68,1.68,0,0,0-1.1-.86,2.46,2.46,0,0,0-1.46.23A6.49,6.49,0,0,0,231,138.7c-.27.44.42.84.69.4Z" transform="translate(-177.22 -48.75)"/><path class="cls-3" d="M190.68,113.6A50.54,50.54,0,0,0,190,119a19.55,19.55,0,0,0-3.57.6c1,.6,3.42.76,3.5,1.08.16.64.59,3.81,1.13,5.43.39-2,.63-3.69.88-5.47,0-.19,2.44-.54,3.43-1.08a12.81,12.81,0,0,0-3.67-.56,41,41,0,0,0-1-5.39" transform="translate(-177.22 -48.75)"/><path class="cls-3" d="M271.36,109a41.24,41.24,0,0,0-.58,4.58,17,17,0,0,0-3,.51c.87.51,2.91.65,3,.92.14.55.51,3.24,1,4.62.33-1.73.53-3.14.75-4.65,0-.16,2.07-.46,2.91-.92a10.84,10.84,0,0,0-3.12-.48,35.7,35.7,0,0,0-.87-4.58" transform="translate(-177.22 -48.75)"/><path class="cls-3" d="M236.5,57.9a38.83,38.83,0,0,0-.49,3.9,14.16,14.16,0,0,0-2.58.43c.74.44,2.47.55,2.53.78.12.47.43,2.76.82,3.93.28-1.48.46-2.67.64-4,0-.13,1.76-.39,2.48-.78a9.49,9.49,0,0,0-2.66-.4,28.8,28.8,0,0,0-.74-3.9" transform="translate(-177.22 -48.75)"/><path class="cls-4" d="M255.91,140.84a2.06,2.06,0,1,0,.14,4.12,2.06,2.06,0,0,0-.14-4.12" transform="translate(-177.22 -48.75)"/><path class="cls-4" d="M209.06,60.87a1.55,1.55,0,1,0,.11,3.09,1.55,1.55,0,0,0-.11-3.09" transform="translate(-177.22 -48.75)"/><path class="cls-4" d="M202.56,136.93a1.55,1.55,0,1,0,.11,3.09,1.55,1.55,0,0,0-.11-3.09" transform="translate(-177.22 -48.75)"/><path class="cls-4" d="M279.89,102.49a1,1,0,1,0,.07,2.06,1,1,0,0,0-.07-2.06" transform="translate(-177.22 -48.75)"/><path class="cls-4" d="M250.33,54.46a1,1,0,1,0,.07,2.06,1,1,0,0,0-.07-2.06" transform="translate(-177.22 -48.75)"/><path class="cls-4" d="M232,74.28a1,1,0,1,0,.07,2,1,1,0,0,0-.07-2" transform="translate(-177.22 -48.75)"/><path class="cls-2" d="M271.29,135.33a1.25,1.25,0,0,0,0-2.5,1.25,1.25,0,0,0,0,2.5Z" transform="translate(-177.22 -48.75)"/><path class="cls-2" d="M179.23,103.14a1.25,1.25,0,0,0,0-2.5,1.25,1.25,0,0,0,0,2.5Z" transform="translate(-177.22 -48.75)"/><path class="cls-2" d="M223.65,50.75a1,1,0,0,0,0-2,1,1,0,0,0,0,2Z" transform="translate(-177.22 -48.75)"/><path class="cls-2" d="M229.44,155a1,1,0,0,0,0-2,1,1,0,0,0,0,2Z" transform="translate(-177.22 -48.75)"/><path class="cls-2" d="M190.82,135.72a1,1,0,0,0,0-2,1,1,0,0,0,0,2Z" transform="translate(-177.22 -48.75)"/><path class="cls-2" d="M217.21,73.92a1,1,0,0,0,0-2,1,1,0,0,0,0,2Z" transform="translate(-177.22 -48.75)"/><path class="cls-2" d="M277.73,78.82a.75.75,0,0,0,0-1.5.75.75,0,0,0,0,1.5Z" transform="translate(-177.22 -48.75)"/><path class="cls-2" d="M178,115.52a.75.75,0,0,0,0-1.5.75.75,0,0,0,0,1.5Z" transform="translate(-177.22 -48.75)"/><path class="cls-2" d="M260.34,126.46a.75.75,0,0,0,0-1.5.75.75,0,0,0,0,1.5Z" transform="translate(-177.22 -48.75)"/><path class="cls-2" d="M211.42,150.92a.75.75,0,0,0,0-1.5.75.75,0,0,0,0,1.5Z" transform="translate(-177.22 -48.75)"/><path class="cls-2" d="M246.18,153.5a.75.75,0,0,0,0-1.5.75.75,0,0,0,0,1.5Z" transform="translate(-177.22 -48.75)"/><path class="cls-2" d="M248.11,73a.75.75,0,0,0,0-1.5.75.75,0,0,0,0,1.5Z" transform="translate(-177.22 -48.75)"/></g></svg>