<svg xmlns="http://www.w3.org/2000/svg" viewBox="0 0 105.74 103.4"><defs><style>.cls-1{fill:#ff7e00;}.cls-2{fill:#e9e3ff;}</style></defs><g id="OBJECTS"><path class="cls-1" d="M369,394.73c2.41,5.26,5.07,11.9,11.84,11.49,6.27,0,10.51-8,6.34-13.45" transform="translate(-315.63 -345.91)"/><path class="cls-2" d="M368.68,394.93c1.93,4.23,4,9.66,8.84,11.28a8.91,8.91,0,0,0,11.33-5.84,8.7,8.7,0,0,0-1.3-7.8c-.3-.41-1,0-.69.4a8.06,8.06,0,0,1-8.92,12.53,9.84,9.84,0,0,1-5.08-4.18,45.81,45.81,0,0,1-3.49-6.79c-.22-.47-.91-.06-.69.4Z" transform="translate(-315.63 -345.91)"/><path class="cls-1" d="M373.42,394.41c1.5,3.26,3.15,7.38,7.35,7.13a5.25,5.25,0,0,0,3.93-8.34" transform="translate(-315.63 -345.91)"/><path class="cls-2" d="M373.08,394.61c1.22,2.67,2.54,6,5.57,7.06a5.67,5.67,0,0,0,7.21-3.72A5.51,5.51,0,0,0,385,393c-.3-.41-1,0-.69.4a4.84,4.84,0,0,1-5.35,7.54,5.92,5.92,0,0,1-3.06-2.52,28.87,28.87,0,0,1-2.17-4.21c-.21-.47-.9-.06-.69.4Z" transform="translate(-315.63 -345.91)"/><path class="cls-1" d="M361.26,381.75c-3.13-4.87-7.27-10.7-3.26-16.18,3.41-5.26,12.36-4.53,14.74,1.95" transform="translate(-315.63 -345.91)"/><path class="cls-2" d="M361.6,381.55c-2.81-4.38-6.93-10.08-3.6-15.28a7.77,7.77,0,0,1,4.52-3.49,8.61,8.61,0,0,1,5.24.25,7.85,7.85,0,0,1,4.59,4.59c.18.48,1,.27.77-.21a8.88,8.88,0,0,0-17,5.1c.72,3.48,2.87,6.51,4.75,9.44.28.43,1,0,.69-.4Z" transform="translate(-315.63 -345.91)"/><path class="cls-1" d="M363.91,378.22c-1.94-3-4.51-6.63-2-10a5.25,5.25,0,0,1,9.14,1.2" transform="translate(-315.63 -345.91)"/><path class="cls-2" d="M364.25,378c-1.71-2.66-4.26-6.16-2.23-9.32a4.61,4.61,0,0,1,2.71-2.09,5.13,5.13,0,0,1,3.17.15,4.69,4.69,0,0,1,2.74,2.74c.18.48.95.27.77-.21a5.66,5.66,0,0,0-10.81,3.24c.45,2.17,1.78,4.06,3,5.89.28.43,1,0,.69-.4Z" transform="translate(-315.63 -345.91)"/><path class="cls-1" d="M363.36,401.47c8-8.42,12.92-7.42,19-7.13s12.85,1.92,19.05-2.37a23.81,23.81,0,0,0,9.94-14.54c1.09-5.53-3.92-15.79-9-19.51-12.12-8.66-21.59-4.15-29.21,6.6-6.28,8-9.13,17.56-20.94,18.59" transform="translate(-315.63 -345.91)"/><path class="cls-2" d="M363.64,401.75c3.41-3.55,7.4-6.7,12.46-7.13,4.31-.37,8.69.39,13,.61a23.51,23.51,0,0,0,8.14-.77,19.1,19.1,0,0,0,7.07-4.22c3.73-3.34,6.88-8.16,7.56-13.2.57-4.2-1.36-8.74-3.36-12.32a22.64,22.64,0,0,0-10.2-9.75,17.06,17.06,0,0,0-12.85-1.23c-4.42,1.46-8,4.73-10.85,8.29-3.27,4.07-5.83,8.63-9,12.78-3.38,4.45-7.68,7.36-13.34,7.9-.5.05-.51.85,0,.8a18.15,18.15,0,0,0,11.18-5c3-2.9,5.11-6.55,7.41-10,5-7.43,11.92-16.31,22-14.5a21,21,0,0,1,12.65,7.66c2.81,3.68,5.18,8.42,5.56,13.1.4,4.93-2.66,10.06-5.93,13.51a19.85,19.85,0,0,1-7.36,5.15,21.18,21.18,0,0,1-8.33,1c-4.62-.19-9.38-1.12-14-.56-5,.6-9,3.75-12.4,7.3-.36.37.21.93.56.56Z" transform="translate(-315.63 -345.91)"/><path class="cls-1" d="M366.73,398.38c-1.29-6.17-6.11-12.14-9.06-16" transform="translate(-315.63 -345.91)"/><path class="cls-2" d="M367.12,398.28c-1.34-6.15-5.4-11.24-9.11-16.14-.31-.41-1,0-.69.4,3.67,4.85,7.7,9.88,9,15.95.11.5.88.29.77-.21Z" transform="translate(-315.63 -345.91)"/><path class="cls-1" d="M375.07,394.53c-1.2-6.45-6.25-12.86-10.09-17.93" transform="translate(-315.63 -345.91)"/><path class="cls-2" d="M375.45,394.43c-1.33-6.86-6-12.6-10.13-18-.3-.41-1,0-.69.4,4.07,5.38,8.73,11.05,10.05,17.84.1.5.87.29.77-.21Z" transform="translate(-315.63 -345.91)"/><path class="cls-1" d="M363.17,389.62a26.31,26.31,0,0,1,7.62-4.53" transform="translate(-315.63 -345.91)"/><path class="cls-2" d="M363.46,389.91a23.73,23.73,0,0,1,7.43-4.43c.47-.2.27-1-.21-.77a24.8,24.8,0,0,0-7.79,4.63c-.37.36.19.92.57.57Z" transform="translate(-315.63 -345.91)"/><path class="cls-1" d="M365.64,393.69a15.91,15.91,0,0,1,7.32-4.11" transform="translate(-315.63 -345.91)"/><path class="cls-2" d="M365.92,394a12.48,12.48,0,0,1,3.35-2.5,14.69,14.69,0,0,1,3.8-1.5c.5-.11.29-.88-.22-.77a15.59,15.59,0,0,0-4,1.58,13.29,13.29,0,0,0-3.51,2.63c-.34.38.23.95.57.56Z" transform="translate(-315.63 -345.91)"/><path class="cls-1" d="M360.29,385.27c2.54-1.52,5.27-2.77,7.58-4.31" transform="translate(-315.63 -345.91)"/><path class="cls-2" d="M360.49,385.61c2.5-1.48,5.16-2.69,7.58-4.3.43-.29,0-1-.4-.69-2.43,1.61-5.09,2.82-7.58,4.3a.4.4,0,0,0,.4.69Z" transform="translate(-315.63 -345.91)"/><path class="cls-1" d="M361.86,387.35c2.21-1.68,4.25-2.36,7.09-4.14" transform="translate(-315.63 -345.91)"/><path class="cls-2" d="M362.06,387.69c2.2-1.65,4.78-2.69,7.1-4.14.43-.27,0-1-.41-.69-2.32,1.45-4.9,2.49-7.09,4.14-.41.31,0,1,.4.69Z" transform="translate(-315.63 -345.91)"/><path class="cls-1" d="M359.27,383.38c3.05-2.18,4.39-3.12,6.57-4.56" transform="translate(-315.63 -345.91)"/><path class="cls-2" d="M359.47,383.72c2.17-1.54,4.35-3.09,6.57-4.56.43-.28,0-1-.4-.69-2.23,1.47-4.4,3-6.57,4.56-.42.3,0,1,.4.69Z" transform="translate(-315.63 -345.91)"/><path class="cls-1" d="M364.39,391.77c2.18-2.26,4.72-2.95,7.48-4.43" transform="translate(-315.63 -345.91)"/><path class="cls-2" d="M364.67,392.05c2.06-2.11,4.86-3,7.41-4.37.45-.24.05-.93-.41-.69-2.61,1.39-5.45,2.33-7.56,4.5-.36.37.2.93.56.56Z" transform="translate(-315.63 -345.91)"/><path class="cls-1" d="M366.53,395.68c2.08-1.58,4.84-3.87,7.61-3.72" transform="translate(-315.63 -345.91)"/><path class="cls-2" d="M366.73,396c2.12-1.61,4.57-3.78,7.41-3.66.52,0,.52-.78,0-.8-3-.13-5.56,2.07-7.82,3.77-.4.31,0,1,.41.69Z" transform="translate(-315.63 -345.91)"/><path class="cls-1" d="M393.56,394.65c2.13-6.11-3.23-15.35-5.89-20.49a61,61,0,0,0-10.17-14" transform="translate(-315.63 -345.91)"/><path class="cls-2" d="M394,394.76c1.86-5.69-1.48-12.18-4-17.13-3.27-6.41-7-12.63-12.14-17.74-.37-.36-.94.21-.57.57,4.93,4.9,8.54,10.84,11.72,17a54.93,54.93,0,0,1,3.69,8.43c.89,2.78,1.48,5.83.55,8.67-.16.5.61.71.77.22Z" transform="translate(-315.63 -345.91)"/><path class="cls-1" d="M401.25,392.11c.72-7.7-3.75-16.59-7.79-22.74-3.29-4.88-6.31-9.95-10.79-13.72" transform="translate(-315.63 -345.91)"/><path class="cls-2" d="M401.65,392.11c.57-6.92-2.42-13.79-5.82-19.65-1.79-3.09-3.81-6.07-5.85-9a42,42,0,0,0-7-8.09c-.39-.33-1,.23-.56.57a41.76,41.76,0,0,1,7,8.1c1.91,2.77,3.83,5.57,5.53,8.47,3.43,5.84,6.48,12.67,5.91,19.6,0,.51.76.51.8,0Z" transform="translate(-315.63 -345.91)"/><path class="cls-1" d="M396.27,393c-.08-1,2.8-2.23,2.66-3.16s-3.25-1.36-3.45-2.28,2.48-2.57,2.23-3.48-3.4-.93-3.71-1.82,2.15-2.86,1.79-3.73-3.49-.53-3.9-1.39,1.83-3.06,1.38-3.89-3.53-.18-4-1,1.54-3.21,1-4-3.54.11-4.08-.66,1.29-3.32.72-4.07-3.53.35-4.12-.38,1.09-3.39.48-4.11-3.51.53-4.13-.17" transform="translate(-315.63 -345.91)"/><path class="cls-2" d="M396.67,393c.1-1.27,4.2-2.46,2.07-4-.6-.44-2.79-.81-2.85-1.63,0-.43.92-1.15,1.2-1.46a4.34,4.34,0,0,0,.91-1.18c1-2.27-3.78-1.43-3.54-2.94.2-1.24,3.3-3.28.73-4.09-.71-.23-3-.12-2.87-1.13s1.37-1.81,1.4-2.94c.08-2.18-4.35-.43-4.07-2.05.23-1.32,2.39-3.79-.21-4.05a14.6,14.6,0,0,0-1.75,0c-.87,0-1.33-.13-1-1.11.26-.82,1-1.9.72-2.79s-1.48-.81-2.25-.74c-.49,0-1.83.4-2.07-.23-.18-.47.39-1.54.52-2,.22-.75.48-1.78-.42-2.15a3.09,3.09,0,0,0-1.54,0c-.53.07-1.73.49-2.2.11s-1,.24-.57.57a2.88,2.88,0,0,0,2.32.19c.56-.08,1.69-.44,1.82.32a4.86,4.86,0,0,1-.47,1.71c-.2.64-.53,1.62.1,2.15s2,.2,2.79.15,1.26-.09,1.12.76a14.61,14.61,0,0,1-.65,1.78c-.2.65-.39,1.44.28,1.88s2,.17,2.9.2c.36,0,.61,0,.78.31s0,.57-.15.87c-.23.55-.54,1.08-.74,1.65-.81,2.36,1.88,1.75,3.28,2.09.9.23.59.76.22,1.41-.27.49-.59.95-.81,1.46-.28.69-.31,1.32.39,1.72.88.51,2.07.18,2.94.65.68.37.19.9-.17,1.4a9.29,9.29,0,0,0-1,1.52c-1,2.19,2.32,1.74,3.28,2.6s-3.74,3-1.17,4.55a18.2,18.2,0,0,0,1.75.77c.84.39,1,.74.24,1.4s-1.92,1.25-2,2.31c0,.51.76.51.8,0Z" transform="translate(-315.63 -345.91)"/><path class="cls-1" d="M351.87,396.34c1.39,2.29,5.29,9.54,8.77,9,6-.67-2.05-12-3-13.93-1.21-2.07-5.26-10.44-8.56-9-4.79,2,1.25,11.19,2.77,13.9" transform="translate(-315.63 -345.91)"/><path class="cls-2" d="M351.53,396.54a51.71,51.71,0,0,0,3.92,6c1.26,1.56,3.08,3.51,5.29,3.23,4.35-.56,1.87-6.12.72-8.44-1.61-3.21-3.53-6.38-5.37-9.47-1.15-1.93-2.5-4.16-4.44-5.39a3,3,0,0,0-4.26.93c-1.19,2-.15,4.72.65,6.63a64.91,64.91,0,0,0,3.49,6.53.4.4,0,0,0,.69-.4c-.87-1.53-1.79-3-2.58-4.59a14.24,14.24,0,0,1-2-6.06c0-1.85,1.53-3.51,3.39-2.45s3,3,4,4.65c1.58,2.55,3,5.21,4.52,7.81a29.44,29.44,0,0,1,2.38,5c.39,1.18,1,3.22-.25,4.1-2.09,1.42-4.41-1.09-5.6-2.54a47.67,47.67,0,0,1-3.89-5.93c-.27-.44-1,0-.69.4Z" transform="translate(-315.63 -345.91)"/><path class="cls-1" d="M345,416.25c.49,4.41,5.54,14.19,2.28,18.43-2.59,3.37-8.81.43-6.52-4.57-3.75-.32-4.24,5.39-3.59,8.16,1.3,4.4,5.87,6.2,10.11,6.69,4.4.48,9.46-2.29,10.93-6.69,1.14-3.91-.66-8-1.8-11.74" transform="translate(-315.63 -345.91)"/><path class="cls-2" d="M344.58,416.25c.61,4.92,3.33,9.42,3.37,14.45,0,2.3-1,5.06-3.7,5-2.92-.05-4.23-2.92-3.17-5.41a.41.41,0,0,0-.34-.61c-2.78-.13-3.9,2.55-4.16,4.91a8.5,8.5,0,0,0,3,7.93c5.26,4.18,14,3.84,17.88-2,2.95-4.39.68-9.65-.71-14.16-.15-.49-.93-.28-.77.21,1.11,3.6,3,7.73,1.79,11.53a9.84,9.84,0,0,1-6.72,6c-5.21,1.51-13.32-1.29-13.75-7.44-.16-2.31.28-6.4,3.41-6.25l-.35-.6a4.61,4.61,0,0,0,.76,5.36,4.54,4.54,0,0,0,4.77.94c4.48-1.88,2.62-8.63,1.64-12-.74-2.6-1.85-5.21-2.18-7.91-.07-.5-.87-.51-.8,0Z" transform="translate(-315.63 -345.91)"/><path class="cls-1" d="M354.6,396.36c-4.89,14.84-4.57,23.32,2.28,33.27,5.87,8.31,20.87,10,29.68,6.36,7.49-3.11,9.3-7.83,9.79-14,.32-4.4-2.61-10.44-8.16-8.64-1.95.65-4.56,3.1-4.24,4.89,3.75-2.12,8.81,1.81,5.38,6.06s-12.39,3.24-17,1.77c-6-1.8-10.76-5.06-11.74-11.58-.49-3.75-1.63-8.22-1.14-11.58" transform="translate(-315.63 -345.91)"/><path class="cls-2" d="M354.21,396.25c-2.54,7.77-4.65,16.25-2.27,24.33a30.4,30.4,0,0,0,5,9.81,19.18,19.18,0,0,0,8.37,5.86c6.56,2.52,14.65,2.82,21.22.17a15.67,15.67,0,0,0,8.17-6.57,17.59,17.59,0,0,0,2-9.25c-.22-3.18-1.91-7-5.31-7.85a6.38,6.38,0,0,0-5.12,1.11c-1.36.95-3,2.55-2.77,4.35a.42.42,0,0,0,.61.35,4.2,4.2,0,0,1,5.08.77c1.43,1.6.77,3.77-.64,5.15-2.41,2.36-6.41,2.54-9.58,2.35-6.47-.38-14.61-2.91-17.21-9.48a33,33,0,0,1-1.39-6.78,26.87,26.87,0,0,1-.53-7.69c.07-.51-.73-.5-.8,0a27.69,27.69,0,0,0,.56,7.91c.4,2.38.58,4.88,1.53,7.12,1.58,3.71,4.85,6.14,8.5,7.61a28.6,28.6,0,0,0,11.63,2.14c3.45-.11,7.86-1.07,9.26-4.7,1.6-4.18-3.41-6.87-6.82-5.09l.6.34c-.19-1.8,1.78-3.45,3.22-4.19a5.12,5.12,0,0,1,4.92,0c2.61,1.53,3.64,5.07,3.46,7.92a16.57,16.57,0,0,1-2.6,8.56,16.33,16.33,0,0,1-8.49,5.66,29.86,29.86,0,0,1-19.33-.7,18.49,18.49,0,0,1-7.83-5.43,29.2,29.2,0,0,1-4.81-9.09c-2.6-8.11-.47-16.66,2.09-24.5.17-.49-.61-.7-.77-.21Z" transform="translate(-315.63 -345.91)"/><path class="cls-1" d="M350.52,388.2c-9,1.8-10.27,14-9.62,20.72.16,3.26,1.3,10.43-2.77,11.74-4.57,1.63-4.9-3.92-3.75-6.85-4.24-.66-5.71,4.56-5.22,8,1,6.85,8.8,8,14.51,6,7.18-2.61,7.67-10.27,6-16.63-1-3.75-4.57-14.68,1.46-16.64" transform="translate(-315.63 -345.91)"/><path class="cls-2" d="M350.41,387.82c-6.51,1.4-9.11,8.08-9.82,14a44.44,44.44,0,0,0,0,8.63c.2,2.74.9,7.59-1.8,9.4-1.58,1.06-3.65.88-4.31-1.05a7.59,7.59,0,0,1,.26-4.93c.1-.27-.15-.47-.38-.5-4.82-.59-6.3,5.43-5.49,9.13,1,4.73,5.72,6.69,10.17,6.54,4.77-.16,9.29-2.38,11-7.06,1.63-4.44.51-9-.65-13.44-1-3.76-3.24-11.84,1.87-13.63.48-.17.28-.94-.21-.77-3.65,1.28-3.95,5.41-3.6,8.72.41,3.81,1.86,7.37,2.4,11.14.67,4.78-.22,10.21-4.82,12.73-3.81,2.1-9.92,2.36-13.3-.72a7.8,7.8,0,0,1-2.19-6.91c.35-2.62,1.81-5.3,4.82-4.93l-.39-.51c-.79,2.13-1.17,6.05,1.26,7.33a4.16,4.16,0,0,0,4-.45A5.44,5.44,0,0,0,341.3,417c.64-3.16,0-6.42-.11-9.59a29.75,29.75,0,0,1,1.21-10.32c1.28-4.05,3.89-7.58,8.23-8.51.5-.11.29-.88-.22-.77Z" transform="translate(-315.63 -345.91)"/><path class="cls-1" d="M352.15,391.3c-9.62,8-11.25,29.85-1.14,37.67,9.13,7.18,29.25,4.73,28.7-9.45-.11-2.85-3.09-7.18-6.68-6.2,5.22,8.32-7.34,12.55-12.23,10.43-9.14-3.91-7-19.08-3.76-26.09" transform="translate(-315.63 -345.91)"/><path class="cls-2" d="M351.87,391c-4.87,4.12-7.19,10.7-7.9,16.87s.14,13.47,4.09,18.65c3.46,4.53,9.2,6.54,14.75,6.73,5.33.18,11.38-1.35,14.82-5.71a11.68,11.68,0,0,0,2.43-8.61c-.48-3.32-3.54-6.85-7.14-6a.41.41,0,0,0-.24.59c1.78,2.93,1.44,6-1.39,8.07a12.74,12.74,0,0,1-8.22,2.28c-7.34-.58-8.78-9.55-8.33-15.36a31.65,31.65,0,0,1,2.65-10.65c.21-.46-.48-.87-.69-.4A32.7,32.7,0,0,0,354,407.93c-.35,3.75-.15,7.79,1.53,11.23a9.51,9.51,0,0,0,7.13,5.47,13.36,13.36,0,0,0,9.13-2.42c3.14-2.31,3.58-5.83,1.59-9.09l-.24.58c3.71-.85,6.26,3.48,6.19,6.66a11,11,0,0,1-2.62,7.08c-3.37,3.88-8.94,5.19-13.89,5-5.15-.17-10.55-2-13.87-6.1-3.75-4.64-4.72-11.15-4.31-16.94.45-6.47,2.71-13.54,7.81-17.85.39-.33-.18-.89-.57-.56Z" transform="translate(-315.63 -345.91)"/><path class="cls-1" d="M349.54,386.57c3.75,5.38,8.81,11.09,10.44,17.62" transform="translate(-315.63 -345.91)"/><path class="cls-2" d="M349.2,386.77c3.87,5.53,8.67,10.83,10.39,17.52a.4.4,0,0,0,.78-.21c-1.75-6.77-6.57-12.12-10.48-17.71-.29-.42-1,0-.69.4Z" transform="translate(-315.63 -345.91)"/><path class="cls-1" d="M411.31,402.56a48.09,48.09,0,0,0-.67,5.39,19.55,19.55,0,0,0-3.57.6c1,.6,3.42.76,3.5,1.08.16.64.59,3.81,1.13,5.43.39-2,.63-3.69.88-5.47,0-.19,2.44-.54,3.43-1.08a12.87,12.87,0,0,0-3.68-.56,40.37,40.37,0,0,0-1-5.39" transform="translate(-315.63 -345.91)"/><path class="cls-1" d="M337.55,362.85a43.73,43.73,0,0,0-.57,4.58,17.22,17.22,0,0,0-3,.51c.88.51,2.91.65,3,.92.14.54.51,3.24,1,4.62.33-1.74.54-3.14.75-4.66,0-.16,2.08-.45,2.92-.91a10.9,10.9,0,0,0-3.13-.48,34,34,0,0,0-.87-4.58" transform="translate(-315.63 -345.91)"/><path class="cls-1" d="M322.48,400.64a36.24,36.24,0,0,0-.48,3.89,14.59,14.59,0,0,0-2.58.44c.74.43,2.47.55,2.52.78.12.46.43,2.75.82,3.92.28-1.47.46-2.67.64-3.95,0-.14,1.76-.39,2.48-.78a9.18,9.18,0,0,0-2.66-.41,28.47,28.47,0,0,0-.74-3.89" transform="translate(-315.63 -345.91)"/><path class="cls-1" d="M359.25,349.38a1.55,1.55,0,1,0,.11,3.09,1.55,1.55,0,0,0-.11-3.09" transform="translate(-315.63 -345.91)"/><path class="cls-1" d="M382.64,444.16a2.06,2.06,0,1,0,.15,4.12,2.06,2.06,0,0,0-.15-4.12" transform="translate(-315.63 -345.91)"/><path class="cls-1" d="M419.31,391.67a1.54,1.54,0,1,0,.11,3.08,1.54,1.54,0,0,0-.11-3.08" transform="translate(-315.63 -345.91)"/><path class="cls-1" d="M325,383.72a1,1,0,1,0,.07,2,1,1,0,0,0-.07-2" transform="translate(-315.63 -345.91)"/><path class="cls-1" d="M402.89,433.32a1,1,0,1,0,.08,2.06,1,1,0,0,0-.08-2.06" transform="translate(-315.63 -345.91)"/><path class="cls-1" d="M360,447.25a1,1,0,1,0,.07,2.06,1,1,0,0,0-.07-2.06" transform="translate(-315.63 -345.91)"/><path class="cls-1" d="M379.44,347.16" transform="translate(-315.63 -345.91)"/><path class="cls-2" d="M379.44,348.41a1.25,1.25,0,0,0,0-2.5,1.25,1.25,0,0,0,0,2.5Z" transform="translate(-315.63 -345.91)"/><path class="cls-1" d="M415.49,427.63" transform="translate(-315.63 -345.91)"/><path class="cls-2" d="M415.49,428.88a1.25,1.25,0,0,0,0-2.5,1.25,1.25,0,0,0,0,2.5Z" transform="translate(-315.63 -345.91)"/><path class="cls-1" d="M334.38,396.09" transform="translate(-315.63 -345.91)"/><path class="cls-2" d="M334.38,397.09a1,1,0,0,0,0-2,1,1,0,0,0,0,2Z" transform="translate(-315.63 -345.91)"/><path class="cls-1" d="M419.35,377.42" transform="translate(-315.63 -345.91)"/><path class="cls-2" d="M419.35,378.42a1,1,0,0,0,0-2,1,1,0,0,0,0,2Z" transform="translate(-315.63 -345.91)"/><path class="cls-1" d="M344.68,354.24" transform="translate(-315.63 -345.91)"/><path class="cls-2" d="M344.68,355.24a1,1,0,0,0,0-2,1,1,0,0,0,0,2Z" transform="translate(-315.63 -345.91)"/><path class="cls-1" d="M395.53,405.74" transform="translate(-315.63 -345.91)"/><path class="cls-2" d="M395.53,406.74a1,1,0,0,0,0-2,1,1,0,0,0,0,2Z" transform="translate(-315.63 -345.91)"/><path class="cls-1" d="M347.25,373.56" transform="translate(-315.63 -345.91)"/><path class="cls-2" d="M347.25,374.31a.75.75,0,0,0,0-1.5.75.75,0,0,0,0,1.5Z" transform="translate(-315.63 -345.91)"/><path class="cls-1" d="M326,430.85" transform="translate(-315.63 -345.91)"/><path class="cls-2" d="M326,431.6a.75.75,0,0,0,0-1.5.75.75,0,0,0,0,1.5Z" transform="translate(-315.63 -345.91)"/><path class="cls-1" d="M324.08,373.56" transform="translate(-315.63 -345.91)"/><path class="cls-2" d="M324.08,374.31a.75.75,0,0,0,0-1.5.75.75,0,0,0,0,1.5Z" transform="translate(-315.63 -345.91)"/><path class="cls-1" d="M420.64,413.47" transform="translate(-315.63 -345.91)"/><path class="cls-2" d="M420.64,414.22a.75.75,0,0,0,0-1.5.75.75,0,0,0,0,1.5Z" transform="translate(-315.63 -345.91)"/><path class="cls-1" d="M396.82,446.94" transform="translate(-315.63 -345.91)"/><path class="cls-2" d="M396.82,447.69a.75.75,0,0,0,0-1.5.75.75,0,0,0,0,1.5Z" transform="translate(-315.63 -345.91)"/><path class="cls-1" d="M405.83,419.26" transform="translate(-315.63 -345.91)"/><path class="cls-2" d="M405.83,420a.75.75,0,0,0,0-1.5.75.75,0,0,0,0,1.5Z" transform="translate(-315.63 -345.91)"/><path class="cls-1" d="M316.35,392.87" transform="translate(-315.63 -345.91)"/><path class="cls-2" d="M316.35,393.62a.75.75,0,0,0,0-1.5.75.75,0,0,0,0,1.5Z" transform="translate(-315.63 -345.91)"/></g></svg>