<svg xmlns="http://www.w3.org/2000/svg" viewBox="0 0 105.09 107.52"><defs><style>.cls-1{fill:#e9e3ff;}.cls-2{fill:#ff7e00;}.cls-3{fill:#ffe1d7;}.cls-4{fill:#fff;}</style></defs><g id="OBJECTS"><path class="cls-1" d="M201.63,227.68c-1.41,3.92-1.66,8.06-2.62,12.08-1,4.33-3.62,7.85-5.69,11.71s-4.31,7.74-5.4,12a23.32,23.32,0,0,0,0,11.56,25.94,25.94,0,0,0,9,14.24,35.55,35.55,0,0,0,14.56,6.3,95.61,95.61,0,0,0,16.28,1.75,125.11,125.11,0,0,0,17-.16c6.09-.58,12.37-2,17.55-5.38a20.79,20.79,0,0,0,9.41-16c.51-7.16-1.52-14.74-4.6-21.15-3.48-7.22-8.22-13.94-10.19-21.8a26.93,26.93,0,0,1-.81-6.26.4.4,0,0,0-.8,0c.06,7.65,3.66,14.58,7.23,21.13a88.14,88.14,0,0,1,5,10,52.27,52.27,0,0,1,2.88,10.18c1.23,7.25.36,14.74-4.92,20.23-4.32,4.5-10.42,6.67-16.43,7.72a85.13,85.13,0,0,1-17.33.88,143.84,143.84,0,0,1-15.65-1.08,43.62,43.62,0,0,1-15.22-4.64A24.61,24.61,0,0,1,190,278.83a25.28,25.28,0,0,1-2-10.75c.21-4.47,2-8.41,4-12.34,1-1.9,2-3.8,3-5.66s2.29-3.63,3.21-5.54c1.65-3.44,2.07-7.2,2.73-10.9a35,35,0,0,1,1.47-5.74c.17-.49-.6-.7-.77-.22Z" transform="translate(-175.93 -196.3)"/><path class="cls-1" d="M199.18,250.19c-.32,6.61-5.82,10.83-8.38,16.51-2.24,4.95-1.18,10.62,1,15.43a14.88,14.88,0,0,0,5.29,6.78c.43.27.84-.42.4-.7a13.85,13.85,0,0,1-4.8-6,24.5,24.5,0,0,1-2.28-8.51c-.44-5.91,3.27-10.07,6.34-14.69a17.41,17.41,0,0,0,3.26-8.78c0-.51-.78-.51-.8,0Z" transform="translate(-175.93 -196.3)"/><path class="cls-1" d="M202.25,257.44c-1.24,6.15-7.89,9.5-9.06,15.7a19.87,19.87,0,0,0,.5,8.26,19,19,0,0,0,3.54,7.7c.33.4.89-.17.57-.56a18.66,18.66,0,0,1-3.46-7.87,16.66,16.66,0,0,1-.08-8.5c1.75-5.5,7.6-8.73,8.76-14.52.1-.5-.67-.72-.77-.21Z" transform="translate(-175.93 -196.3)"/><path class="cls-1" d="M204.89,265.44c-2.15,4-5.58,7.19-7.25,11.44a20.06,20.06,0,0,0-1.37,5.55,18.81,18.81,0,0,0,.86,6.49.4.4,0,0,0,.77-.21,18.12,18.12,0,0,1-.83-6.28,18.64,18.64,0,0,1,1.58-5.9c1.75-3.9,4.91-6.94,6.93-10.69a.4.4,0,0,0-.69-.4Z" transform="translate(-175.93 -196.3)"/><path class="cls-1" d="M260.13,255.67c2.66,5.92,5.83,11.92,6.53,18.46a64,64,0,0,1,.31,7.06c0,2.42-.24,5.17-1.89,7.09-.33.39.23,1,.57.56a10.27,10.27,0,0,0,2.07-6.25,54.93,54.93,0,0,0-.22-8c-.59-6.86-3.9-13.14-6.68-19.31-.21-.47-.9-.06-.69.4Z" transform="translate(-175.93 -196.3)"/><path class="cls-1" d="M257,262a44.19,44.19,0,0,1,5.62,12.27,40.24,40.24,0,0,1,1.57,6.41c.37,2.62.46,5.27.74,7.9,0,.51.85.51.8,0-.27-2.54-.37-5.09-.7-7.62a41,41,0,0,0-1.63-6.9,44.72,44.72,0,0,0-5.71-12.46c-.29-.42-1,0-.69.4Z" transform="translate(-175.93 -196.3)"/><path class="cls-1" d="M252.79,269.06A57.59,57.59,0,0,1,258,279.15c.66,1.5,1.4,3,2,4.5a22.28,22.28,0,0,1,1,4.5c.08.51.85.29.77-.21a22.53,22.53,0,0,0-1-4.51c-.55-1.5-1.28-2.94-1.93-4.41a59.91,59.91,0,0,0-5.31-10.36c-.29-.42-1,0-.69.4Z" transform="translate(-175.93 -196.3)"/><path class="cls-2" d="M265,288.82c-1-10.3-10.81-8-18.28-8.5-8-.51-5.93-9.79-6.95-16h-17c-1,6.17,1,15.45-6.95,16-7.47.52-17.26-1.8-18.29,8.5" transform="translate(-175.93 -196.3)"/><path class="cls-1" d="M265.38,288.82c-.3-2.68-1.22-5.27-3.51-6.86-2.09-1.45-4.77-1.78-7.25-1.89-2.88-.14-5.89.23-8.74-.24-3.1-.52-4.46-3-4.95-5.86-.55-3.21-.29-6.5-.8-9.72a.4.4,0,0,0-.38-.29h-17a.41.41,0,0,0-.39.29c-.44,2.81-.32,5.67-.63,8.49s-1.11,5.83-4,6.82c-2.67.91-5.95.41-8.73.47a17.12,17.12,0,0,0-7.55,1.44c-2.8,1.48-4,4.33-4.31,7.35-.05.51.75.5.8,0,.35-3.13,1.73-5.87,4.79-7.05,2.59-1,5.48-.95,8.21-1s5.67.36,8-.92c2.15-1.17,3-3.54,3.42-5.84.51-3.17.27-6.42.78-9.59l-.39.3h17l-.39-.3c.46,2.87.3,5.8.65,8.69.28,2.27.87,4.74,2.76,6.22,2.14,1.68,5.14,1.44,7.71,1.44,2.79,0,5.68-.11,8.39.66,3.56,1,5.31,3.78,5.71,7.35.06.5.86.51.8,0Z" transform="translate(-175.93 -196.3)"/><path class="cls-2" d="M210.39,224.7c-2.32,8.76-4.31,46.61,19.71,46.62,23.55,0,21.49-36.29,18.4-47.13" transform="translate(-175.93 -196.3)"/><path class="cls-1" d="M210,224.59c-1.64,6.28-1.6,13.28-1.05,19.68.68,7.79,2.56,16.51,8.24,22.27a18.74,18.74,0,0,0,22.25,2.78c7-4.21,9.73-12.89,10.75-20.55a66.39,66.39,0,0,0-.85-22.88c-.14-.61-.29-1.21-.45-1.81a.4.4,0,0,0-.78.21,61.35,61.35,0,0,1,1.68,20.56c-.53,7.66-2.3,16.5-8.23,21.9s-16,5.6-22.29.59-8.4-13.44-9.3-20.92a65.55,65.55,0,0,1,.49-20.21c.09-.47.19-.94.32-1.4a.41.41,0,0,0-.78-.22Z" transform="translate(-175.93 -196.3)"/><path class="cls-1" d="M217.66,246.93a6.39,6.39,0,0,0,3.93,1.22,10.23,10.23,0,0,0,3.94-1.22c.46-.23.05-.92-.41-.69a9.17,9.17,0,0,1-3.53,1.11,5.68,5.68,0,0,1-3.53-1.11c-.43-.29-.83.4-.4.69Z" transform="translate(-175.93 -196.3)"/><path class="cls-1" d="M242.63,246.24a5.68,5.68,0,0,1-3.53,1.11,9.22,9.22,0,0,1-3.53-1.11c-.46-.23-.87.46-.4.69a10.13,10.13,0,0,0,3.93,1.22,6.42,6.42,0,0,0,3.94-1.22c.42-.29,0-1-.41-.69Z" transform="translate(-175.93 -196.3)"/><path class="cls-2" d="M225.35,259.46c1.71-1.54,4.26-4.63,5.64-.77,1.28-3.6,2.26-2.06,5.68.77-2.35,3.35-7.36,5.93-11.32,0" transform="translate(-175.93 -196.3)"/><path class="cls-1" d="M225.63,259.75a15.82,15.82,0,0,1,2.57-2.2,1.67,1.67,0,0,1,1.24-.29c.64.19,1,1,1.17,1.54a.4.4,0,0,0,.77,0c.26-.72.67-2.15,1.68-1.69a5.72,5.72,0,0,1,1.34.95c.67.56,1.32,1.13,2,1.69l-.06-.49a7.64,7.64,0,0,1-4.7,3.27c-2.54.45-4.58-1.3-5.93-3.27-.28-.42-1,0-.69.4,1.51,2.22,3.76,4.09,6.6,3.68a8.42,8.42,0,0,0,5.41-3.68.38.38,0,0,0-.06-.48c-.79-.66-1.55-1.35-2.36-2a4.44,4.44,0,0,0-1.6-1c-1.4-.33-2,1.33-2.38,2.35h.77c-.49-1.31-1.44-2.58-3-2a11.38,11.38,0,0,0-3.31,2.6c-.39.35.18.91.56.57Z" transform="translate(-175.93 -196.3)"/><path class="cls-1" d="M228.54,243.6a11,11,0,0,1,0,2.37c0,1-.12,2-.14,3,0,1.47-.1,3.58,1.15,4.63a2.81,2.81,0,0,0,2.55.37c.5-.13.28-.9-.22-.78a2,2,0,0,1-1.86-.24,3,3,0,0,1-.73-1.77,26,26,0,0,1,.06-5.22,12.59,12.59,0,0,0-.06-2.53c-.08-.51-.86-.29-.78.21Z" transform="translate(-175.93 -196.3)"/><path class="cls-2" d="M223.75,230.26c-1.47,5.2-6.47,7.41-9.59,11.33s-2.06,11.17-.68,15.76c1.66,5.52,5,9.51,5.15,15.45.23,10.46-5,14.23-11.54,20.65a16.32,16.32,0,0,1,.78-3.58,26.18,26.18,0,0,0,.52-9.8,47,47,0,0,0-2.77-12.31c-1.51-3.68-3.49-6.87-4.82-10.73-3.86-11.23-7.81-28.2-.35-39,2.86-4.13,6.8-7.95,12-7.78,3.72.12,8.41,2,10.1,5.53" transform="translate(-175.93 -196.3)"/><path class="cls-1" d="M223.37,230.16c-1.44,4.76-6,7.07-9.05,10.62-2.94,3.39-2.93,8.12-2.24,12.32A32.83,32.83,0,0,0,214,260c1,2.42,2.23,4.74,3.12,7.2a19.57,19.57,0,0,1-.76,15.09c-2.19,4.36-6.11,7.56-9.54,10.9l.68.28a27.56,27.56,0,0,1,.77-3.47,23.94,23.94,0,0,0,.75-5.65,48.28,48.28,0,0,0-1.44-11.72,50.74,50.74,0,0,0-4.18-10.55,62.71,62.71,0,0,1-3.68-9.76c-3.56-12.06-5.84-27.09,3.56-37.14,2.59-2.77,5.95-4.77,9.85-4.44,3.56.3,7.45,2,9.13,5.29.23.46.92.06.69-.4-2.68-5.29-10.47-7.07-15.57-4.6-5.78,2.8-9.58,9.39-10.84,15.47-1.37,6.62-.59,13.56.87,20.09a94.91,94.91,0,0,0,2.66,9.5c1.25,3.78,3.17,7.21,4.77,10.84a44.45,44.45,0,0,1,3.3,14.58,25.14,25.14,0,0,1-.53,7.83,39.56,39.56,0,0,0-.91,4.13c-.05.37.46.5.68.29,3.08-3,6.48-5.85,8.79-9.51a20.14,20.14,0,0,0,2.74-13.12c-.65-5.26-3.91-9.7-5.29-14.75-1.2-4.39-2.19-10.36.7-14.32,3.08-4.21,8.22-6.37,9.83-11.67.15-.49-.62-.7-.77-.21Z" transform="translate(-175.93 -196.3)"/><path class="cls-2" d="M224.47,203.78c26.63-7.66,43.77,25.17,40,47.75-1.73,10.21-7.09,20.57-13.47,28.58-4.12,5.17-7.88,9.59-7.38,16.43-5.45-5.61-8.67-10.2-6.22-18.33,1-3.37,3.2-6.06,5.1-8.76a40.26,40.26,0,0,0,5.67-12.05c1-3.91,1.78-9.43-.4-13.08-2.63-4.42-8.75-5.54-13.34-6.42-6.59-1.27-13.49-4.64-17.78-10.05a13.6,13.6,0,0,1-2.62-7.71C213.45,212.4,216.81,206,224.47,203.78Z" transform="translate(-175.93 -196.3)"/><path class="cls-1" d="M224.57,204.17a25.93,25.93,0,0,1,20.51,2.46c6,3.57,10.61,9.26,13.8,15.43a51.11,51.11,0,0,1,5.62,20.7c.44,9.07-2.31,17.9-6.52,25.87a101.16,101.16,0,0,1-9.63,14.13c-3.15,4.1-5.5,8.47-5.18,13.78l.68-.28c-2.62-2.72-5.35-5.67-6.44-9.38-1.21-4.16-.09-8.76,2.08-12.41,1.09-1.83,2.42-3.5,3.62-5.27a42.38,42.38,0,0,0,3.19-5.7,33.08,33.08,0,0,0,3.14-11.57c.27-3.61-.31-7.37-3.1-9.91-2.54-2.33-6.05-3.31-9.35-4-4-.86-7.92-1.72-11.63-3.65s-8.11-5.05-9.86-9.16a18,18,0,0,1,.06-13.26,13.63,13.63,0,0,1,9-7.77.4.4,0,0,0-.21-.78,14.82,14.82,0,0,0-8.23,5.78,17.06,17.06,0,0,0-2.6,9.75,17.61,17.61,0,0,0,1.13,6.35,15,15,0,0,0,3.63,5A30.21,30.21,0,0,0,229,236.84c7.07,2.56,18.61,2,19.58,11.81a27.38,27.38,0,0,1-2.28,12.8,42.41,42.41,0,0,1-3.41,6.55c-1.2,1.9-2.62,3.65-3.81,5.55-2.37,3.77-3.7,8.5-2.64,12.93,1,4.12,3.94,7.39,6.81,10.35a.41.41,0,0,0,.68-.29c-.32-5.36,2.18-9.67,5.37-13.76a94.93,94.93,0,0,0,8.91-13c4.34-8,7.34-16.89,7.09-26.05-.38-13.8-6.69-29.06-18.46-36.94a26.85,26.85,0,0,0-22.52-3.43A.4.4,0,0,0,224.57,204.17Z" transform="translate(-175.93 -196.3)"/><path class="cls-1" d="M217.32,229.31c-3.24,2.95-7.65,5.3-9.12,9.7-1.67,5-.53,10.86.84,15.81,1.1,4,2.61,7.8,3.51,11.84a41.47,41.47,0,0,1,1.08,12.56,19.67,19.67,0,0,1-6.07,13.22c-.38.35.18.91.56.57,6.28-5.71,7.11-14.48,6-22.43A63.68,63.68,0,0,0,211.21,259c-1.71-5-3.23-10.28-2.94-15.61A12.09,12.09,0,0,1,211.8,235c1.88-1.87,4.12-3.34,6.08-5.12.38-.35-.18-.92-.56-.57Z" transform="translate(-175.93 -196.3)"/><path class="cls-1" d="M214.05,223.33c-4.26,2.48-7.94,5.92-9.81,10.56-1.7,4.24-1.74,8.92-1.15,13.39,1.33,10.21,5.59,19.82,6.61,30.08.54,5.5,0,11.08-3,15.89a.4.4,0,0,0,.69.4c5.14-8.48,3.17-18.72.85-27.77-1.27-4.95-2.76-9.84-3.76-14.85-.92-4.62-1.48-9.51-.38-14.16,1.35-5.73,5.33-10,10.31-12.85a.4.4,0,0,0-.4-.69Z" transform="translate(-175.93 -196.3)"/><path class="cls-1" d="M213.67,218c.2,5.57,4.19,9,9,11.14,5.23,2.33,10.83,3.6,16,6,5.52,2.58,11.61,6,13.43,12.27,1.06,3.62.56,7.61-.46,11.17a33.36,33.36,0,0,1-6.06,11.46c-2.61,3.28-5.5,6.46-5.79,10.84-.32,4.86,1.72,9.48,3,14.06a.4.4,0,0,0,.77-.22c-1.2-4.18-3-8.35-3-12.76,0-4.68,2.83-7.89,5.58-11.36,4.58-5.77,8.14-13.47,7.22-21-.73-5.93-4.93-10-9.89-12.88-5.14-3-10.63-4.77-16.21-6.68-5.83-2-12.55-5-12.8-12.06,0-.51-.82-.51-.8,0Z" transform="translate(-175.93 -196.3)"/><path class="cls-1" d="M214.68,213.44c6.83,13.88,26.07,11.45,36.26,21.3,5.47,5.3,7,14.36,5.1,21.54-1.73,6.48-6.13,11.69-9.56,17.3a31.12,31.12,0,0,0-4.22,9.95,25,25,0,0,0,.83,12.35c.15.49.93.28.77-.22A24.33,24.33,0,0,1,243,284a29.24,29.24,0,0,1,3.7-9.19c3.31-5.63,7.69-10.71,9.75-17,2.22-6.82,1.39-15.49-2.94-21.35s-11.43-8.15-17.93-10.37c-7.6-2.59-16.37-5.27-20.19-13-.23-.46-.92-.06-.69.4Z" transform="translate(-175.93 -196.3)"/><path class="cls-1" d="M217.25,209.19c3.7,5.74,11.48,7.61,17.6,9.41a67,67,0,0,1,11,3.81,30.66,30.66,0,0,1,9.54,7.25c5.75,6.63,6.3,16.14,4.48,24.39a57.12,57.12,0,0,1-9.63,20.76c-2.09,2.91-4.61,5.37-5.89,8.78a26,26,0,0,0-1.31,12.18c.06.5.86.51.8,0a25.62,25.62,0,0,1,1-11.27c1.14-3.38,3.46-5.77,5.53-8.57a59.23,59.23,0,0,0,9.83-20c2-7.57,2.25-16.72-1.92-23.65-4-6.58-10.89-10.63-18-12.9-4.2-1.33-8.48-2.39-12.6-3.94-3.69-1.39-7.59-3.26-9.79-6.68-.28-.43-1,0-.7.4Z" transform="translate(-175.93 -196.3)"/><path class="cls-1" d="M213.74,215c-18.56,2.31-14.09,26.52-11.71,39.24.78,4.17,1.7,8.31,2.31,12.51.07.51.84.29.77-.21-1.1-7.58-3-15-3.92-22.61-.86-7.11-1.57-15.79,2.43-22.15a13.44,13.44,0,0,1,10.12-6c.5-.06.51-.86,0-.8Z" transform="translate(-175.93 -196.3)"/><path class="cls-1" d="M220.91,206.1c8.59,2.53,17.43,4.86,25.32,9.21s14.11,10.89,16.7,19.69a36,36,0,0,1,1.15,15.34c-.08.51.69.72.77.22,1.32-8.83-.67-18.74-6.16-25.9s-13.62-11.39-21.93-14.43c-5.13-1.88-10.4-3.36-15.64-4.9-.49-.15-.7.62-.21.77Z" transform="translate(-175.93 -196.3)"/><path class="cls-3" d="M275.2,237.25a48.1,48.1,0,0,0-.68,5.39,19.55,19.55,0,0,0-3.57.6c1,.6,3.42.76,3.5,1.08.17.64.6,3.81,1.13,5.43.39-2,.63-3.69.89-5.47,0-.19,2.44-.54,3.43-1.08a12.87,12.87,0,0,0-3.68-.56,40.37,40.37,0,0,0-1-5.39" transform="translate(-175.93 -196.3)"/><path class="cls-3" d="M183.47,230.39a43.92,43.92,0,0,0-.57,4.59,17,17,0,0,0-3,.51c.87.51,2.91.65,3,.91.14.55.51,3.24,1,4.62.33-1.73.53-3.14.75-4.65,0-.16,2.07-.46,2.91-.92a10.8,10.8,0,0,0-3.12-.47,34.88,34.88,0,0,0-.88-4.59" transform="translate(-175.93 -196.3)"/><path class="cls-3" d="M213.72,198.13a36.24,36.24,0,0,0-.48,3.89,14.59,14.59,0,0,0-2.58.44c.74.43,2.47.55,2.53.78.11.46.43,2.75.81,3.92.29-1.47.46-2.67.64-3.95,0-.14,1.77-.39,2.48-.78a9.54,9.54,0,0,0-2.66-.41,28.47,28.47,0,0,0-.74-3.89" transform="translate(-175.93 -196.3)"/><path class="cls-4" d="M265.34,214.1a2.06,2.06,0,1,0,.15,4.11,2.06,2.06,0,0,0-.15-4.11" transform="translate(-175.93 -196.3)"/><path class="cls-4" d="M179.85,263.33a1.55,1.55,0,1,0,.11,3.09,1.55,1.55,0,0,0-.11-3.09" transform="translate(-175.93 -196.3)"/><path class="cls-4" d="M278.24,262.81a1.55,1.55,0,1,0,.11,3.09,1.55,1.55,0,0,0-.11-3.09" transform="translate(-175.93 -196.3)"/><path class="cls-4" d="M195.37,209.24a1,1,0,1,0,.07,2.06,1,1,0,0,0-.07-2.06" transform="translate(-175.93 -196.3)"/><path class="cls-4" d="M227.78,301.76a1,1,0,1,0,.07,2.06,1,1,0,0,0-.07-2.06" transform="translate(-175.93 -196.3)"/><path class="cls-4" d="M241.79,196.3a1,1,0,1,0,.07,2.06,1,1,0,0,0-.07-2.06" transform="translate(-175.93 -196.3)"/><path class="cls-1" d="M279,230a1.25,1.25,0,0,0,0-2.5,1.25,1.25,0,0,0,0,2.5Z" transform="translate(-175.93 -196.3)"/><path class="cls-1" d="M187,250.56a1.25,1.25,0,0,0,0-2.5,1.25,1.25,0,0,0,0,2.5Z" transform="translate(-175.93 -196.3)"/><path class="cls-1" d="M259.7,206.54a1,1,0,0,0,0-2,1,1,0,0,0,0,2Z" transform="translate(-175.93 -196.3)"/><path class="cls-1" d="M184.38,280.57a1,1,0,0,0,0-2,1,1,0,0,0,0,2Z" transform="translate(-175.93 -196.3)"/><path class="cls-1" d="M278.37,277.35a1,1,0,0,0,0-2,1,1,0,0,0,0,2Z" transform="translate(-175.93 -196.3)"/><path class="cls-1" d="M185.67,221.34a1,1,0,0,0,0-2,1,1,0,0,0,0,2Z" transform="translate(-175.93 -196.3)"/><path class="cls-1" d="M176.66,249.42a.75.75,0,0,0,0-1.5.75.75,0,0,0,0,1.5Z" transform="translate(-175.93 -196.3)"/><path class="cls-1" d="M280.3,252.64a.75.75,0,0,0,0-1.5.75.75,0,0,0,0,1.5Z" transform="translate(-175.93 -196.3)"/><path class="cls-1" d="M205,299.63a.75.75,0,0,0,0-1.5.75.75,0,0,0,0,1.5Z" transform="translate(-175.93 -196.3)"/><path class="cls-1" d="M247.47,302.85a.75.75,0,0,0,0-1.5.75.75,0,0,0,0,1.5Z" transform="translate(-175.93 -196.3)"/></g></svg>