<svg xmlns="http://www.w3.org/2000/svg" viewBox="0 0 106.38 104.91"><defs><style>.cls-1{fill:#ff7e00;}.cls-2{fill:#e9e3ff;}.cls-3{fill:#ffe1d7;}.cls-4{fill:#fff;}</style></defs><g id="OBJECTS"><path class="cls-1" d="M247.68,385.16c0-8.51,13.29-4.33,16.33-14.05,1.82-6.07-.54-15.11-6-16.93,1.23,10.89-.66,13-7.89,15.79-6,2.33-10.33,5.47-9.72,13.37" transform="translate(-176.58 -346.16)"/><path class="cls-2" d="M248.08,385.16c.09-5.7,7.43-5.92,11.3-8,5.74-3.1,6.58-10.12,4.84-15.9-1-3.16-2.86-6.3-6.11-7.46a.41.41,0,0,0-.51.39c.5,4.48,1.24,10.26-3,13.19-4,2.76-9.28,3.22-12.44,7.34a12.42,12.42,0,0,0-2.15,8.63c0,.51.83.51.8,0-.2-3,.24-6.11,2.25-8.49a16.78,16.78,0,0,1,6.87-4.37c3.59-1.43,7.33-3,8.41-7.07.78-3,.42-6.22.08-9.23l-.5.38c3.17,1.14,4.92,4.44,5.72,7.53s1,7-.44,10.06c-2.35,5.13-8.11,5.26-12.52,7.59a5.94,5.94,0,0,0-3.38,5.42.4.4,0,0,0,.8,0Z" transform="translate(-176.58 -346.16)"/><path class="cls-2" d="M262.66,359.19a5.7,5.7,0,0,1-3.9.74.39.39,0,0,0-.4.4.41.41,0,0,0,.4.4,6.36,6.36,0,0,0,4.31-.85.4.4,0,0,0-.41-.69Z" transform="translate(-176.58 -346.16)"/><path class="cls-2" d="M264.4,364.25c-1.67,1.19-4.45,1.73-6.23.47-.42-.3-.82.4-.4.69a5.27,5.27,0,0,0,3.52.77,7.25,7.25,0,0,0,3.51-1.24c.42-.3,0-1-.4-.69Z" transform="translate(-176.58 -346.16)"/><path class="cls-2" d="M263.86,371a12.12,12.12,0,0,1-9.87-2.58c-.39-.34-1,.22-.57.56a13,13,0,0,0,10.66,2.79c.5-.09.29-.86-.22-.77Z" transform="translate(-176.58 -346.16)"/><path class="cls-2" d="M258.23,376.84a13,13,0,0,1-8.76-6.61c-.22-.46-.91-.05-.69.41a13.79,13.79,0,0,0,9.24,7c.5.11.72-.66.21-.77Z" transform="translate(-176.58 -346.16)"/><path class="cls-2" d="M251.18,379.51a4.32,4.32,0,0,1-2-.34,10.4,10.4,0,0,1-2.32-1.25,9,9,0,0,1-1.91-1.73,3.21,3.21,0,0,1-.8-1.81.4.4,0,0,0-.8,0,5,5,0,0,0,1.9,3.28,11.46,11.46,0,0,0,3.92,2.35,4.58,4.58,0,0,0,2,.3c.5-.06.51-.86,0-.8Z" transform="translate(-176.58 -346.16)"/><path class="cls-1" d="M211.42,385.16c0-8.51-13.29-4.33-16.33-14.05-1.82-6.07.54-15.11,6-16.93-1.23,10.89.67,13,7.9,15.79,6,2.33,10.33,5.47,9.72,13.37" transform="translate(-176.58 -346.16)"/><path class="cls-2" d="M211.82,385.16c-.08-5.07-5-6.09-8.9-7.5-2.54-.91-5-2.17-6.49-4.54-1.74-2.83-1.84-6.58-1.24-9.77.65-3.49,2.41-7.5,6-8.79l-.51-.38c-.46,4.18-1.18,9.72,2.24,12.94s8.86,3.56,12.38,6.94c2.56,2.46,3.23,5.84,3,9.28,0,.51.76.51.8,0a12.92,12.92,0,0,0-1.62-7.88,13.41,13.41,0,0,0-5.45-4.58c-3.71-1.88-8.95-2.74-10.37-7.27-.94-3-.51-6.38-.18-9.43a.4.4,0,0,0-.5-.39c-6,2.15-7.68,10.55-6.61,16.11a10.12,10.12,0,0,0,4.39,6.69c2.18,1.43,4.74,2.08,7.16,3,2.74,1,5,2.42,5.09,5.62a.4.4,0,0,0,.8,0Z" transform="translate(-176.58 -346.16)"/><path class="cls-2" d="M196,359.88a6.41,6.41,0,0,0,4.31.85.42.42,0,0,0,.4-.4c0-.2-.19-.43-.4-.4a5.73,5.73,0,0,1-3.91-.74.4.4,0,0,0-.54.15.39.39,0,0,0,.14.54Z" transform="translate(-176.58 -346.16)"/><path class="cls-2" d="M194.29,364.94a7.28,7.28,0,0,0,3.52,1.24,5.3,5.3,0,0,0,3.52-.77c.42-.29,0-1-.4-.69-1.78,1.26-4.56.72-6.23-.47-.42-.3-.82.39-.41.69Z" transform="translate(-176.58 -346.16)"/><path class="cls-2" d="M195,371.77A13,13,0,0,0,205.67,369c.39-.34-.17-.9-.56-.56a12.14,12.14,0,0,1-9.88,2.58c-.5-.09-.72.68-.21.77Z" transform="translate(-176.58 -346.16)"/><path class="cls-2" d="M201.08,377.61a13.79,13.79,0,0,0,9.24-7c.22-.46-.47-.87-.69-.41a13,13,0,0,1-8.77,6.61c-.5.11-.29.89.22.77Z" transform="translate(-176.58 -346.16)"/><path class="cls-2" d="M207.92,380.31a6.6,6.6,0,0,0,3.74-1.08,10.06,10.06,0,0,0,3.4-3,3.53,3.53,0,0,0,.68-1.9.4.4,0,0,0-.8,0,3.15,3.15,0,0,1-.77,1.78,9.23,9.23,0,0,1-1.93,1.76,10.57,10.57,0,0,1-2.29,1.24,4.43,4.43,0,0,1-2,.35c-.51-.06-.51.74,0,.8Z" transform="translate(-176.58 -346.16)"/><path class="cls-1" d="M247.07,389.14c12.32-11.49,27.34-2.23,31,7.49-8.5-1.82-24.9,2.69-31-4.6" transform="translate(-176.58 -346.16)"/><path class="cls-2" d="M247.35,389.43c5.08-4.65,11.78-6.51,18.36-4.11a20.46,20.46,0,0,1,12,11.41l.5-.49c-5.17-1.06-10.63-.29-15.85-.26-5,0-11.39-.08-15-4.23-.33-.39-.9.18-.56.57,3.42,4,9.31,4.4,14.2,4.46,5.58.06,11.44-.9,16.95.23.27.06.61-.18.5-.49a21.35,21.35,0,0,0-12.52-12c-6.84-2.49-13.86-.52-19.13,4.31-.38.35.18.91.56.57Z" transform="translate(-176.58 -346.16)"/><path class="cls-2" d="M251.29,392.93a30.07,30.07,0,0,1,20.16.32c.48.18.69-.59.21-.77a30.77,30.77,0,0,0-20.59-.32c-.48.16-.28.93.22.77Z" transform="translate(-176.58 -346.16)"/><path class="cls-1" d="M212,389.14c-12.32-11.49-27.34-2.23-31,7.49,8.5-1.82,24.9,2.69,31-4.6" transform="translate(-176.58 -346.16)"/><path class="cls-2" d="M212.31,388.86c-5.27-4.83-12.29-6.8-19.13-4.31a21.33,21.33,0,0,0-12.52,12c-.12.31.22.55.49.49,5.52-1.13,11.37-.17,16.95-.23,4.9-.06,10.78-.47,14.21-4.46.33-.39-.23-1-.57-.57-3.56,4.15-9.91,4.26-15,4.23-5.23,0-10.68-.8-15.85.26l.49.49a20.5,20.5,0,0,1,12-11.41c6.58-2.4,13.28-.54,18.35,4.11.38.34.95-.22.57-.57Z" transform="translate(-176.58 -346.16)"/><path class="cls-2" d="M208,392.16a30.74,30.74,0,0,0-20.58.32c-.48.17-.27.95.21.77a30.07,30.07,0,0,1,20.16-.32c.49.16.7-.61.21-.77Z" transform="translate(-176.58 -346.16)"/><path class="cls-2" d="M222.75,428.21c-4.86,2.55-5.92,10.16-2.83,14.44a.4.4,0,0,0,.69,0,3.9,3.9,0,0,1,2.13-2l-.49-.28c.63,3.23,1.49,6.36,4.38,8.28s7.44,3.18,10.8,1.95a.41.41,0,0,0,.18-.67c-1.79-2.25-3.07-4.55-2.43-7.51l-.58.24c1.89,1.24,3.54,2.67,5.88,2.9a.4.4,0,0,0,.4-.4c-.59-5.57,1.17-12.78-3.74-16.87-.4-.32-1,.24-.57.57,4.71,3.91,2.94,11,3.51,16.3l.4-.4c-2.16-.21-3.73-1.65-5.48-2.79a.4.4,0,0,0-.59.24c-.71,3.27.64,5.78,2.63,8.29l.18-.67c-3.17,1.16-7.47-.06-10.19-1.87s-3.43-4.8-4-7.81a.41.41,0,0,0-.49-.28,4.69,4.69,0,0,0-2.61,2.4h.69c-2.84-3.94-2-11,2.55-13.35.45-.24.05-.93-.41-.69Z" transform="translate(-176.58 -346.16)"/><path class="cls-1" d="M228.42,378.06c9.76-.08,21.53,1.29,22.91,12.23.46,6.68.92,15.79-.46,21.86-1.84,8.51-7.37,10.94-11.51,17.62-3.69,6.68-3.69,10.33-11.05,9.72" transform="translate(-176.58 -346.16)"/><path class="cls-2" d="M228.42,378.46c5.19,0,10.8.16,15.57,2.44a12.16,12.16,0,0,1,5.45,4.8c1.55,2.7,1.59,5.74,1.75,8.76.35,6.61.81,14-1.48,20.29-2.06,5.72-7.16,9.36-10.39,14.33-1.55,2.4-2.39,5.22-4,7.55s-4.25,2.66-7,2.46c-.52,0-.51.76,0,.8,2.24.16,4.67.06,6.45-1.49s2.64-3.9,3.64-5.92a35.8,35.8,0,0,1,5.7-8.12,34.53,34.53,0,0,0,5.41-7.14c3.2-6.28,2.85-14.1,2.56-20.94-.13-3.14,0-6.51-1.21-9.46a12,12,0,0,0-4.52-5.52c-5.13-3.44-12-3.68-17.92-3.64a.4.4,0,0,0,0,.8Z" transform="translate(-176.58 -346.16)"/><path class="cls-1" d="M230.33,378.06c-9.76-.08-21.53,1.29-22.91,12.23-.46,6.68-.92,15.79.46,21.86,1.84,8.51,7.37,10.94,11.51,17.62,3.68,6.68,3.68,10.33,11.05,9.72" transform="translate(-176.58 -346.16)"/><path class="cls-2" d="M230.33,377.66c-5.42,0-11.28.21-16.23,2.67a12.9,12.9,0,0,0-5.34,4.72c-1.58,2.6-1.77,5.47-1.94,8.43a112.17,112.17,0,0,0-.19,11.45,33.32,33.32,0,0,0,1.7,10.21c2.26,6.06,7.83,9.64,10.9,15.16,1.38,2.48,2.3,5.46,4.23,7.59s4.45,2.19,7,2c.51,0,.52-.84,0-.8-2.31.17-4.75.06-6.41-1.77s-2.4-4.1-3.44-6.15c-2.68-5.24-7.62-8.76-10.41-13.89-3.24-5.94-3-13.42-2.74-20,.11-3.17,0-6.68,1-9.71a11.23,11.23,0,0,1,4.71-5.82c5-3.14,11.46-3.35,17.17-3.31a.4.4,0,0,0,0-.8Z" transform="translate(-176.58 -346.16)"/><path class="cls-2" d="M246.55,403.26c-2.2,1.24-5.46,2-7.65.31-.41-.31-.8.38-.4.69,2.41,1.84,6,1.06,8.46-.31a.4.4,0,0,0-.41-.69Z" transform="translate(-176.58 -346.16)"/><path class="cls-2" d="M212.14,404c2.43,1.37,6.05,2.15,8.46.31.4-.31,0-1-.41-.69-2.18,1.67-5.44.93-7.65-.31a.4.4,0,0,0-.4.69Z" transform="translate(-176.58 -346.16)"/><path class="cls-2" d="M224.27,407.81c1.29,4.29,1.25,8.88,1.25,13.32a.4.4,0,0,0,.8,0c0-4.51,0-9.17-1.28-13.53-.15-.49-.92-.28-.77.21Z" transform="translate(-176.58 -346.16)"/><path class="cls-2" d="M234.06,407.6c-1.31,4.36-1.28,9-1.28,13.53a.4.4,0,0,0,.8,0c0-4.44,0-9,1.25-13.32.15-.49-.62-.7-.77-.21Z" transform="translate(-176.58 -346.16)"/><path class="cls-1" d="M229.64,429.11c-1.66-1.28-3.76-2.7-5-5.09,3.12-.55,6.61-.18,9.73-.18-.55,2.18-3.12,3.81-4.77,5.27" transform="translate(-176.58 -346.16)"/><path class="cls-2" d="M229.84,428.76c-1.86-1.42-3.72-2.82-4.81-4.95l-.24.59c3.17-.54,6.42-.17,9.62-.16l-.39-.51c-.61,2.27-3,3.64-4.67,5.09-.39.34.18.91.57.57,1.79-1.57,4.21-3,4.87-5.45a.4.4,0,0,0-.38-.5c-3.28,0-6.58-.36-9.84.19a.4.4,0,0,0-.23.59c1.15,2.25,3.13,3.72,5.09,5.23.41.31.81-.38.41-.69Z" transform="translate(-176.58 -346.16)"/><path class="cls-2" d="M229.16,429c0,2.26,0,4.52,0,6.79a.4.4,0,0,0,.8,0c0-2.27,0-4.53,0-6.79a.4.4,0,0,0-.8,0Z" transform="translate(-176.58 -346.16)"/><path class="cls-2" d="M225.63,435.22a6.57,6.57,0,0,0,7.82,0c.42-.3,0-1-.4-.69a6.1,6.1,0,0,1-3.41,1.18,6.18,6.18,0,0,1-3.61-1.18c-.42-.3-.82.4-.4.69Z" transform="translate(-176.58 -346.16)"/><path class="cls-1" d="M227.75,374.7c-12.52,1.46-10.11,17.05-2.37,20.21.47-1.73,0-4,.47-5.84,4.11,2.37,3.48,8.37,3.32,12.32,5.21-1.9,8.05-6.64,6.32-12,1.1.32,2.36,2.37,2.84,3.48,2.37-3.79,2-10.9-.16-14.69-2-3.31-6.79-4.11-10.42-3.47" transform="translate(-176.58 -346.16)"/><path class="cls-2" d="M227.75,374.3c-4,.5-7.49,2.62-8.71,6.6a12.76,12.76,0,0,0,1.69,10.5,10.11,10.11,0,0,0,4.45,3.86.4.4,0,0,0,.58-.24c.45-1.93.07-3.91.48-5.84l-.59.24c4,2.43,3.29,8,3.12,12a.4.4,0,0,0,.5.38c5.26-2,8.3-6.94,6.6-12.49l-.49.49c1.25.48,2.08,2.14,2.6,3.29a.4.4,0,0,0,.69,0c2.38-4,2.21-9.79.41-14-1.91-4.42-7.08-5.49-11.44-4.79-.51.08-.29.85.21.77,4.35-.7,9.15.55,10.77,5,1.39,3.84,1.51,8.95-.64,12.55h.69c-.62-1.39-1.59-3.09-3.08-3.66a.4.4,0,0,0-.49.49c1.56,5.11-1.18,9.67-6,11.51l.51.39c.18-4.32.76-10-3.52-12.67a.4.4,0,0,0-.58.24c-.42,1.93,0,3.93-.48,5.85l.59-.24c-3.91-1.66-6.13-6.07-6.21-10.18-.1-5.12,3.39-8.66,8.38-9.29.5-.07.51-.87,0-.8Z" transform="translate(-176.58 -346.16)"/><path class="cls-3" d="M195.15,414.73a50.54,50.54,0,0,0-.67,5.39,19.55,19.55,0,0,0-3.57.6c1,.6,3.42.76,3.5,1.08.16.64.59,3.81,1.13,5.43.39-2,.63-3.69.89-5.47,0-.19,2.44-.54,3.43-1.08a12.87,12.87,0,0,0-3.68-.56,41.26,41.26,0,0,0-1-5.39" transform="translate(-176.58 -346.16)"/><path class="cls-3" d="M243.53,348.87a40.92,40.92,0,0,0-.57,4.58,17.22,17.22,0,0,0-3,.51c.87.51,2.91.65,3,.92.14.54.5,3.24,1,4.61.33-1.73.53-3.14.75-4.65,0-.16,2.07-.46,2.92-.92a11.27,11.27,0,0,0-3.13-.47,35.7,35.7,0,0,0-.87-4.58" transform="translate(-176.58 -346.16)"/><path class="cls-3" d="M267.2,420.36a36.24,36.24,0,0,0-.48,3.89,14.59,14.59,0,0,0-2.58.44c.74.43,2.47.55,2.53.78.11.46.42,2.75.81,3.92.28-1.47.46-2.67.64-3.95,0-.14,1.77-.39,2.48-.78a9.18,9.18,0,0,0-2.66-.41,28.47,28.47,0,0,0-.74-3.89" transform="translate(-176.58 -346.16)"/><path class="cls-4" d="M253.85,439.42a1.55,1.55,0,1,0,.11,3.09,1.55,1.55,0,0,0-.11-3.09" transform="translate(-176.58 -346.16)"/><path class="cls-4" d="M215,355.81a2.06,2.06,0,1,0,.14,4.12,2.06,2.06,0,0,0-.14-4.12" transform="translate(-176.58 -346.16)"/><path class="cls-4" d="M180.9,408.21a1.55,1.55,0,1,0,.11,3.09,1.55,1.55,0,0,0-.11-3.09" transform="translate(-176.58 -346.16)"/><path class="cls-4" d="M279.79,409.45a1,1,0,1,0,.07,2.06,1,1,0,0,0-.07-2.06" transform="translate(-176.58 -346.16)"/><path class="cls-4" d="M183.66,376a1,1,0,1,0,.07,2,1,1,0,0,0-.07-2" transform="translate(-176.58 -346.16)"/><path class="cls-4" d="M207.52,441.48a1,1,0,1,0,.08,2.06,1,1,0,0,0-.08-2.06" transform="translate(-176.58 -346.16)"/><path class="cls-2" d="M262.92,409.57a1.25,1.25,0,0,0,0-2.5,1.25,1.25,0,0,0,0,2.5Z" transform="translate(-176.58 -346.16)"/><path class="cls-2" d="M190.82,436.61a1.25,1.25,0,0,0,0-2.5,1.25,1.25,0,0,0,0,2.5Z" transform="translate(-176.58 -346.16)"/><path class="cls-2" d="M229.44,366.83a1,1,0,0,0,0-2,1,1,0,0,0,0,2Z" transform="translate(-176.58 -346.16)"/><path class="cls-2" d="M273.22,380.35a1,1,0,0,0,0-2,1,1,0,0,0,0,2Z" transform="translate(-176.58 -346.16)"/><path class="cls-2" d="M230.09,348.16a1,1,0,0,0,0-2,1,1,0,0,0,0,2Z" transform="translate(-176.58 -346.16)"/><path class="cls-2" d="M252,429.27a1,1,0,0,0,0-2,1,1,0,0,0,0,2Z" transform="translate(-176.58 -346.16)"/><path class="cls-2" d="M193.4,405.21a.75.75,0,0,0,0-1.5.75.75,0,0,0,0,1.5Z" transform="translate(-176.58 -346.16)"/><path class="cls-2" d="M282.23,386.54a.75.75,0,0,0,0-1.5.75.75,0,0,0,0,1.5Z" transform="translate(-176.58 -346.16)"/><path class="cls-2" d="M211.42,433.53a.75.75,0,0,0,0-1.5.75.75,0,0,0,0,1.5Z" transform="translate(-176.58 -346.16)"/><path class="cls-2" d="M265.5,436.11a.75.75,0,0,0,0-1.5.75.75,0,0,0,0,1.5Z" transform="translate(-176.58 -346.16)"/><path class="cls-2" d="M177.3,392.33a.75.75,0,0,0,0-1.5.75.75,0,0,0,0,1.5Z" transform="translate(-176.58 -346.16)"/><path class="cls-2" d="M211.42,348.56a.75.75,0,0,0,0-1.5.75.75,0,0,0,0,1.5Z" transform="translate(-176.58 -346.16)"/></g></svg>