<svg xmlns="http://www.w3.org/2000/svg" viewBox="0 0 100.94 104.61"><defs><style>.cls-1{fill:#ff7e00;}.cls-2{fill:#e9e3ff;}.cls-3{fill:#ffe1d7;}.cls-4{fill:#fff;}</style></defs><g id="OBJECTS"><path class="cls-1" d="M485.24,363.93c1.45-2.67,3.63-6.06,6.05-7.75,1.94-1.45,7.75-4.6,7.26-.24,1.21-.73,11.14-6.54,9-1,1.69-1,10.65-5.57,8.47.48,3.31-.91,10.65-2.17,8.71,3.15,3.88.24,6.54,3.39,1.94,5.33" transform="translate(-460.28 -345.26)"/><path class="cls-2" d="M485.59,364.13c1.75-3.2,3.81-6.39,7-8.33,1.47-.9,5.87-3.3,5.58.14a.4.4,0,0,0,.61.34,37.38,37.38,0,0,1,4.92-2.52,7.59,7.59,0,0,1,2.9-.78c1.15,0,.85,1.07.54,1.88-.12.34.31.62.59.46a23.63,23.63,0,0,1,4.88-2.16,4.64,4.64,0,0,1,2.67-.3c1,.4.61,1.69.34,2.49a.4.4,0,0,0,.49.49c2.56-.7,9.89-2.27,8.22,2.65a.4.4,0,0,0,.38.51c1.28.11,2.93.5,3.69,1.65,1,1.43-.86,2.44-2,2.93-.47.21-.06.9.4.69,1.4-.62,3.22-1.88,2.45-3.65s-2.93-2.28-4.59-2.42l.39.51c2-5.82-6.06-4.5-9.2-3.64l.49.49c.31-.92.65-2.2-.11-3a2.8,2.8,0,0,0-2.48-.49,19.77,19.77,0,0,0-6.47,2.56l.58.46c.31-.82.63-2-.22-2.61s-1.95-.23-2.77,0a28.92,28.92,0,0,0-6.55,3.11l.6.35c.3-3.61-3.42-2.59-5.5-1.54-4,2-6.47,5.53-8.55,9.32-.25.46.44.86.69.41Z" transform="translate(-460.28 -345.26)"/><path class="cls-1" d="M475,383.78c0-19.13,13.58-25.24,31-25.86,18-.62,29.12,8.29,31.65,25.44-16.76-23.58-47.17,27.31-62.06,3.11" transform="translate(-460.28 -345.26)"/><path class="cls-2" d="M475.42,383.78c0-5.94,1.39-12,5.44-16.54,3.61-4.05,8.72-6.31,13.92-7.54,11.24-2.64,25.38-2.5,34.19,6,4.86,4.7,7.28,11.19,8.27,17.76l.74-.31c-2.62-3.63-6.23-6.31-10.8-6.58s-8.81,1.48-12.73,3.39c-4.64,2.27-9,5-13.5,7.57-4,2.23-8.35,4.57-13,5.13-5.26.64-9.34-2-12.06-6.4-.27-.44-1,0-.69.4,2.27,3.64,5.55,6.49,10,6.86s8.51-1.39,12.26-3.23c4.61-2.27,8.95-5.06,13.44-7.55,4.12-2.29,8.54-4.6,13.28-5.25,5.44-.74,10,1.68,13.12,6.07a.41.41,0,0,0,.74-.31c-.92-6.07-3-12.06-7.16-16.72A26.84,26.84,0,0,0,516,358.29a50.84,50.84,0,0,0-19.55.23c-5.46,1-10.93,3.07-15,6.94-5,4.76-6.82,11.57-6.85,18.32a.4.4,0,0,0,.8,0Z" transform="translate(-460.28 -345.26)"/><path class="cls-1" d="M479.43,385.23c-3.14-1.5-6.05-2.18-7.5-1.46-2.91,1.46-.49,2.91,1.93,2.42-1.93,1.46-4.35,5.57-.24,5.57,2.42,0,5.33-4.36,5.81-6.53" transform="translate(-460.28 -345.26)"/><path class="cls-2" d="M479.63,384.88a21.93,21.93,0,0,0-3.69-1.41,8.22,8.22,0,0,0-3-.36,3.57,3.57,0,0,0-2.39,1.22,1.21,1.21,0,0,0,.3,1.82,4.29,4.29,0,0,0,3.16.43l-.31-.73a7.78,7.78,0,0,0-2.18,2.59,2.81,2.81,0,0,0-.21,2.81,3,3,0,0,0,3.2.77,7.22,7.22,0,0,0,3.23-2.63,10.91,10.91,0,0,0,2.12-4.06c.11-.5-.66-.71-.77-.21a9.69,9.69,0,0,1-1.48,3.09,8.85,8.85,0,0,1-2.65,2.73,2.67,2.67,0,0,1-2.8.07c-.6-.47-.31-1.38-.05-2a6.7,6.7,0,0,1,2-2.51.4.4,0,0,0-.31-.73,4.1,4.1,0,0,1-1.6,0,1.78,1.78,0,0,1-1.05-.47c-.51-.6,1-1.27,1.43-1.37a6,6,0,0,1,2.88.18,19.8,19.8,0,0,1,3.81,1.41c.46.22.87-.47.4-.69Z" transform="translate(-460.28 -345.26)"/><path class="cls-1" d="M484.76,363.68c9.92,4.6,13.87,15.74,15.49,24.45" transform="translate(-460.28 -345.26)"/><path class="cls-2" d="M484.56,364c9.34,4.43,13.49,14.61,15.3,24.21.1.5.87.29.77-.21-1.84-9.79-6.15-20.18-15.67-24.69-.46-.22-.87.47-.4.69Z" transform="translate(-460.28 -345.26)"/><path class="cls-1" d="M482.09,378.69c2.42,1.45,4.85,1,6.3-1.45" transform="translate(-460.28 -345.26)"/><path class="cls-2" d="M481.89,379a5.31,5.31,0,0,0,3.82.76,4.87,4.87,0,0,0,3-2.36c.27-.44-.42-.84-.69-.4a4.09,4.09,0,0,1-2.54,2,4.47,4.47,0,0,1-3.2-.68.4.4,0,0,0-.41.69Z" transform="translate(-460.28 -345.26)"/><path class="cls-2" d="M486.65,362.82a10.14,10.14,0,0,1,5.27-1.28c.63,0,1.47.19,1.78.83.41.85-.28,2-.7,2.69a.4.4,0,0,0,.46.58c1.29-.46,3-1.08,4.37-.64a1.57,1.57,0,0,1,.94,2.12,8.85,8.85,0,0,1-2.07,2.57.41.41,0,0,0,.28.69c1.21.07,2.75,0,3.54,1.13,1.16,1.63.08,3.55-1,4.84-.17.2-.14.62.18.67a19.59,19.59,0,0,1,2.86.46c1.27.39,1.49,1.33,1.21,2.56-.11.5.66.71.78.21.27-1.21.21-2.51-1-3.2a10.2,10.2,0,0,0-3.68-.8l.18.67c1.34-1.55,2.42-3.65,1.27-5.63-.9-1.55-2.74-1.62-4.34-1.71l.28.68c.84-.93,1.94-1.79,2.31-3a2.43,2.43,0,0,0-.78-2.64c-1.52-1.11-4-.28-5.55.28l.45.59a4.12,4.12,0,0,0,.82-3.19,2.25,2.25,0,0,0-1.78-1.42,10,10,0,0,0-6.48,1.28c-.45.24-.05.94.4.69Z" transform="translate(-460.28 -345.26)"/><path class="cls-2" d="M497.72,359a15.89,15.89,0,0,1,3.08.54,2.06,2.06,0,0,1,1.33,1.86,2.94,2.94,0,0,1-1.32,2.13c-.28.24,0,.67.28.69,1.21.05,3-.47,4.07.27,1.84,1.31-.87,3-1.68,3.88a.41.41,0,0,0,.28.69c1.59.13,3.4-.44,4.93.15a2.3,2.3,0,0,1,1.3,2.74,5.65,5.65,0,0,1-2.56,2.9.4.4,0,0,0,.2.74,8.43,8.43,0,0,1,3.93,1.09c1.46,1,1.32,2.46.57,3.88-.24.45.45.86.69.4.78-1.47,1.1-3.21-.23-4.48s-3.26-1.55-5-1.69l.2.75c1.94-1.32,4.35-4,2.28-6.32-1.53-1.73-4.37-.8-6.35-1l.28.68c1.17-1.25,3.48-2.59,2.07-4.62-1.06-1.53-3.47-.83-5-.9l.29.68c1.34-1.11,2.14-2.88.93-4.42-1-1.34-2.88-1.15-4.38-1.45-.5-.11-.71.66-.21.77Z" transform="translate(-460.28 -345.26)"/><path class="cls-2" d="M506.8,358.26c1.21.35,2.76.29,3.8,1.08,1.84,1.37-.2,3-1.36,3.88a.4.4,0,0,0,.21.74c1.16.06,2.7.25,3.51,1.2,1,1.13-.17,2.43-1,3.2a.41.41,0,0,0,.28.69c1.32.07,3.16-.26,4.23.68,1.94,1.69-.76,3.6-2,4.5a.41.41,0,0,0,.2.75c1,.06,2,0,3,.11a3.1,3.1,0,0,1,1.61.57,1.21,1.21,0,0,1-.24,2.06c-.44.27,0,1,.4.69a2,2,0,0,0,.18-3.48c-1.4-1-3.38-.65-5-.75l.2.74c1.64-1.18,4-2.86,2.65-5.17-1-1.79-3.54-1.41-5.27-1.5l.28.68c1.06-1,2.19-2.49,1.31-3.95s-2.86-1.74-4.37-1.82l.2.75c1.37-1.06,3.24-2.43,2.18-4.37-.91-1.69-3.21-1.59-4.82-2.05a.4.4,0,0,0-.21.77Z" transform="translate(-460.28 -345.26)"/><path class="cls-2" d="M515.63,359c1,.38,2.68,1.1,2.72,2.35s-1.45,1.91-2.33,2.32a.4.4,0,0,0,.1.73c1.45.26,3,0,4.42.5a1.71,1.71,0,0,1,1.3,1.92c-.21,1.1-1.48,1.92-2.31,2.54a.4.4,0,0,0,.2.74,21.94,21.94,0,0,1,3.15.24c.68.17,1.41.58,1,1.44-.26.59-1,1-1.47,1.33a.4.4,0,0,0,0,.69c.6.28,1.6.67,1.92,1.32.41.82-.87,1.43-1.44,1.74a.4.4,0,0,0,.4.69c.84-.45,2.09-1.18,1.92-2.32s-1.52-1.71-2.4-2.12v.69c1.11-.78,2.95-2.32,1.41-3.7-1.13-1-3.13-.66-4.52-.8l.21.75c1.52-1.14,4-3.29,2-5.24-1.44-1.4-3.83-.86-5.62-1.18l.1.73c1.22-.57,2.86-1.58,2.71-3.17s-2-2.45-3.29-3c-.48-.18-.69.59-.22.77Z" transform="translate(-460.28 -345.26)"/><path class="cls-2" d="M525.7,363.3c1.21.84,3.38,4.09.69,4.34a.41.41,0,0,0-.2.75c1.1.64,3.09,1.27,3.31,2.73s-1.82,2.07-3,2.09c-.43,0-.56.69-.11.78,1.1.22,3.09,1.73,1.48,2.66a.4.4,0,0,0,.4.69c2.28-1.32.18-3.75-1.66-4.12l-.11.79c1.53,0,3.69-.7,3.8-2.53.13-2.08-2.26-2.93-3.72-3.78l-.2.74c1.45-.13,2.39-1,2-2.53a6,6,0,0,0-2.31-3.3c-.43-.29-.83.4-.41.69Z" transform="translate(-460.28 -345.26)"/><path class="cls-2" d="M533.25,371.83a2.85,2.85,0,0,1,.61,2.12c-.14.79-.8.81-1.46.52-.35-.15-.76.17-.55.55a7.62,7.62,0,0,1,.82,1.76,1.12,1.12,0,0,1,0,.7c-.13.25-.46.31-.71.34a.41.41,0,0,0-.28.49.41.41,0,0,0,.49.28,1.43,1.43,0,0,0,1.33-1.69,6.86,6.86,0,0,0-1-2.28l-.54.54a2.29,2.29,0,0,0,1.68.21,1.5,1.5,0,0,0,.91-1.05,3.53,3.53,0,0,0-.78-3.05c-.32-.4-.88.17-.56.56Z" transform="translate(-460.28 -345.26)"/><path class="cls-1" d="M503.87,379.42c.49,7.26,10.41,11.62,16.46,10.65-3.38-9.25-10.65-10.65-16.46-10.65" transform="translate(-460.28 -345.26)"/><path class="cls-2" d="M503.47,379.42c.31,3.85,3,6.84,6.26,8.7a16.87,16.87,0,0,0,10.71,2.33.4.4,0,0,0,.28-.49,16.08,16.08,0,0,0-7.42-9,20.41,20.41,0,0,0-9.43-2,.4.4,0,0,0,0,.8,19.69,19.69,0,0,1,8.86,1.76,15.19,15.19,0,0,1,7.22,8.59l.28-.49a16,16,0,0,1-9.92-2.15c-3-1.7-5.75-4.48-6-8.11,0-.51-.84-.52-.8,0Z" transform="translate(-460.28 -345.26)"/><path class="cls-1" d="M536.31,381.35c-11.13,1.46-7.5,14-6,21.3,5.09-1.69,8.47-9.68,8.47-15,1.94,5.32,4.85,10.58,12.59,11.37A19.31,19.31,0,0,0,546,384.26c-2.91-2.91-5.81-2.91-9.69-2.91" transform="translate(-460.28 -345.26)"/><path class="cls-2" d="M536.21,381a9.17,9.17,0,0,0-5.93,2.91,9.94,9.94,0,0,0-2.08,5.52c-.44,4.49.8,9,1.68,13.36a.4.4,0,0,0,.49.28c2.89-1,4.93-3.56,6.31-6.2a20.43,20.43,0,0,0,2.45-9.19l-.78.1a21.72,21.72,0,0,0,4.3,7.66,13.71,13.71,0,0,0,8.67,4c.23,0,.38-.2.4-.4a19.59,19.59,0,0,0-4.26-13.72,10.9,10.9,0,0,0-4.91-3.7,19,19,0,0,0-6.24-.65.4.4,0,0,0,0,.8,19.6,19.6,0,0,1,5.77.53,10.09,10.09,0,0,1,4.81,3.59,18.74,18.74,0,0,1,4,13.15l.4-.4a12.81,12.81,0,0,1-8.27-4,21,21,0,0,1-3.93-7.12.4.4,0,0,0-.79.11,19.57,19.57,0,0,1-2.2,8.53c-1.29,2.54-3.2,5.11-6,6.09l.49.28c-.82-4-1.9-8.14-1.71-12.3a10,10,0,0,1,1.67-5.51,8.36,8.36,0,0,1,5.81-3c.51-.07.29-.84-.21-.77Z" transform="translate(-460.28 -345.26)"/><path class="cls-2" d="M531,402.05a73.86,73.86,0,0,1,1.43-14.3c.1-.5-.67-.71-.77-.21a74.47,74.47,0,0,0-1.46,14.51.4.4,0,0,0,.8,0Z" transform="translate(-460.28 -345.26)"/><path class="cls-2" d="M531.33,402.25c2.32-4.08,3.29-8.71,4-13.29.08-.5-.69-.72-.77-.21-.74,4.51-1.67,9.08-4,13.1a.4.4,0,0,0,.69.4Z" transform="translate(-460.28 -345.26)"/><path class="cls-2" d="M551.71,398.92c-1.25-4.73-3.86-9-6.7-12.93-.3-.41-1,0-.69.41,2.8,3.87,5.39,8.07,6.62,12.73a.4.4,0,0,0,.77-.21Z" transform="translate(-460.28 -345.26)"/><path class="cls-2" d="M551.6,398.74c-3.47-3-6.84-6.39-8.89-10.57-.23-.46-.92-.06-.69.41,2.08,4.23,5.49,7.66,9,10.73.39.33,1-.23.56-.57Z" transform="translate(-460.28 -345.26)"/><path class="cls-1" d="M536.76,434.68c-1.45,2.67-3.63,6.06-6,7.75-1.94,1.45-7.75,4.6-7.26.24-1.21.73-11.14,6.54-9,1-1.69,1-10.65,5.57-8.47-.48-3.3.91-10.65,2.17-8.71-3.15-3.88-.24-6.54-3.39-1.94-5.33" transform="translate(-460.28 -345.26)"/><path class="cls-2" d="M536.42,434.48c-1.77,3.2-3.82,6.38-7,8.33-1.47.9-5.86,3.3-5.58-.14a.4.4,0,0,0-.6-.34,37.5,37.5,0,0,1-4.93,2.52,7.54,7.54,0,0,1-2.9.78c-1.15,0-.85-1.07-.54-1.88a.41.41,0,0,0-.59-.46,23.63,23.63,0,0,1-4.88,2.16,4.64,4.64,0,0,1-2.67.3c-1-.4-.61-1.69-.34-2.49a.4.4,0,0,0-.49-.49c-2.56.7-9.89,2.27-8.22-2.65a.4.4,0,0,0-.38-.51c-1.28-.11-2.93-.5-3.69-1.65-.95-1.43.86-2.44,1.95-2.93.47-.21.06-.9-.4-.69-1.4.63-3.22,1.88-2.44,3.65s2.92,2.28,4.58,2.42l-.39-.51c-2,5.82,6.06,4.5,9.2,3.64l-.49-.49c-.31.92-.65,2.2.11,3a2.81,2.81,0,0,0,2.49.49,19.61,19.61,0,0,0,6.46-2.57l-.58-.45c-.31.82-.63,2,.22,2.61s1.95.23,2.77,0a28.92,28.92,0,0,0,6.55-3.11l-.6-.35c-.3,3.61,3.42,2.59,5.51,1.54,4-2,6.46-5.53,8.55-9.32.24-.46-.45-.86-.69-.41Z" transform="translate(-460.28 -345.26)"/><path class="cls-1" d="M547,414.83c0,19.13-13.59,25.24-31,25.86-18,.62-29.12-8.29-31.65-25.45,16.76,23.59,47.17-27.3,62.07-3.1" transform="translate(-460.28 -345.26)"/><path class="cls-2" d="M546.59,414.83c0,5.94-1.4,12-5.45,16.54-3.61,4.05-8.71,6.31-13.92,7.54-11.24,2.64-25.38,2.5-34.19-6-4.86-4.7-7.28-11.19-8.27-17.76l-.73.31c2.61,3.63,6.22,6.31,10.8,6.58s8.81-1.48,12.72-3.39c4.64-2.27,9-5.05,13.5-7.57,4-2.23,8.35-4.57,13-5.13,5.26-.64,9.34,2,12.06,6.4.27.44,1,0,.69-.4-2.26-3.64-5.55-6.49-10-6.86s-8.51,1.39-12.26,3.23c-4.61,2.27-8.95,5.06-13.44,7.55-4.12,2.29-8.54,4.6-13.28,5.25-5.44.74-10-1.68-13.12-6.07a.4.4,0,0,0-.73.31c.91,6.07,3,12.06,7.15,16.72A26.84,26.84,0,0,0,506,440.32a50.89,50.89,0,0,0,19.56-.24c5.45-1,10.92-3.05,15-6.93,5-4.76,6.82-11.57,6.86-18.32a.4.4,0,0,0-.8,0Z" transform="translate(-460.28 -345.26)"/><path class="cls-1" d="M542.57,413.38c3.15,1.5,6,2.18,7.5,1.46,2.91-1.46.49-2.91-1.93-2.42,1.93-1.46,4.35-5.57.24-5.57-2.42,0-5.33,4.36-5.81,6.53" transform="translate(-460.28 -345.26)"/><path class="cls-2" d="M542.37,413.73a21.93,21.93,0,0,0,3.69,1.41,8.46,8.46,0,0,0,3,.36,3.55,3.55,0,0,0,2.39-1.22,1.21,1.21,0,0,0-.3-1.82A4.29,4.29,0,0,0,548,412l.31.73a7.78,7.78,0,0,0,2.18-2.59,2.81,2.81,0,0,0,.21-2.81,3,3,0,0,0-3.2-.77,7.27,7.27,0,0,0-3.23,2.63,11.05,11.05,0,0,0-2.12,4.06c-.11.5.66.71.78.21a9.28,9.28,0,0,1,1.48-3.09,8.71,8.71,0,0,1,2.64-2.73,2.67,2.67,0,0,1,2.8-.07c.6.47.31,1.38,0,2a6.7,6.7,0,0,1-2,2.51.4.4,0,0,0,.31.73,4.1,4.1,0,0,1,1.6,0,1.78,1.78,0,0,1,1,.47c.51.6-1,1.27-1.43,1.37a6,6,0,0,1-2.88-.18,20.76,20.76,0,0,1-3.81-1.41c-.46-.22-.87.47-.4.69Z" transform="translate(-460.28 -345.26)"/><path class="cls-1" d="M537.25,434.93c-9.93-4.6-13.88-15.74-15.5-24.45" transform="translate(-460.28 -345.26)"/><path class="cls-2" d="M537.45,434.58c-9.35-4.43-13.5-14.61-15.31-24.21-.1-.5-.87-.29-.77.22,1.84,9.79,6.15,20.17,15.67,24.68.47.22.87-.47.41-.69Z" transform="translate(-460.28 -345.26)"/><path class="cls-1" d="M539.91,419.92c-2.42-1.45-4.84-1-6.3,1.45" transform="translate(-460.28 -345.26)"/><path class="cls-2" d="M540.11,419.57a5.31,5.31,0,0,0-3.82-.76,4.87,4.87,0,0,0-3,2.36c-.27.44.42.84.69.4a4.09,4.09,0,0,1,2.54-2,4.5,4.5,0,0,1,3.21.68c.44.27.84-.42.4-.69Z" transform="translate(-460.28 -345.26)"/><path class="cls-2" d="M535.35,435.79a10.14,10.14,0,0,1-5.27,1.28c-.63-.05-1.47-.19-1.78-.83-.41-.85.28-2,.7-2.69a.4.4,0,0,0-.45-.58c-1.3.46-3,1.08-4.38.64a1.58,1.58,0,0,1-.94-2.13,8.94,8.94,0,0,1,2.07-2.56.41.41,0,0,0-.28-.69c-1.21-.07-2.75,0-3.54-1.13-1.16-1.63-.08-3.55,1-4.84.18-.2.15-.62-.18-.67a19.59,19.59,0,0,1-2.86-.46c-1.27-.39-1.49-1.33-1.21-2.56.11-.5-.66-.71-.78-.21-.27,1.21-.21,2.51,1,3.2a10.25,10.25,0,0,0,3.68.8l-.18-.67c-1.34,1.55-2.43,3.65-1.27,5.63.91,1.55,2.74,1.62,4.34,1.71l-.28-.68c-.84.93-1.94,1.79-2.31,3a2.44,2.44,0,0,0,.78,2.64c1.52,1.11,4,.28,5.55-.28l-.45-.59a4.12,4.12,0,0,0-.82,3.19,2.27,2.27,0,0,0,1.78,1.42,10,10,0,0,0,6.48-1.28c.45-.24,0-.93-.4-.69Z" transform="translate(-460.28 -345.26)"/><path class="cls-2" d="M524.28,439.62a15.89,15.89,0,0,1-3.08-.54,2,2,0,0,1-1.32-1.86,2.93,2.93,0,0,1,1.31-2.13c.28-.24,0-.67-.28-.68-1.21-.06-3,.46-4.07-.28-1.83-1.31.87-3,1.69-3.88a.41.41,0,0,0-.29-.69c-1.59-.13-3.4.43-4.93-.15a2.3,2.3,0,0,1-1.3-2.74,5.65,5.65,0,0,1,2.56-2.9.4.4,0,0,0-.2-.74,8.43,8.43,0,0,1-3.93-1.09c-1.46-1-1.32-2.46-.56-3.88.24-.45-.45-.86-.7-.4-.78,1.47-1.1,3.21.23,4.48s3.26,1.55,5,1.69l-.2-.75c-1.94,1.32-4.35,4-2.28,6.32,1.54,1.73,4.37.8,6.35,1l-.28-.68c-1.17,1.25-3.48,2.59-2.07,4.62,1.06,1.52,3.47.83,5,.91l-.29-.69c-1.34,1.11-2.13,2.88-.93,4.42,1,1.34,2.88,1.15,4.38,1.46.5.1.71-.67.21-.78Z" transform="translate(-460.28 -345.26)"/><path class="cls-2" d="M515.2,440.35c-1.21-.35-2.76-.29-3.8-1.08-1.84-1.37.2-3,1.36-3.88a.4.4,0,0,0-.2-.74c-1.17-.06-2.71-.25-3.52-1.2-1-1.13.17-2.43,1-3.2a.41.41,0,0,0-.28-.69c-1.31-.07-3.16.26-4.23-.68-1.93-1.69.76-3.6,2-4.5a.41.41,0,0,0-.2-.75c-1-.06-2,0-3-.11a3,3,0,0,1-1.6-.57,1.21,1.21,0,0,1,.23-2.06c.44-.27,0-1-.4-.69a2,2,0,0,0-.18,3.48c1.4,1,3.38.65,5,.75l-.2-.74c-1.64,1.18-4,2.87-2.65,5.17,1,1.79,3.54,1.41,5.27,1.5l-.28-.68c-1.06,1-2.19,2.49-1.31,3.95s2.86,1.74,4.38,1.82l-.21-.75c-1.37,1.06-3.24,2.43-2.18,4.38.91,1.68,3.21,1.58,4.82,2a.4.4,0,0,0,.21-.77Z" transform="translate(-460.28 -345.26)"/><path class="cls-2" d="M506.37,439.58c-1-.38-2.68-1.1-2.72-2.35s1.45-1.91,2.33-2.32a.4.4,0,0,0-.1-.73c-1.45-.27-3,0-4.42-.5a1.71,1.71,0,0,1-1.3-1.92c.21-1.1,1.48-1.92,2.31-2.54a.41.41,0,0,0-.2-.75,20.68,20.68,0,0,1-3.15-.23c-.68-.17-1.4-.58-1-1.44.26-.59,1-1,1.47-1.33.22-.16.3-.56,0-.69-.6-.28-1.6-.67-1.92-1.32-.41-.82.87-1.43,1.44-1.74a.4.4,0,0,0-.4-.69c-.84.45-2.09,1.18-1.92,2.32s1.52,1.71,2.4,2.12v-.69c-1.11.78-3,2.32-1.41,3.7,1.14,1,3.13.67,4.52.79l-.2-.74c-1.53,1.14-4,3.29-2,5.24,1.44,1.4,3.83.86,5.62,1.18l-.09-.73c-1.23.57-2.87,1.58-2.72,3.17s2,2.45,3.3,3c.48.19.68-.59.21-.77Z" transform="translate(-460.28 -345.26)"/><path class="cls-2" d="M496.3,435.31c-1.21-.84-3.38-4.09-.69-4.34a.41.41,0,0,0,.2-.75c-1.1-.64-3.09-1.27-3.31-2.73s1.82-2.07,3-2.09c.44,0,.56-.69.11-.78-1.1-.22-3.09-1.73-1.48-2.66a.4.4,0,0,0-.4-.69c-2.28,1.32-.18,3.75,1.66,4.12l.11-.79c-1.53,0-3.69.7-3.8,2.53-.13,2.08,2.26,2.93,3.72,3.78l.2-.74c-1.45.14-2.39,1-2,2.53a6,6,0,0,0,2.31,3.3c.43.29.83-.4.41-.69Z" transform="translate(-460.28 -345.26)"/><path class="cls-2" d="M488.75,426.78a2.85,2.85,0,0,1-.61-2.12c.14-.79.8-.81,1.46-.52.35.15.76-.17.55-.55a8.06,8.06,0,0,1-.82-1.76,1.12,1.12,0,0,1,0-.7c.13-.25.46-.31.71-.34a.41.41,0,0,0,.28-.49.41.41,0,0,0-.49-.28,1.42,1.42,0,0,0-1.32,1.69,6.64,6.64,0,0,0,1,2.28l.54-.54a2.29,2.29,0,0,0-1.68-.21,1.5,1.5,0,0,0-.91,1.05,3.53,3.53,0,0,0,.78,3c.32.4.89-.17.56-.56Z" transform="translate(-460.28 -345.26)"/><path class="cls-1" d="M518.13,419.19c-.49-7.26-10.41-11.62-16.46-10.65,3.39,9.25,10.65,10.65,16.46,10.65" transform="translate(-460.28 -345.26)"/><path class="cls-2" d="M518.53,419.19c-.31-3.85-3-6.84-6.26-8.7a16.87,16.87,0,0,0-10.71-2.33.4.4,0,0,0-.28.49,16.08,16.08,0,0,0,7.42,9,20.41,20.41,0,0,0,9.43,1.95.4.4,0,0,0,0-.8,19.69,19.69,0,0,1-8.86-1.76,15.16,15.16,0,0,1-7.22-8.59l-.28.49a16,16,0,0,1,9.92,2.15c3,1.7,5.75,4.48,6,8.11,0,.51.84.52.8,0Z" transform="translate(-460.28 -345.26)"/><path class="cls-1" d="M485.69,417.26c11.13-1.46,7.5-14,6.05-21.3-5.08,1.69-8.47,9.68-8.47,15-1.94-5.32-4.84-10.58-12.59-11.37A19.31,19.31,0,0,0,476,414.35c2.91,2.91,5.81,2.91,9.69,2.91" transform="translate(-460.28 -345.26)"/><path class="cls-2" d="M485.79,417.64a9.17,9.17,0,0,0,5.93-2.91,9.94,9.94,0,0,0,2.08-5.52c.44-4.49-.8-9-1.68-13.36a.4.4,0,0,0-.49-.28c-2.89,1-4.93,3.56-6.31,6.2a20.43,20.43,0,0,0-2.45,9.19l.78-.1a21.56,21.56,0,0,0-4.3-7.66,13.71,13.71,0,0,0-8.67-4c-.23,0-.38.2-.4.4a19.59,19.59,0,0,0,4.26,13.72,10.9,10.9,0,0,0,4.91,3.7,19,19,0,0,0,6.24.65.4.4,0,0,0,0-.8,19.6,19.6,0,0,1-5.77-.53,10.09,10.09,0,0,1-4.81-3.59,18.84,18.84,0,0,1-4-13.15l-.4.4a12.86,12.86,0,0,1,8.28,4,21,21,0,0,1,3.92,7.12.4.4,0,0,0,.79-.11,19.45,19.45,0,0,1,2.21-8.53c1.28-2.54,3.19-5.11,6-6.09l-.5-.28c.82,4,1.9,8.14,1.71,12.3a10,10,0,0,1-1.67,5.51,8.36,8.36,0,0,1-5.81,3c-.51.07-.29.84.21.77Z" transform="translate(-460.28 -345.26)"/><path class="cls-2" d="M491,396.56a74.66,74.66,0,0,1-1.44,14.3c-.1.5.67.72.77.21a75.26,75.26,0,0,0,1.47-14.51.4.4,0,0,0-.8,0Z" transform="translate(-460.28 -345.26)"/><path class="cls-2" d="M490.67,396.36c-2.32,4.08-3.29,8.71-4,13.29-.08.5.69.72.77.21.74-4.51,1.68-9.08,4-13.1a.4.4,0,0,0-.69-.4Z" transform="translate(-460.28 -345.26)"/><path class="cls-2" d="M470.29,399.69c1.25,4.73,3.87,9,6.7,12.93.3.41,1,0,.69-.41-2.79-3.87-5.39-8.07-6.61-12.73a.4.4,0,0,0-.78.21Z" transform="translate(-460.28 -345.26)"/><path class="cls-2" d="M470.4,399.87c3.48,3,6.84,6.39,8.89,10.57.23.46.92.06.69-.41-2.08-4.23-5.49-7.66-9-10.73-.38-.33-.95.23-.56.57Z" transform="translate(-460.28 -345.26)"/><path class="cls-3" d="M545.7,362.74a51,51,0,0,0-.67,5.4,20,20,0,0,0-3.57.59c1,.61,3.42.77,3.5,1.08.16.65.59,3.82,1.13,5.43.39-2,.63-3.69.89-5.47,0-.19,2.44-.54,3.43-1.08a12.49,12.49,0,0,0-3.68-.55,41.31,41.31,0,0,0-1-5.4" transform="translate(-460.28 -345.26)"/><path class="cls-3" d="M475.18,424.44a43.41,43.41,0,0,0-.58,4.58,17,17,0,0,0-3,.51c.87.51,2.91.65,3,.91.13.55.5,3.24,1,4.62.33-1.73.53-3.14.75-4.65,0-.16,2.07-.46,2.91-.92a10.8,10.8,0,0,0-3.12-.47,35.7,35.7,0,0,0-.87-4.58" transform="translate(-460.28 -345.26)"/><path class="cls-3" d="M555.51,419.92a39,39,0,0,0-.49,3.89,14.74,14.74,0,0,0-2.58.44c.74.43,2.48.55,2.53.78.12.46.43,2.75.82,3.92.28-1.47.46-2.67.64-3.95,0-.14,1.76-.39,2.48-.78a9.18,9.18,0,0,0-2.66-.41,28.47,28.47,0,0,0-.74-3.89" transform="translate(-460.28 -345.26)"/><path class="cls-4" d="M559.65,396.84a1.55,1.55,0,1,0,.11,3.09,1.55,1.55,0,0,0-.11-3.09" transform="translate(-460.28 -345.26)"/><path class="cls-4" d="M462.31,389.24a2.06,2.06,0,1,0,.15,4.12,2.06,2.06,0,0,0-.15-4.12" transform="translate(-460.28 -345.26)"/><path class="cls-4" d="M519.78,345.26a1.55,1.55,0,1,0,.11,3.09,1.55,1.55,0,0,0-.11-3.09" transform="translate(-460.28 -345.26)"/><path class="cls-4" d="M536.32,445.71a1,1,0,1,0,.07,2.06,1,1,0,0,0-.07-2.06" transform="translate(-460.28 -345.26)"/><path class="cls-4" d="M512.09,398.56a1,1,0,1,0,.08,2.06,1,1,0,0,0-.08-2.06" transform="translate(-460.28 -345.26)"/><path class="cls-4" d="M475.88,361.34a1,1,0,1,0,.07,2.06,1,1,0,0,0-.07-2.06" transform="translate(-460.28 -345.26)"/><path class="cls-2" d="M462.48,413.43a1.25,1.25,0,0,0,0-2.5,1.25,1.25,0,0,0,0,2.5Z" transform="translate(-460.28 -345.26)"/><path class="cls-2" d="M559,385.11a1.25,1.25,0,0,0,0-2.5,1.25,1.25,0,0,0,0,2.5Z" transform="translate(-460.28 -345.26)"/><path class="cls-2" d="M495.31,348.16a1,1,0,0,0,0-2,1,1,0,0,0,0,2Z" transform="translate(-460.28 -345.26)"/><path class="cls-2" d="M497.25,449.87a1,1,0,0,0,0-2,1,1,0,0,0,0,2Z" transform="translate(-460.28 -345.26)"/><path class="cls-2" d="M499.82,402.24a1,1,0,0,0,0-2,1,1,0,0,0,0,2Z" transform="translate(-460.28 -345.26)"/><path class="cls-2" d="M537.8,357.17a1,1,0,0,0,0-2,1,1,0,0,0,0,2Z" transform="translate(-460.28 -345.26)"/><path class="cls-2" d="M465.06,376.24a.75.75,0,0,0,0-1.5.75.75,0,0,0,0,1.5Z" transform="translate(-460.28 -345.26)"/><path class="cls-2" d="M560.33,412.93a.75.75,0,0,0,0-1.5.75.75,0,0,0,0,1.5Z" transform="translate(-460.28 -345.26)"/><path class="cls-2" d="M484.37,443.19a.75.75,0,0,0,0-1.5.75.75,0,0,0,0,1.5Z" transform="translate(-460.28 -345.26)"/><path class="cls-2" d="M521.71,402.63a.75.75,0,0,0,0-1.5.75.75,0,0,0,0,1.5Z" transform="translate(-460.28 -345.26)"/></g></svg>